<svg width="30px" height="21px" viewBox="0 0 30 21" version="1.1" xmlns="http://www.w3.org/2000/svg" xmlns:xlink="http://www.w3.org/1999/xlink">
    <!-- Generator: Sketch 46.2 (44496) - http://www.bohemiancoding.com/sketch -->
    <desc>Created with Sketch.</desc>
    <defs></defs>
    <g id="Fire" stroke="none" stroke-width="1" fill="none" fill-rule="evenodd">
        <g transform="translate(-76.000000, -330.000000)" id="Group-15" fill="#DBDBDB">
            <g transform="translate(76.000000, 330.000000)">
                <g id="Group-10">
                    <path d="M29.2681191,1.32322968 L15.4196897,12.7293069 C15.2971137,12.8296337 15.1478907,12.8797971 15,12.8797971 C14.8521093,12.8797971 14.7028863,12.8296337 14.5803103,12.7293069 L0.733213261,1.32322968 C0.492058199,1.73131589 0.344167526,2.20176742 0.344167526,2.71153624 L0.344167526,17.6249855 C0.344167526,19.1203978 1.53928405,20.3365218 3.00886434,20.3365218 L26.9911357,20.3365218 C28.460716,20.3365218 29.6558325,19.1203978 29.6558325,17.6249855 L29.6558325,2.71153624 C29.6558325,2.20176742 29.5079418,1.73131589 29.2681191,1.32322968" id="Fill-100"></path>
                    <path d="M28.3074959,0.368768928 C27.9171178,0.139644116 27.4721134,0 26.9911357,0 L3.00886434,0 C2.52788656,0 2.0828822,0.139644116 1.69250411,0.368768928 L15,11.3301542 L28.3074959,0.368768928" id="Fill-101"></path>
                </g>
            </g>
        </g>
    </g>
</svg>

