<svg width="22px" height="22px" viewBox="0 0 22 22" version="1.1" xmlns="http://www.w3.org/2000/svg" xmlns:xlink="http://www.w3.org/1999/xlink">
    <g id="Fire" stroke="none" stroke-width="1" fill="none" fill-rule="evenodd">
        <g transform="translate(-80.000000, -378.000000)" id="Group-15" fill="#DBDBDB">
            <g transform="translate(76.000000, 330.000000)">
                <path d="M24.3128562,48.2371261 L5.68714381,48.2371261 C5.04874609,48.2371261 4.53154823,48.7515498 4.53154823,49.3864451 L4.53154823,67.9124055 C4.53154823,68.5471448 5.04874609,69.0617244 5.68714381,69.0617244 L15.7145693,69.0617244 L15.7145693,60.9973755 L12.9861211,60.9973755 L12.9861211,57.8544992 L15.7145693,57.8544992 L15.7145693,55.536745 C15.7145693,52.8469641 17.3661822,51.3823432 19.7786478,51.3823432 C20.9341649,51.3823432 21.9272977,51.4679374 22.2168438,51.50617 L22.2168438,54.3171248 L20.5435797,54.3179051 C19.2316402,54.3179051 18.9776304,54.9379755 18.9776304,55.8479116 L18.9776304,57.8544992 L22.106548,57.8544992 L21.6990968,60.9973755 L18.9776304,60.9973755 L18.9776304,69.0617244 L24.3128562,69.0617244 C24.9510186,69.0617244 25.4683733,68.5471448 25.4683733,67.9124055 L25.4683733,49.3864451 C25.4683733,48.7515498 24.9510186,48.2371261 24.3128562,48.2371261" id="Fill-15-Copy"></path>
            </g>
        </g>
    </g>
</svg>
