<svg width="26px" height="22px" viewBox="0 0 26 22" version="1.1" xmlns="http://www.w3.org/2000/svg" xmlns:xlink="http://www.w3.org/1999/xlink">
    <!-- Generator: Sketch 46.2 (44496) - http://www.bohemiancoding.com/sketch -->
    <desc>Created with Sketch.</desc>
    <defs></defs>
    <g id="Fire" stroke="none" stroke-width="1" fill="none" fill-rule="evenodd">
        <g transform="translate(-78.000000, -426.000000)" id="Group-15" fill="#DBDBDB">
            <g transform="translate(76.000000, 330.000000)">
                <path d="M27.8312402,98.7640261 C26.8833321,99.1821527 25.8646537,99.4647466 24.7954655,99.5918436 C25.8867989,98.9411745 26.7248292,97.9109016 27.1194846,96.6833283 C26.0982619,97.2857268 24.9670671,97.7232554 23.7631231,97.9590785 C22.7989124,96.9373349 21.4252514,96.2988506 19.9050553,96.2988506 C16.9859434,96.2988506 14.6193301,98.6526756 14.6193301,101.555942 C14.6193301,101.967976 14.6661648,102.369232 14.7562533,102.753991 C10.363403,102.534758 6.4687722,100.441781 3.86186018,97.2611698 C3.40689448,98.0376236 3.14624097,98.9407059 3.14624097,99.9041498 C3.14624097,101.728029 4.07944838,103.337175 5.4976824,104.279904 C4.63119324,104.252629 3.81625053,104.01615 3.10355259,103.622393 C3.10317565,103.644326 3.10317565,103.666352 3.10317565,103.688472 C3.10317565,106.235661 4.92511164,108.360505 7.34308285,108.843399 C6.89951956,108.96356 6.43258603,109.027764 5.9504807,109.027764 C5.60991607,109.027764 5.27877491,108.994865 4.95611489,108.933472 C5.62866879,111.022137 7.58064883,112.542052 9.89354822,112.584512 C8.08461664,113.994482 5.80554755,114.834953 3.32924498,114.834953 C2.90264396,114.834953 2.4818855,114.810115 2.06838311,114.761563 C4.40747978,116.253172 7.18580494,117.123449 10.1706928,117.123449 C19.8927106,117.123449 25.2090621,109.112683 25.2090621,102.165558 C25.2090621,101.937608 25.2039734,101.710877 25.1937961,101.485458 C26.2264212,100.744246 27.1225943,99.8182937 27.8312402,98.7640261" id="Fill-1-Copy"></path>
            </g>
        </g>
    </g>
</svg>

