<svg width="109px" height="12px" viewBox="0 0 109 12" version="1.1" xmlns="http://www.w3.org/2000/svg" xmlns:xlink="http://www.w3.org/1999/xlink">
    <!-- Generator: Sketch 46.2 (44496) - http://www.bohemiancoding.com/sketch -->
    <desc>Created with Sketch.</desc>
    <defs></defs>
    <g id="Archive" stroke="none" stroke-width="1" fill="none" fill-rule="evenodd">
        <g id="Archive---Mobile" transform="translate(-250.000000, -35.000000)">
            <g id="logo-copy" transform="translate(292.000000, 35.000000)" fill="#FFFFFF">
                <g id="Group-4">
                    <path d="M0,4.76493052 C0,2.13739226 2.16181351,0 4.81937329,0 C7.47746215,0 9.63874659,2.13739226 9.63874659,4.76493052 C9.63874659,7.39299188 7.47746215,9.53038415 4.81937329,9.53038415 C2.16181351,9.53038415 0,7.39299188 0,4.76493052 Z M4.88514357,2.54578755 C3.6116345,2.54578755 2.57473368,3.57103114 2.57473368,4.83022293 C2.57473368,6.09088919 3.6116345,7.11514981 4.88514357,7.11514981 C6.16014386,7.11514981 7.19605053,6.09088919 7.19605053,4.83022293 C7.19605053,3.57103114 6.16014386,2.54578755 4.88514357,2.54578755 L4.88514357,2.54578755 Z" id="Donut"></path>
                    <path d="M31.517381,9.33455433 L34.0789109,9.33455433 L34.0789109,6.97154128 L35.016378,5.94017094 L37.3402402,9.33455433 L40.4167169,9.33455433 L36.7988859,4.12548136 L40.297883,0.195829811 L37.2610176,0.195829811 L34.0789109,3.9035409 L34.0789109,0.195829811 L31.517381,0.195829811 L31.517381,9.33455433 Z M40.8920523,9.33455433 L43.4535822,9.33455433 L43.4535822,6.72349019 L44.7211434,6.72349019 C47.0185981,6.72349019 48.6954759,5.58767728 48.6954759,3.43354936 C48.6954759,1.383864 47.190247,0.195829811 44.853181,0.195829811 L40.8920523,0.195829811 L40.8920523,9.33455433 Z M43.466786,4.73908143 L43.466786,2.32384709 L44.7215987,2.32384709 C45.6868393,2.32384709 46.2659836,2.74161736 46.2659836,3.5249366 L46.2659836,3.55104724 C46.2659836,4.26908988 45.6868393,4.73908143 44.7353879,4.73908143 L43.466786,4.73908143 Z M53.9637771,9.51732883 C56.0103603,9.51732883 57.1854952,8.64262233 58.0569435,7.45458815 L56.1291942,6.09683479 C55.5746361,6.76265615 55.0068744,7.20653705 54.0429997,7.20653705 C52.749031,7.20653705 51.8379714,6.13600075 51.8379714,4.76519207 L51.8379714,4.73908143 C51.8379714,3.40743872 52.749031,2.32384709 54.0429997,2.32384709 C54.9276518,2.32384709 55.5350249,2.74161736 56.0631754,3.39438339 L57.9909247,1.91913215 C57.1722914,0.796374566 55.9575453,0.0130553207 54.0694072,0.0130553207 C51.2702096,0.0130553207 49.1972189,2.10190664 49.1972189,4.76519207 L49.1972189,4.79130271 C49.1972189,7.51986475 51.3230246,9.51732883 53.9637771,9.51732883 L53.9637771,9.51732883 Z M62.810298,9.51732883 C64.8568811,9.51732883 66.032016,8.64262233 66.9034643,7.45458815 L64.975715,6.09683479 C64.421157,6.76265615 63.8533952,7.20653705 62.8895205,7.20653705 C61.5955518,7.20653705 60.6844922,6.13600075 60.6844922,4.76519207 L60.6844922,4.73908143 C60.6844922,3.40743872 61.5955518,2.32384709 62.8895205,2.32384709 C63.7741726,2.32384709 64.3815457,2.74161736 64.9096962,3.39438339 L66.8374455,1.91913215 C66.0188122,0.796374566 64.8040661,0.0130553207 62.9159281,0.0130553207 C60.1167304,0.0130553207 58.0437397,2.10190664 58.0437397,4.76519207 L58.0437397,4.79130271 C58.0437397,7.51986475 60.1695455,9.51732883 62.810298,9.51732883 L62.810298,9.51732883 Z" id="KPCC"></path>
                    <g id="Group-3" transform="translate(11.223198, 0.195830)">
                        <path d="M5.65352099,6.53660327 C5.65352099,5.60151592 5.22479482,4.74123556 3.98905469,4.34226496 C5.04826052,3.95576219 5.38871953,3.10794966 5.38871953,2.39728327 C5.38871953,1.03828966 4.26646574,0.153073636 2.90462968,0.153073636 C1.53018403,0.153073636 0.420539834,1.03828966 0.420539834,2.39728327 C0.420539834,3.12041749 0.798827628,3.99316568 1.79498549,4.34226496 C0.584464545,4.74123556 0.155738378,5.61398375 0.155738378,6.53660327 C0.155738378,8.07014652 1.34104013,9.03016953 2.90462968,9.03016953 C4.44300005,9.03016953 5.65352099,8.07014652 5.65352099,6.53660327 L5.65352099,6.53660327 Z M4.83389743,2.4097511 C4.83389743,3.54432375 3.9764451,4.14277966 2.90462968,4.14277966 C1.83281427,4.14277966 0.962752339,3.54432375 0.962752339,2.4097511 C0.962752339,1.34998544 1.89586223,0.651786888 2.90462968,0.651786888 C3.91339713,0.651786888 4.83389743,1.34998544 4.83389743,2.4097511 L4.83389743,2.4097511 Z M5.0860893,6.53660327 C5.0860893,7.73351507 4.06471225,8.50652062 2.90462968,8.50652062 C1.73193752,8.50652062 0.723170069,7.73351507 0.723170069,6.53660327 C0.723170069,5.25241664 1.68149915,4.59162158 2.90462968,4.59162158 C4.11515062,4.59162158 5.0860893,5.26488447 5.0860893,6.53660327 L5.0860893,6.53660327 Z M11.6471828,3.15782098 C11.6471828,1.52453508 10.6636345,0.153073636 8.91090109,0.153073636 C7.38514032,0.153073636 6.22505775,1.34998544 6.22505775,2.82118954 C6.22505775,4.30486146 7.34731154,5.45190194 8.8856819,5.45190194 C9.56659993,5.45190194 10.4240523,5.25241664 11.0293127,4.19265098 C10.6131962,6.46179628 9.26396969,7.88312905 7.86430486,8.94289471 L8.57044207,8.94289471 C10.5501482,7.53402977 11.6471828,5.26488447 11.6471828,3.15782098 L11.6471828,3.15782098 Z M11.0545319,2.79625387 C11.0545319,3.98069785 10.1592508,4.94072086 8.89829149,4.94072086 C7.68777055,4.94072086 6.75466066,3.94329436 6.75466066,2.80872171 C6.75466066,1.67414906 7.67516096,0.66425472 8.89829149,0.66425472 C10.0962028,0.66425472 11.0545319,1.64921339 11.0545319,2.79625387 L11.0545319,2.79625387 Z M11.4576547,7.99533953 C11.1802436,7.99533953 10.9406614,8.2197605 10.9406614,8.50652062 C10.9406614,8.79328074 11.1802436,9.0177017 11.4576547,9.0177017 C11.7602849,9.0177017 11.9872576,8.79328074 11.9872576,8.50652062 C11.9872576,8.2197605 11.7602849,7.99533953 11.4576547,7.99533953 Z M18.200498,6.5490711 C18.200498,5.46436978 17.5826279,4.7162999 16.5612509,4.39213628 C17.4691416,4.0804405 17.9735253,3.39470978 17.9735253,2.42221893 C17.9735253,1.03828966 16.8260523,0.140605804 15.4642163,0.140605804 C14.41762,0.140605804 13.5097293,0.651786888 13.0683936,1.59934207 L13.5601677,1.79882737 C13.8880171,1.07569315 14.6319831,0.639319057 15.4389971,0.639319057 C16.4477645,0.639319057 17.4313128,1.38738894 17.4313128,2.42221893 C17.4313128,3.6440664 16.5486413,4.15524749 15.4263875,4.19265098 L15.4263875,4.60408941 C16.6621276,4.64149291 17.6456759,5.21501315 17.6456759,6.5490711 C17.6456759,7.74598291 16.6747372,8.50652062 15.5146546,8.50652062 C14.6319831,8.50652062 13.8375788,8.09508218 13.4971197,7.27220532 L12.992736,7.45922279 C13.4214622,8.55639194 14.3671817,9.03016953 15.5146546,9.03016953 C17.0151962,9.03016953 18.200498,8.09508218 18.200498,6.5490711 L18.200498,6.5490711 Z" id="89.3"></path>
                        <path d="M5.78555861,6.53660327 C5.78555861,5.42931886 5.21855482,4.60188401 4.03003941,4.21816037 L4.03476914,4.46474375 C5.02733225,4.10255881 5.52075716,3.31064149 5.52075716,2.39728327 C5.52075716,1.00643334 4.38689796,0.0225204283 2.90462968,0.0225204283 C1.41418623,0.0225204283 0.28850221,1.00276671 0.28850221,2.39728327 C0.28850221,3.30501659 0.803799398,4.13341881 1.75087594,4.46531775 L1.75323152,4.21841131 C0.589536207,4.60194885 0.0237007536,5.44116002 0.0237007536,6.53660327 C0.0237007536,8.10569671 1.22554491,9.16072274 2.90462968,9.16072274 C4.56743933,9.16072274 5.78555861,8.09822067 5.78555861,6.53660327 L5.78555861,6.53660327 Z M5.52148336,6.53660327 C5.52148336,7.94622095 4.42845086,8.89961632 2.90462968,8.89961632 C1.36485406,8.89961632 0.287776003,7.95411488 0.287776003,6.53660327 C0.287776003,5.54991868 0.784749113,4.81283976 1.83673945,4.4661186 L2.20103419,4.3460522 L1.83909503,4.21921216 C1.00433184,3.92667296 0.552577458,3.20042344 0.552577458,2.39728327 C0.552577458,1.15487538 1.55309189,0.283626843 2.90462968,0.283626843 C4.24816621,0.283626843 5.25668191,1.15877221 5.25668191,2.39728327 C5.25668191,3.2066541 4.82613536,3.89765542 3.94334025,4.21978617 L3.58702851,4.34980383 L3.94806998,4.46636955 C5.02457145,4.81392842 5.52148336,5.53907741 5.52148336,6.53660327 L5.52148336,6.53660327 Z M4.70185981,2.4097511 C4.70185981,3.40747539 3.97902765,4.01222645 2.90462968,4.01222645 C1.82695615,4.01222645 1.09478996,3.40515997 1.09478996,2.4097511 C1.09478996,1.47615969 1.90691956,0.782340096 2.90462968,0.782340096 C3.89940543,0.782340096 4.70185981,1.4739608 4.70185981,2.4097511 L4.70185981,2.4097511 Z M4.96593506,2.4097511 C4.96593506,1.32117384 4.03780279,0.521233681 2.90462968,0.521233681 C1.76895026,0.521233681 0.830714714,1.32278827 0.830714714,2.4097511 C0.830714714,3.56054242 1.69039166,4.27333286 2.90462968,4.27333286 C4.11600705,4.27333286 4.96593506,3.56224819 4.96593506,2.4097511 L4.96593506,2.4097511 Z M4.95405167,6.53660327 C4.95405167,7.60605727 4.05504849,8.37596741 2.90462968,8.37596741 C1.7462251,8.37596741 0.855207694,7.60988023 0.855207694,6.53660327 C0.855207694,5.39734704 1.66874561,4.72217479 2.90462968,4.72217479 C4.12699027,4.72217479 4.95405167,5.40909594 4.95405167,6.53660327 L4.95405167,6.53660327 Z M5.21812692,6.53660327 C5.21812692,5.25382945 4.26363295,4.46106838 2.90462968,4.46106838 C1.53213796,4.46106838 0.591132445,5.24202867 0.591132445,6.53660327 C0.591132445,7.76282806 1.60794648,8.63707382 2.90462968,8.63707382 C4.19313545,8.63707382 5.21812692,7.75926679 5.21812692,6.53660327 L5.21812692,6.53660327 Z M11.7792204,3.15782098 C11.7792204,1.34978845 10.6510267,0.0225204283 8.91090109,0.0225204283 C7.32718997,0.0225204283 6.09302012,1.26282011 6.09302012,2.82118954 C6.09302012,4.38982838 7.28726486,5.58245515 8.8856819,5.58245515 C9.83464837,5.58245515 10.5995319,5.21066826 11.144285,4.25684656 L10.8993935,4.16935903 C10.5416948,6.11994298 9.50672153,7.53489315 7.78402849,8.83924178 L7.4747053,9.07344792 L7.86430486,9.07344792 L8.57044207,9.07344792 L8.61301816,9.07344792 L8.6475743,9.04885592 C10.5992861,7.65991321 11.7792204,5.38297007 11.7792204,3.15782098 L11.7792204,3.15782098 Z M11.5151452,3.15782098 C11.5151452,5.29897423 10.3760784,7.49705454 8.49330985,8.8369335 L8.57044207,8.8123415 L7.86430486,8.8123415 L7.94458122,9.04654764 C9.71508393,7.70599958 10.7882813,6.23879178 11.159232,4.21594293 L11.2986817,3.45550272 L10.9143405,4.1284554 C10.4203682,4.99336388 9.74559929,5.32134874 8.8856819,5.32134874 C7.43370103,5.32134874 6.35709537,4.24620167 6.35709537,2.82118954 C6.35709537,1.40608339 7.4740045,0.283626843 8.91090109,0.283626843 C10.494032,0.283626843 11.5151452,1.48491954 11.5151452,3.15782098 L11.5151452,3.15782098 Z M10.9224943,2.79625387 C10.9224943,3.93401607 10.0612915,4.81016765 8.89829149,4.81016765 C7.78530408,4.81016765 6.88669828,3.89617447 6.88669828,2.80872171 C6.88669828,1.71395605 7.77955426,0.794807927 8.89829149,0.794807927 C10.0099838,0.794807927 10.9224943,1.70801812 10.9224943,2.79625387 L10.9224943,2.79625387 Z M11.1865695,2.79625387 C11.1865695,1.56451394 10.156547,0.533701512 8.89829149,0.533701512 C7.63127377,0.533701512 6.62262303,1.57205422 6.62262303,2.80872171 C6.62262303,4.03875263 7.63776162,5.07127407 8.89829149,5.07127407 C10.208848,5.07127407 11.1865695,4.07658119 11.1865695,2.79625387 L11.1865695,2.79625387 Z M11.4576547,7.86478632 C11.1034321,7.86478632 10.8086237,8.15142208 10.8086237,8.50652062 C10.8086237,8.86161915 11.1034321,9.14825491 11.4576547,9.14825491 C11.8307917,9.14825491 12.1192952,8.86774916 12.1192952,8.50652062 C12.1192952,8.14529207 11.8307917,7.86478632 11.4576547,7.86478632 L11.4576547,7.86478632 Z M11.4576547,8.12589274 C11.6859312,8.12589274 11.85522,8.29048857 11.85522,8.50652062 C11.85522,8.72255266 11.6859312,8.88714849 11.4576547,8.88714849 C11.2482926,8.88714849 11.072699,8.71642264 11.072699,8.50652062 C11.072699,8.29661859 11.2482926,8.12589274 11.4576547,8.12589274 L11.4576547,8.12589274 Z M18.3325356,6.5490711 C18.3325356,5.42985335 17.7007053,4.61666117 16.6016054,4.26782994 L16.6045608,4.51546646 C17.57179,4.18339864 18.1055629,3.44382338 18.1055629,2.42221893 C18.1055629,1.01216221 16.9529508,0.010052597 15.4642163,0.010052597 C14.3421068,0.010052597 13.4022359,0.570472894 12.9484626,1.54473164 L12.8908467,1.66843408 L13.0182779,1.7201258 L13.510052,1.9196111 L13.6283491,1.96759765 L13.6806533,1.85223093 C13.9816125,1.18840813 14.6694664,0.769872264 15.4389971,0.769872264 C16.4308788,0.769872264 17.2992752,1.50844259 17.2992752,2.42221893 C17.2992752,3.47216308 16.6023543,4.02282994 15.4219393,4.06217188 L15.2943499,4.0664243 L15.2943499,4.19265098 L15.2943499,4.60408941 L15.2943499,4.73070725 L15.4223474,4.73458149 C16.7252557,4.77401804 17.5136383,5.39395068 17.5136383,6.5490711 C17.5136383,7.62502438 16.6566088,8.37596741 15.5146546,8.37596741 C14.6372053,8.37596741 13.9236668,7.95835221 13.6193268,7.22277358 L13.5707888,7.10545911 L13.4507582,7.14996454 L12.9463745,7.33698201 L12.8215106,7.38327955 L12.8695716,7.50627407 C13.297971,8.60260697 14.2444768,9.16072274 15.5146546,9.16072274 C17.1478251,9.16072274 18.3325356,8.11524621 18.3325356,6.5490711 L18.3325356,6.5490711 Z M18.0684604,6.5490711 C18.0684604,7.96400726 17.0082492,8.89961632 15.5146546,8.89961632 C14.3476442,8.89961632 13.5023662,8.40119051 13.1159005,7.4121715 L13.0390975,7.58146356 L13.5434812,7.39444609 L13.3749127,7.32163705 C13.7222797,8.16121029 14.5353414,8.63707382 15.5146546,8.63707382 C16.7958247,8.63707382 17.7777135,7.77672704 17.7777135,6.5490711 C17.7777135,5.23595361 16.8633651,4.51696962 15.4304276,4.47359734 L15.5584251,4.60408941 L15.5584251,4.19265098 L15.4308357,4.32313008 C16.7410328,4.27946264 17.5633504,3.62971448 17.5633504,2.42221893 C17.5633504,1.35477235 16.5686328,0.50876585 15.4389971,0.50876585 C14.5677045,0.50876585 13.784214,0.985493344 13.4396821,1.74542381 L13.6102834,1.67804364 L13.1185093,1.47855834 L13.1883245,1.65395249 C13.5977674,0.774871845 14.4425353,0.271159012 15.4642163,0.271159012 C16.8141237,0.271159012 17.8414877,1.16437472 17.8414877,2.42221893 C17.8414877,3.33247214 17.3790852,3.97315926 16.517941,4.26880611 L16.14455,4.39699818 L16.5208964,4.51644262 C17.5131807,4.83137282 18.0684604,5.54604107 18.0684604,6.5490711 L18.0684604,6.5490711 Z" id="89.3" fill-rule="nonzero"></path>
                    </g>
                </g>
            </g>
            <path d="M250.144,44 L250.144,35.329 L253.472,35.329 C254.2,35.329 254.616,35.407 255.019,35.628 C255.669,35.966 256.02,36.59 256.02,37.37 C256.02,38.371 255.487,39.073 254.499,39.333 C255.721,39.697 256.293,40.399 256.293,41.582 C256.293,42.531 255.89,43.259 255.136,43.662 C254.681,43.909 254.161,44 253.29,44 L250.144,44 Z M250.989,43.272 L253.472,43.272 C254.707,43.272 255.435,42.622 255.435,41.517 C255.435,40.36 254.681,39.749 253.225,39.749 L250.989,39.749 L250.989,43.272 Z M250.989,39.047 L252.874,39.047 C253.836,39.047 254.265,38.956 254.616,38.67 C254.954,38.41 255.162,37.955 255.162,37.461 C255.162,36.512 254.551,36.057 253.303,36.057 L250.989,36.057 L250.989,39.047 Z M257.749,37.591 L257.749,41.647 C257.749,42.401 257.853,42.921 258.087,43.298 C258.425,43.87 259.036,44.182 259.777,44.182 C260.713,44.182 261.389,43.74 261.87,42.791 L261.87,44 L262.637,44 L262.637,37.591 L261.87,37.591 L261.87,41.114 C261.87,42.531 261.025,43.545 259.855,43.545 C258.932,43.545 258.516,42.96 258.516,41.66 L258.516,37.591 L257.749,37.591 Z M265.458,37.591 L264.691,37.591 L264.691,44 L265.458,44 L265.458,37.591 Z M265.51,35.329 L264.626,35.329 L264.626,36.239 L265.51,36.239 L265.51,35.329 Z M268.279,44 L268.279,35.329 L267.512,35.329 L267.512,44 L268.279,44 Z M271.217,38.202 L272.725,38.202 L272.725,37.591 L271.217,37.591 L271.217,35.927 L270.398,36.005 L270.398,37.591 L269.15,37.591 L269.15,38.202 L270.45,38.202 L270.45,42.167 C270.45,43.545 271.022,44.195 272.231,44.195 C272.439,44.195 272.66,44.182 273.128,44.117 L273.128,43.506 C272.803,43.558 272.608,43.571 272.4,43.571 C271.529,43.571 271.217,43.207 271.217,42.193 L271.217,38.202 Z M277.808,44 L277.418,44 L277.418,35.329 L278.185,35.329 L278.185,38.709 C278.718,37.799 279.329,37.409 280.239,37.409 C281.786,37.409 282.8,38.735 282.8,40.75 C282.8,42.817 281.747,44.182 280.161,44.182 C279.251,44.182 278.64,43.831 278.107,43.051 L277.808,44 Z M278.185,40.633 L278.185,41.101 C278.185,41.764 278.289,42.232 278.523,42.635 C278.861,43.207 279.42,43.545 280.031,43.545 C281.201,43.545 281.981,42.44 281.981,40.802 C281.981,39.125 281.253,38.059 280.109,38.059 C278.978,38.059 278.185,39.125 278.185,40.633 Z M288.637,37.591 L287.922,37.591 L285.998,42.843 L284.243,37.591 L283.437,37.591 L285.608,43.896 L285.387,44.481 C285.075,45.3 284.698,45.638 284.1,45.638 C283.879,45.638 283.71,45.612 283.359,45.521 L283.359,46.158 C283.697,46.249 283.866,46.275 284.126,46.275 C285.062,46.275 285.608,45.82 286.024,44.689 L288.637,37.591 Z" id="Tagline" fill="#F6F6F6"></path>
        </g>
    </g>
</svg>

