<svg width="117px" height="32px" viewBox="0 0 117 32" version="1.1" xmlns="http://www.w3.org/2000/svg" xmlns:xlink="http://www.w3.org/1999/xlink">
    <!-- Generator: Sketch 46.2 (44496) - http://www.bohemiancoding.com/sketch -->
    <desc>Created with Sketch.</desc>
    <defs></defs>
    <g id="Archive" stroke="none" stroke-width="1" fill="none" fill-rule="evenodd">
        <g transform="translate(-1188.000000, -15.000000)" id="Group-4" fill="#F6F6F6">
            <g transform="translate(1188.000000, 15.000000)">
                <g id="Group-3">
                    <path d="M7.5,9 L6.616,9 L5.758,6.283 L2.638,6.283 L1.78,9 L1.039,9 L3.821,0.329 L4.718,0.329 L7.5,9 Z M5.524,5.581 L4.185,1.369 L2.859,5.581 L5.524,5.581 Z M11.062,7.245 C11.244,7.921 11.452,8.272 11.868,8.61 C12.375,9.013 12.999,9.195 13.857,9.195 C15.521,9.195 16.535,8.441 16.535,7.193 C16.535,6.699 16.379,6.322 16.054,6.023 C15.729,5.698 15.339,5.555 14.403,5.386 L13.22,5.178 C12.505,5.048 12.141,4.71 12.141,4.19 C12.141,3.488 12.752,3.033 13.675,3.033 C14.65,3.033 15.326,3.475 15.547,4.255 L16.262,4.099 C15.963,2.968 15.105,2.396 13.714,2.396 C12.245,2.396 11.322,3.111 11.322,4.242 C11.322,5.152 11.907,5.724 13.09,5.945 L14.403,6.179 C15.326,6.361 15.716,6.686 15.716,7.31 C15.716,8.077 15.014,8.558 13.922,8.558 C12.739,8.558 12.011,8.051 11.816,7.076 L11.062,7.245 Z M18.654,11.171 L17.887,11.171 L17.887,2.591 L18.576,2.591 L18.576,3.8 C19.096,2.838 19.759,2.409 20.708,2.409 C22.255,2.409 23.269,3.735 23.269,5.75 C23.269,6.751 23.022,7.596 22.541,8.246 C22.073,8.883 21.462,9.182 20.643,9.182 C19.785,9.182 19.174,8.857 18.654,8.129 L18.654,11.171 Z M18.654,5.633 L18.654,6.101 C18.654,6.764 18.758,7.232 18.992,7.635 C19.33,8.207 19.889,8.545 20.5,8.545 C21.67,8.545 22.45,7.44 22.45,5.802 C22.45,4.125 21.722,3.059 20.578,3.059 C19.447,3.059 18.654,4.125 18.654,5.633 Z M30.003,5.815 L25.128,5.815 C25.128,7.492 25.96,8.545 27.299,8.545 C28.196,8.545 28.885,8.038 29.171,7.141 L29.886,7.323 C29.548,8.467 28.534,9.182 27.273,9.182 C25.479,9.182 24.309,7.856 24.309,5.854 C24.309,3.8 25.518,2.409 27.312,2.409 C28.326,2.409 29.145,2.903 29.613,3.8 C29.899,4.359 29.99,4.814 30.003,5.815 Z M25.154,5.204 L29.171,5.204 C29.054,3.787 28.404,3.046 27.286,3.046 C26.636,3.046 26.038,3.345 25.648,3.865 C25.375,4.229 25.258,4.541 25.154,5.204 Z M36.152,4.632 C35.879,3.176 35.073,2.409 33.799,2.409 C32.161,2.409 31.043,3.787 31.043,5.789 C31.043,6.725 31.29,7.57 31.758,8.207 C32.239,8.857 32.915,9.182 33.773,9.182 C34.514,9.182 35.086,8.922 35.541,8.402 C35.866,8.012 36.009,7.674 36.152,6.959 L35.424,6.79 C35.255,7.895 34.631,8.545 33.747,8.545 C32.59,8.545 31.862,7.453 31.862,5.724 C31.862,4.099 32.616,3.046 33.773,3.046 C34.696,3.046 35.294,3.683 35.424,4.801 L36.152,4.632 Z M38.414,2.591 L37.647,2.591 L37.647,9 L38.414,9 L38.414,2.591 Z M38.466,0.329 L37.582,0.329 L37.582,1.239 L38.466,1.239 L38.466,0.329 Z M45.421,9 L44.628,9 C44.563,8.506 44.55,8.428 44.537,7.908 C43.952,8.831 43.315,9.182 42.249,9.182 C40.871,9.182 39.987,8.415 39.987,7.219 C39.987,5.841 41.183,5.035 43.198,5.035 C43.497,5.035 43.588,5.035 44.537,5.087 L44.537,4.749 C44.537,3.501 44.069,3.046 42.782,3.046 C42.184,3.046 41.638,3.202 41.326,3.475 C41.105,3.657 40.988,3.878 40.923,4.281 L40.156,4.125 C40.286,3.488 40.507,3.15 41.001,2.838 C41.443,2.552 42.054,2.409 42.795,2.409 C43.783,2.409 44.511,2.669 44.901,3.189 C45.2,3.566 45.304,3.995 45.304,4.84 L45.304,7.778 C45.304,8.324 45.33,8.623 45.421,9 Z M44.537,5.984 L44.537,5.737 C43.666,5.685 43.484,5.672 43.12,5.672 C41.651,5.672 40.806,6.244 40.806,7.232 C40.806,8.012 41.404,8.545 42.262,8.545 C43.601,8.545 44.537,7.492 44.537,5.984 Z M48.099,9 L48.099,0.329 L47.332,0.329 L47.332,9 L48.099,9 Z M54.118,11.171 L53.351,11.171 L53.351,2.591 L54.04,2.591 L54.04,3.8 C54.56,2.838 55.223,2.409 56.172,2.409 C57.719,2.409 58.733,3.735 58.733,5.75 C58.733,6.751 58.486,7.596 58.005,8.246 C57.537,8.883 56.926,9.182 56.107,9.182 C55.249,9.182 54.638,8.857 54.118,8.129 L54.118,11.171 Z M54.118,5.633 L54.118,6.101 C54.118,6.764 54.222,7.232 54.456,7.635 C54.794,8.207 55.353,8.545 55.964,8.545 C57.134,8.545 57.914,7.44 57.914,5.802 C57.914,4.125 57.186,3.059 56.042,3.059 C54.911,3.059 54.118,4.125 54.118,5.633 Z M63.348,2.461 C63.166,2.422 63.075,2.409 62.893,2.409 C61.918,2.409 61.346,2.89 60.943,4.073 L60.943,2.591 L60.254,2.591 L60.254,9 L61.021,9 L61.021,5.503 C61.021,4.918 61.216,4.281 61.515,3.813 C61.853,3.306 62.321,3.046 62.893,3.046 C63.036,3.046 63.14,3.059 63.348,3.085 L63.348,2.461 Z M66.754,2.409 C68.405,2.409 69.523,3.761 69.523,5.789 C69.523,7.804 68.405,9.182 66.793,9.182 C65.077,9.182 63.972,7.843 63.972,5.789 C63.972,3.774 65.09,2.409 66.754,2.409 Z M66.754,3.046 C65.532,3.046 64.791,4.086 64.791,5.789 C64.791,7.492 65.532,8.545 66.715,8.545 C67.976,8.545 68.704,7.518 68.704,5.789 C68.704,4.086 67.963,3.046 66.754,3.046 Z M71.954,0.329 L70.979,0.329 L70.979,1.239 L71.954,1.239 L71.954,0.329 Z M71.109,2.591 L71.876,2.591 L71.876,9.013 C71.876,10.391 71.304,11.041 70.095,11.041 C69.887,11.041 69.666,11.028 69.198,10.963 L69.198,10.352 C69.523,10.404 69.705,10.417 69.926,10.417 C70.797,10.417 71.109,10.053 71.109,9.039 L71.109,2.591 Z M79.13,5.815 L74.255,5.815 C74.255,7.492 75.087,8.545 76.426,8.545 C77.323,8.545 78.012,8.038 78.298,7.141 L79.013,7.323 C78.675,8.467 77.661,9.182 76.4,9.182 C74.606,9.182 73.436,7.856 73.436,5.854 C73.436,3.8 74.645,2.409 76.439,2.409 C77.453,2.409 78.272,2.903 78.74,3.8 C79.026,4.359 79.117,4.814 79.13,5.815 Z M74.281,5.204 L78.298,5.204 C78.181,3.787 77.531,3.046 76.413,3.046 C75.763,3.046 75.165,3.345 74.775,3.865 C74.502,4.229 74.385,4.541 74.281,5.204 Z M85.279,4.632 C85.006,3.176 84.2,2.409 82.926,2.409 C81.288,2.409 80.17,3.787 80.17,5.789 C80.17,6.725 80.417,7.57 80.885,8.207 C81.366,8.857 82.042,9.182 82.9,9.182 C83.641,9.182 84.213,8.922 84.668,8.402 C84.993,8.012 85.136,7.674 85.279,6.959 L84.551,6.79 C84.382,7.895 83.758,8.545 82.874,8.545 C81.717,8.545 80.989,7.453 80.989,5.724 C80.989,4.099 81.743,3.046 82.9,3.046 C83.823,3.046 84.421,3.683 84.551,4.801 L85.279,4.632 Z M87.645,3.202 L89.153,3.202 L89.153,2.591 L87.645,2.591 L87.645,0.927 L86.826,1.005 L86.826,2.591 L85.578,2.591 L85.578,3.202 L86.878,3.202 L86.878,7.167 C86.878,8.545 87.45,9.195 88.659,9.195 C88.867,9.195 89.088,9.182 89.556,9.117 L89.556,8.506 C89.231,8.558 89.036,8.571 88.828,8.571 C87.957,8.571 87.645,8.207 87.645,7.193 L87.645,3.202 Z M96.342,2.591 L94.808,2.591 L94.808,2.123 C94.782,1.876 94.873,1.421 94.964,1.239 C95.133,0.914 95.458,0.771 95.991,0.771 C96.186,0.771 96.381,0.784 96.719,0.836 L96.719,0.212 C96.251,0.16 96.03,0.147 95.822,0.147 C94.613,0.147 94.041,0.81 94.041,2.188 L94.041,2.591 L92.936,2.591 L92.936,3.202 L94.041,3.202 L94.041,9 L94.808,9 L94.808,3.202 L96.342,3.202 L96.342,2.591 Z M100.671,2.461 C100.489,2.422 100.398,2.409 100.216,2.409 C99.241,2.409 98.669,2.89 98.266,4.073 L98.266,2.591 L97.577,2.591 L97.577,9 L98.344,9 L98.344,5.503 C98.344,4.918 98.539,4.281 98.838,3.813 C99.176,3.306 99.644,3.046 100.216,3.046 C100.359,3.046 100.463,3.059 100.671,3.085 L100.671,2.461 Z M104.077,2.409 C105.728,2.409 106.846,3.761 106.846,5.789 C106.846,7.804 105.728,9.182 104.116,9.182 C102.4,9.182 101.295,7.843 101.295,5.789 C101.295,3.774 102.413,2.409 104.077,2.409 Z M104.077,3.046 C102.855,3.046 102.114,4.086 102.114,5.789 C102.114,7.492 102.855,8.545 104.038,8.545 C105.299,8.545 106.027,7.518 106.027,5.789 C106.027,4.086 105.286,3.046 104.077,3.046 Z M112.813,9 L112.813,5.451 C112.813,4.06 113.554,3.046 114.568,3.046 C115.374,3.046 115.725,3.631 115.725,4.931 L115.725,9 L116.492,9 L116.492,4.944 C116.492,4.19 116.401,3.683 116.193,3.293 C115.881,2.734 115.322,2.409 114.659,2.409 C113.775,2.409 113.177,2.864 112.722,3.891 C112.501,2.942 111.877,2.409 110.98,2.409 C110.109,2.409 109.459,2.877 109.056,3.8 L109.056,2.591 L108.367,2.591 L108.367,9 L109.134,9 L109.134,5.477 C109.134,4.06 109.862,3.046 110.889,3.046 C111.695,3.046 112.046,3.631 112.046,4.931 L112.046,9 L112.813,9 Z" id="Tagline"></path>
                    <g id="Group-10" transform="translate(0.000000, 15.000000)">
                        <path d="M0,8.49953345 C0,3.81261321 3.81282248,0 8.5,0 C13.1881107,0 17,3.81261321 17,8.49953345 C17,13.1873868 13.1881107,17 8.5,17 C3.81282248,17 0,13.1873868 0,8.49953345 Z M8.61600001,4.54109589 C6.36989322,4.54109589 4.54109589,6.36989322 4.54109589,8.61600001 C4.54109589,10.8647369 6.36989322,12.6917808 8.61600001,12.6917808 C10.8647369,12.6917808 12.6917808,10.8647369 12.6917808,8.61600001 C12.6917808,6.36989322 10.8647369,4.54109589 8.61600001,4.54109589 L8.61600001,4.54109589 Z" id="Donut"></path>
                        <path d="M55,16.6730769 L59.4880597,16.6730769 L59.4880597,12.4464286 L61.130597,10.6016484 L65.2022388,16.6730769 L70.5925373,16.6730769 L64.2537313,7.35576923 L70.3843284,0.326923077 L65.0634328,0.326923077 L59.4880597,6.95879121 L59.4880597,0.326923077 L55,0.326923077 L55,16.6730769 Z M71.4253731,16.6730769 L75.9134328,16.6730769 L75.9134328,12.0027473 L78.1343284,12.0027473 C82.1597015,12.0027473 85.0977612,9.97115385 85.0977612,6.11813187 C85.0977612,2.45192308 82.4604478,0.326923077 78.3656716,0.326923077 L71.4253731,0.326923077 L71.4253731,16.6730769 Z M75.9365672,8.4532967 L75.9365672,4.13324176 L78.1351261,4.13324176 C79.8263253,4.13324176 80.8410448,4.88049451 80.8410448,6.28159341 L80.8410448,6.3282967 C80.8410448,7.61263736 79.8263253,8.4532967 78.1592861,8.4532967 L75.9365672,8.4532967 Z M94.3283582,17 C97.9141791,17 99.9731343,15.4354396 101.5,13.3104396 L98.1223881,10.8818681 C97.1507463,12.0728022 96.1559701,12.8667582 94.4671642,12.8667582 C92.2,12.8667582 90.6037313,10.9519231 90.6037313,8.5 L90.6037313,8.4532967 C90.6037313,6.07142857 92.2,4.13324176 94.4671642,4.13324176 C96.0171642,4.13324176 97.0813433,4.88049451 98.0067164,6.04807692 L101.384328,3.40934066 C99.95,1.4010989 97.8216418,0 94.5134328,0 C89.6089552,0 85.9768657,3.73626374 85.9768657,8.5 L85.9768657,8.5467033 C85.9768657,13.4271978 89.7014925,17 94.3283582,17 L94.3283582,17 Z M109.828358,17 C113.414179,17 115.473134,15.4354396 117,13.3104396 L113.622388,10.8818681 C112.650746,12.0728022 111.65597,12.8667582 109.967164,12.8667582 C107.7,12.8667582 106.103731,10.9519231 106.103731,8.5 L106.103731,8.4532967 C106.103731,6.07142857 107.7,4.13324176 109.967164,4.13324176 C111.517164,4.13324176 112.581343,4.88049451 113.506716,6.04807692 L116.884328,3.40934066 C115.45,1.4010989 113.321642,0 110.013433,0 C105.108955,0 101.476866,3.73626374 101.476866,8.5 L101.476866,8.5467033 C101.476866,13.4271978 105.201493,17 109.828358,17 L109.828358,17 Z" id="KPCC"></path>
                        <path d="M28.749592,11.5119215 C28.749592,9.82889201 27.9893027,8.28050491 25.7978806,7.56241234 C27.6762424,6.86676017 28.2800015,5.34081346 28.2800015,4.06171108 C28.2800015,1.61570827 26.2898325,0.0224403927 23.874796,0.0224403927 C21.437398,0.0224403927 19.4695904,1.61570827 19.4695904,4.06171108 C19.4695904,5.36325386 20.1404339,6.93408135 21.9069884,7.56241234 C19.7602893,8.28050491 19,9.8513324 19,11.5119215 C19,14.2720898 21.1019763,16 23.874796,16 C26.6028928,16 28.749592,14.2720898 28.749592,11.5119215 L28.749592,11.5119215 Z M27.2960978,4.08415147 C27.2960978,6.12622721 25.7755192,7.20336606 23.874796,7.20336606 C21.9740728,7.20336606 20.4311328,6.12622721 20.4311328,4.08415147 C20.4311328,2.17671809 22.08588,0.920056101 23.874796,0.920056101 C25.6637119,0.920056101 27.2960978,2.17671809 27.2960978,4.08415147 L27.2960978,4.08415147 Z M27.7433268,11.5119215 C27.7433268,13.6661992 25.9320493,15.0575035 23.874796,15.0575035 C21.7951812,15.0575035 20.0062652,13.6661992 20.0062652,11.5119215 C20.0062652,9.20056101 21.7057354,8.0112202 23.874796,8.0112202 C26.0214951,8.0112202 27.7433268,9.2230014 27.7433268,11.5119215 L27.7433268,11.5119215 Z M39.3785603,5.43057504 C39.3785603,2.49088359 37.6343672,0.0224403927 34.5261257,0.0224403927 C31.8203904,0.0224403927 29.763137,2.17671809 29.763137,4.82468443 C29.763137,7.49509116 31.753306,9.55960729 34.4814028,9.55960729 C35.6889211,9.55960729 37.2094997,9.20056101 38.2828493,7.29312763 C37.5449214,11.3772791 35.1522463,13.9354839 32.6701254,15.8429173 L33.9223666,15.8429173 C37.4331142,13.3071529 39.3785603,9.2230014 39.3785603,5.43057504 L39.3785603,5.43057504 Z M38.3275722,4.77980365 C38.3275722,6.91164095 36.7399092,8.63955119 34.5037643,8.63955119 C32.3570651,8.63955119 30.7023179,6.84431978 30.7023179,4.80224404 C30.7023179,2.7601683 32.3347037,0.942496494 34.5037643,0.942496494 C36.628102,0.942496494 38.3275722,2.71528752 38.3275722,4.77980365 L38.3275722,4.77980365 Z M39.0424572,14.1374474 C38.5505053,14.1374474 38.1256378,14.5413745 38.1256378,15.0575035 C38.1256378,15.5736325 38.5505053,15.9775596 39.0424572,15.9775596 C39.579132,15.9775596 39.9816381,15.5736325 39.9816381,15.0575035 C39.9816381,14.5413745 39.579132,14.1374474 39.0424572,14.1374474 Z M51,11.5343619 C51,9.58204769 49.904289,8.23562412 48.0930116,7.65217391 C49.7030359,7.0911641 50.5974939,5.8569425 50.5974939,4.10659187 C50.5974939,1.61570827 48.562602,0 46.1475655,0 C44.2915652,0 42.6815408,0.920056101 41.8988901,2.62552595 L42.7709866,2.98457223 C43.3523843,1.68302945 44.6717098,0.897615708 46.1028426,0.897615708 C47.8917585,0.897615708 49.6359516,2.24403927 49.6359516,4.10659187 C49.6359516,6.30575035 48.0706501,7.22580645 46.0804811,7.29312763 L46.0804811,8.03366059 C48.2719032,8.10098177 50.0160962,9.13323983 50.0160962,11.5343619 C50.0160962,13.6886396 48.2942646,15.0575035 46.2370113,15.0575035 C44.6717098,15.0575035 43.2629385,14.3169705 42.6591793,12.8359046 L41.7647214,13.1725105 C42.5250106,15.1472651 44.2021194,16 46.2370113,16 C48.8980237,16 51,14.3169705 51,11.5343619 L51,11.5343619 Z" id="89.3"></path>
                        <path d="M29.070518,11.4117118 C29.070518,9.47561859 28.0795144,8.02884396 26.002239,7.35790093 L26.0105055,7.7890534 C27.7452975,7.15577094 28.6077007,5.77109888 28.6077007,4.17408673 C28.6077007,1.74217753 26.6259528,0.0218000756 24.035259,0.0218000756 C21.4302767,0.0218000756 19.4628174,1.73576641 19.4628174,4.17408673 C19.4628174,5.76126371 20.3634487,7.20972982 22.0187397,7.79005705 L22.0228567,7.3583397 C19.9889616,8.02895732 19,9.49632294 19,11.4117118 C19,14.1552809 21.1005713,16 24.035259,16 C26.9415012,16 29.070518,14.142209 29.070518,11.4117118 L29.070518,11.4117118 Z M28.6089699,11.4117118 C28.6089699,13.8764366 26.6985786,15.5434539 24.035259,15.5434539 C21.3440544,15.5434539 19.4615481,13.8902391 19.4615481,11.4117118 C19.4615481,9.6864881 20.3301528,8.3977013 22.1688111,7.79145735 L22.8055218,7.58152055 L22.1729281,7.35974 C20.7139373,6.8482335 19.9243655,5.57838199 19.9243655,4.17408673 C19.9243655,2.0017293 21.6730547,0.478346162 24.035259,0.478346162 C26.3834788,0.478346162 28.1461526,2.00854292 28.1461526,4.17408673 C28.1461526,5.58927633 27.3936476,6.79749617 25.850707,7.36074365 L25.2279489,7.5880803 L25.8589736,7.79189613 C27.7404722,8.39960483 28.6089699,9.66753207 28.6089699,11.4117118 L28.6089699,11.4117118 Z M27.17644,4.19588681 C27.17644,5.94041352 25.9130811,6.99782427 24.035259,6.99782427 C22.1517119,6.99782427 20.8720391,5.936365 20.8720391,4.19588681 C20.8720391,2.56349679 22.2914712,1.35034919 24.035259,1.35034919 C25.7739182,1.35034919 27.17644,2.55965201 27.17644,4.19588681 L27.17644,4.19588681 Z M27.6379881,4.19588681 C27.6379881,2.29250313 26.0158077,0.8938031 24.035259,0.8938031 C22.0503298,0.8938031 20.410491,2.29532597 20.410491,4.19588681 C20.410491,6.20805212 21.9130258,7.45437036 24.035259,7.45437036 C26.1524924,7.45437036 27.6379881,6.21103467 27.6379881,4.19588681 L27.6379881,4.19588681 Z M27.6172184,11.4117118 C27.6172184,13.2816584 26.0459496,14.6278507 24.035259,14.6278507 C22.010611,14.6278507 20.4532996,13.2883428 20.4532996,11.4117118 C20.4532996,9.41971569 21.8751931,8.23917308 24.035259,8.23917308 C26.1716887,8.23917308 27.6172184,9.4402587 27.6172184,11.4117118 L27.6172184,11.4117118 Z M28.0787665,11.4117118 C28.0787665,9.16877435 26.4105115,7.78262699 24.035259,7.78262699 C21.6364316,7.78262699 19.9917515,9.14814061 19.9917515,11.4117118 C19.9917515,13.555773 21.768929,15.0843968 24.035259,15.0843968 C26.2872966,15.0843968 28.0787665,13.5495461 28.0787665,11.4117118 L28.0787665,11.4117118 Z M39.5461807,5.50389134 C39.5461807,2.34253594 37.5743349,0.0218000756 34.5329606,0.0218000756 C31.764966,0.0218000756 29.6078962,2.19047128 29.6078962,4.9152893 C29.6078962,7.65806345 31.6951853,9.7433783 34.4888828,9.7433783 C36.1474769,9.7433783 37.4843328,9.09330676 38.4364468,7.42554396 L38.0084279,7.2725715 C37.3832457,10.6831789 35.5743297,13.1572275 32.5634239,15.4378887 L32.0227919,15.8473995 L32.7037301,15.8473995 L33.9379097,15.8473995 L34.0123238,15.8473995 L34.0727207,15.8044002 C37.4839033,13.3758258 39.5461807,9.39457747 39.5461807,5.50389134 L39.5461807,5.50389134 Z M39.0846326,5.50389134 C39.0846326,9.24771025 37.093783,13.0910665 33.8030988,15.4338526 L33.9379097,15.3908534 L32.7037301,15.3908534 L32.8440363,15.8003642 C35.9385034,13.4564081 37.8142272,10.8909867 38.4625711,7.35402373 L38.7063,6.02438959 L38.0345522,7.20105127 C37.1711922,8.71334878 35.9918379,9.28683221 34.4888828,9.28683221 C31.951125,9.28683221 30.0694443,7.40693131 30.0694443,4.9152893 C30.0694443,2.44096797 32.021567,0.478346162 34.5329606,0.478346162 C37.2999411,0.478346162 39.0846326,2.57881343 39.0846326,5.50389134 L39.0846326,5.50389134 Z M38.0488033,4.87168915 C38.0488033,6.86107297 36.5436016,8.39302911 34.5109217,8.39302911 C32.5656533,8.39302911 30.995079,6.79490672 30.995079,4.89348922 C30.995079,2.9792851 32.5556039,1.37214926 34.5109217,1.37214926 C36.4539265,1.37214926 38.0488033,2.96890261 38.0488033,4.87168915 L38.0488033,4.87168915 Z M38.5103514,4.87168915 C38.5103514,2.7179847 36.7100881,0.915603176 34.5109217,0.915603176 C32.2964407,0.915603176 30.5335309,2.73116893 30.5335309,4.89348922 C30.5335309,7.04420546 32.3077801,8.8495752 34.5109217,8.8495752 C36.8014994,8.8495752 38.5103514,7.11034892 38.5103514,4.87168915 L38.5103514,4.87168915 Z M38.9841513,13.7340476 C38.3650446,13.7340476 37.8497815,14.2352319 37.8497815,14.8561238 C37.8497815,15.4770156 38.3650446,15.9781999 38.9841513,15.9781999 C39.6363164,15.9781999 40.1405601,15.487734 40.1405601,14.8561238 C40.1405601,14.2245136 39.6363164,13.7340476 38.9841513,13.7340476 L38.9841513,13.7340476 Z M38.9841513,14.1905937 C39.3831307,14.1905937 39.679012,14.4783905 39.679012,14.8561238 C39.679012,15.2338571 39.3831307,15.5216538 38.9841513,15.5216538 C38.6182303,15.5216538 38.3113296,15.2231387 38.3113296,14.8561238 C38.3113296,14.4891089 38.6182303,14.1905937 38.9841513,14.1905937 L38.9841513,14.1905937 Z M51,11.4335119 C51,9.47655317 49.8956932,8.0546819 47.9746973,7.44474847 L47.9798627,7.87774236 C49.6703764,7.29711985 50.6032994,6.0039682 50.6032994,4.21768688 C50.6032994,1.75219449 48.5887753,0 45.9867799,0 C44.0255682,0 42.3828711,0.979898152 41.5897706,2.68339525 L41.48907,2.89968968 L41.711793,2.99007295 L42.571311,3.33887416 L42.7780695,3.42277891 L42.8694862,3.22105954 C43.3954997,2.06036151 44.597724,1.32854911 45.9427021,1.32854911 C47.6763032,1.32854911 49.1940777,2.61994363 49.1940777,4.21768688 C49.1940777,6.05352033 47.9760062,7.01636453 45.9128887,7.08515415 L45.6898891,7.09258952 L45.6898891,7.31329762 L45.6898891,8.03270011 L45.6898891,8.25409214 L45.9136019,8.26086627 C48.1908121,8.3298213 49.5687393,9.41377713 49.5687393,11.4335119 C49.5687393,13.3148225 48.0708317,14.6278507 46.0749356,14.6278507 C44.5413383,14.6278507 43.2942228,13.8976481 42.7623003,12.6114846 L42.6774661,12.4063596 L42.4676779,12.4841776 L41.586121,12.8111787 L41.3678852,12.8921302 L41.4518856,13.1071869 C42.2006378,15.0241313 43.8549314,16 46.0749356,16 C48.9293746,16 51,14.1719782 51,11.4335119 L51,11.4335119 Z M50.5384519,11.4335119 C50.5384519,13.907536 48.6854253,15.5434539 46.0749356,15.5434539 C44.0352463,15.5434539 42.5578779,14.6719535 41.8824168,12.942648 L41.7481814,13.2386561 L42.6297383,12.911655 L42.3351159,12.784348 C42.9422405,14.2523467 44.3633017,15.0843968 46.0749356,15.0843968 C48.3141519,15.0843968 50.0302874,13.5800755 50.0302874,11.4335119 C50.0302874,9.13751834 48.4321983,7.88037064 45.9277243,7.80453395 L46.1514372,8.03270011 L46.1514372,7.31329762 L45.9284376,7.54144109 C48.2183871,7.46508831 49.6556258,6.32899987 49.6556258,4.21768688 C49.6556258,2.35125032 47.9170681,0.872003025 45.9427021,0.872003025 C44.4198655,0.872003025 43.0504886,1.70556382 42.4483192,3.03430666 L42.7464945,2.91649204 L41.8869765,2.56769083 L42.0089989,2.87436854 C42.7246191,1.33729091 44.201096,0.456546086 45.9867799,0.456546086 C48.3461348,0.456546086 50.1417513,2.01833895 50.1417513,4.21768688 C50.1417513,5.80926991 49.3335689,6.92951506 47.8284695,7.4464553 L47.1758605,7.67059989 L47.8336349,7.87944919 C49.5679396,8.43010646 50.5384519,9.67970806 50.5384519,11.4335119 L50.5384519,11.4335119 Z" id="89.3" fill-rule="nonzero"></path>
                    </g>
                </g>
            </g>
        </g>
    </g>
</svg>

