<?xml version="1.0" encoding="UTF-8"?>
<svg width="260px" height="31px" viewBox="0 0 260 31" version="1.1" xmlns="http://www.w3.org/2000/svg" xmlns:xlink="http://www.w3.org/1999/xlink">
    <!-- Generator: Sketch 51.3 (57544) - http://www.bohemiancoding.com/sketch -->
    <title>kpccLaist (3)</title>
    <desc>Created with Sketch.</desc>
    <defs>
        <polygon id="path-1" points="2.729 4.55316 1.7 4.55316 1.7 3.06621 1.2695 3.06621 1.2695 4.55316 0.2404 4.55316 0.2404 0.88635 1.2695 0.88635 1.2695 2.37594 1.6991 2.37594 1.6991 0.88635 2.7282 0.88635 2.7282 4.55316"></polygon>
        <path d="M2.7217,4.02117 L2.0608,4.55316 L0.9131,4.55316 L0.2331,4.02117 L0.2331,1.41922 L0.9131,0.88723 L2.0175,0.88723 L2.7209,1.41922 L2.7209,4.02117 L2.7217,4.02117 Z M1.2631,1.5775 L1.2631,3.86289 L1.6927,3.86289 L1.6927,1.5775 L1.2631,1.5775 Z" id="path-3"></path>
        <polygon id="path-5" points="1.2679 3.86289 2.1965 3.86289 2.1965 4.55316 0.2397 4.55316 0.2397 0.88635 1.2679 0.88635"></polygon>
        <polygon id="path-7" points="1.5122 3.86289 2.4417 3.86289 2.4417 4.55316 0.4832 4.55316 0.4832 0.88635 1.5122 0.88635"></polygon>
        <polygon id="path-9" points="2.0701 3.01961 2.0701 4.55316 1.0411 4.55316 1.0411 3.01961 0.1558 0.88635 1.1849 0.88635 1.553 2.2115 1.566 2.2115 1.9341 0.88635 2.9632 0.88635"></polygon>
        <polygon id="path-11" points="3.6241 4.55316 2.8827 4.55316 2.6644 2.98356 2.5648 2.98356 2.3456 4.55316 1.6042 4.55316 0.8419 0.88635 1.8155 0.88635 2.1334 2.73295 2.1464 2.73295 2.4019 0.88635 2.8255 0.88635 3.081 2.73295 3.0931 2.73295 3.4128 0.88635 4.3846 0.88635"></polygon>
        <path d="M3.0413,4.02117 L2.3786,4.55316 L1.2327,4.55316 L0.5527,4.02117 L0.5527,1.41922 L1.2327,0.88723 L2.3353,0.88723 L3.0404,1.41922 L3.0404,4.02117 L3.0413,4.02117 Z M1.5809,1.5775 L1.5809,3.86289 L2.0114,3.86289 L2.0114,1.5775 L1.5809,1.5775 Z" id="path-13"></path>
        <path d="M3.034,4.02117 L2.3722,4.55316 L1.2254,4.55316 L0.5454,4.02117 L0.5454,1.41922 L1.2254,0.88723 L2.3289,0.88723 L3.0331,1.41922 L3.0331,4.02117 L3.034,4.02117 Z M1.5753,1.5775 L1.5753,3.86289 L2.005,3.86289 L2.005,1.5775 L1.5753,1.5775 Z" id="path-15"></path>
        <path d="M3.0449,4.02117 L2.3788,4.55316 L0.5581,4.55316 L0.5581,0.88635 L2.3407,0.88635 L3.044,1.41834 L3.044,4.02117 L3.0449,4.02117 Z M1.5871,1.5775 L1.5871,3.86289 L2.0159,3.86289 L2.0159,1.5775 L1.5871,1.5775 Z" id="path-17"></path>
        <polygon id="path-19" points="0.5414 16.7200903 0.5414 1.70642 3.4443 0.48533 3.4443 16.7200903"></polygon>
        <path d="M9.3104,0.29433 L9.3104,7.966977 C9.3104,8.935505 9.537,9.139406 10.0128,9.139406 C10.1884,9.139406 10.3639,9.08931 10.5395,8.98648 L10.5395,10.4401519 C9.9116,10.7969781 9.2602,11 8.5821,11 C7.8295,11 7.2275,10.6941489 6.8503,10.1843971 C6.2232,10.6941489 5.4456,11 4.5667,11 C1.9078,11 0.5523,9.08931 0.5523,5.647606 C0.5523,2.205902 1.9069,0.29345 4.5667,0.29345 C5.5208,0.29345 6.3486,0.65028 7.0008,1.261982 L9.3104,0.29433 Z M6.4005,3.837108 C6.0744,3.352844 5.5477,3.073359 4.9707,3.073359 C3.841,3.073359 3.4647,3.990033 3.4647,5.648485 C3.4647,7.305178 3.8419,8.22361 4.9707,8.22361 C5.5477,8.22361 6.0744,7.942368 6.4005,7.458104 L6.4005,3.837108 Z" id="path-21"></path>
        <path d="M0.5439,2.36709 L0.5439,0.43002 L2.0644,0.43002 L2.0644,2.36709 L0.5439,2.36709 Z M2.0644,5.0166 L2.0644,15.7200903 L0.5439,15.7200903 L0.5439,5.73081 L2.0644,5.0166 Z" id="path-23"></path>
        <path d="M0.2689,8.044076 C0.9973,8.756908 1.9777,9.623557 3.3583,9.623557 C4.2876,9.623557 5.0922,9.266701 5.0922,8.094176 C5.0922,7.024488 4.1126,6.615774 3.2587,6.310777 C1.9024,5.800983 0.2438,5.112762 0.2438,3.047219 C0.2438,1.313041 1.6001,0.29345 3.3843,0.29345 C4.414,0.29345 5.2429,0.54747 5.8717,0.90433 L5.8717,2.511056 C5.1935,2.001263 4.3647,1.669897 3.3843,1.669897 C2.5052,1.669897 1.6512,2.051363 1.6512,3.04634 C1.6512,3.939358 2.4289,4.319945 3.2587,4.627579 C4.615,5.137373 6.4988,5.927553 6.4988,8.093297 C6.4988,9.878454 5.3434,11 3.3583,11 C1.801,11 0.8206,10.2871678 0.2689,9.827475 L0.2689,8.044076 Z" id="path-25"></path>
        <path d="M3.6557,5.879745 L3.6557,10.715395 C3.6557,12.955129 4.0329,13.46396 5.4158,13.46396 C5.8182,13.46396 6.4468,13.260427 7,13.006889 L7,14.4561803 C6.3211,14.7369146 5.5667,14.9650113 5.0638,14.9650113 C2.5744,14.9650113 2.147,13.31131 2.147,10.715395 L2.147,5.879745 L0.5377,5.879745 L0.5377,4.53134 L2.147,4.53134 L2.147,1.68189 L3.6557,0.96953 L3.6557,4.53222 L7,4.53222 L7,5.880623 L3.6557,5.880623 L3.6557,5.879745 Z" id="path-27"></path>
        <polygon id="path-29" points="15.8667 7.02266 15.8667 5.32329 14.185 5.32329 14.185 5.23906 13.1355 4.26085 6.6709 4.26085 6.6709 0.32167 6.1773 0.32167 6.1773 4.26085 3.5092 4.26085 2.4735 5.26626 2.4735 5.32329 0.7649 5.32329 0.7649 7.02266 2.4735 7.02266 2.4735 8.56675 0.7649 8.56675 0.7649 10.4565 2.4735 10.4565 2.4735 12.002344 0.7649 12.002344 0.7649 13.830684 2.4735 13.830684 2.4735 15.379159 0.7649 15.379159 0.7649 17.212763 2.4735 17.212763 2.4735 18.758605 0.7649 18.758605 0.7649 20.6501129 15.8667 20.6501129 15.8667 18.758605 14.185 18.758605 14.185 17.212763 15.8667 17.212763 15.8667 15.379159 14.185 15.379159 14.185 13.830684 15.8667 13.830684 15.8667 12.002344 14.185 12.002344 14.185 10.4565 15.8667 10.4565 15.8667 8.56675 14.185 8.56675 14.185 7.02266"></polygon>
        <path d="M12.198,11.93212 C12.2717,12.1077 22.3927,25.36629 20.2734,30.6151242 L17.1983,30.6151242 C18.2242,25.570836 15.1639,17.461 10.0258,12.17003 C10.0258,12.17003 6.7723,11.79868 5.652,14.19441 C5.405,14.72641 5.911,12.0322 7.086,10.78825 L0.1413,12.70465 C2.1619,9.41876 4.6148,7.65685 6.5782,8.05804 L2.181,3.93465 C4.7335,3.5159 7.4759,3.80033 8.9714,6.00644 C9.5311,3.95747 9.6585,0.72074 12.5853,0 L11.7596,5.91075 C14.0574,4.84413 16.2911,4.05843 18.0145,5.909 L12.7889,8.66378 C15.7765,8.91836 20.2621,11.98567 18.9728,11.68193 C16.4982,11.09638 12.1252,11.75567 12.198,11.93212 Z" id="path-31"></path>
        <polygon id="path-33" points="16.9563 16.963782 16.9563 16.238392 12.4215 16.238392 12.4215 7.1596 11.3391 7.1596 11.3391 5.15995 10.9884 5.15995 10.9884 3.68985 10.4654 3.68985 10.4654 2.51307 10.3095 2.51307 8.8245 0.51693 7.3282 2.51307 7.1161 2.51307 7.1161 3.68985 6.6623 3.68985 6.6623 5.15995 6.2441 5.15995 6.2441 7.1596 5.0924 7.1596 5.0924 16.238392 0.6806 16.238392 0.6806 16.963782 0 16.963782 0 21.7200903 17.5209 21.7200903 17.5209 16.963782"></polygon>
        <path d="M27.0888,8.702118 L25.0803,4.819523 C25.0803,4.819523 22.4525,5.243716 21.5319,5.96502 C20.1115,7.076336 21.4938,5.595165 21.4938,5.595165 L21.3344,5.555726 L21.7675,1.91853 C21.7675,1.91853 19.9945,1.18233 19.8369,1.30415 C19.6775,1.42948 19.5606,1.79671 19.5606,1.79671 C19.5606,1.79671 16.6444,0.7336 16.369,0.44613 C16.0927,0.16041 11.5595,2.204249 11.5595,2.204249 L11.5595,3.308553 L6.4357,2.040356 L5.728,3.144661 C5.728,3.144661 3.7178,2.778312 3.7551,2.898383 C3.7975,3.02196 5.0949,7.477742 5.0949,7.477742 C5.0949,7.477742 2.8898,7.969421 2.6135,7.682827 C2.3372,7.396234 2.2576,9.482143 2.2576,9.482143 L1.0762,9.521582 L0.2491,10.709148 L0.592,11.6074915 C0.592,11.6074915 22.4413,11.7293156 23.0614,11.5610406 C23.8478,11.3506968 26.1023,10.994865 26.3388,11.0334283 C26.5761,11.0728678 26.221,10.133332 26.221,10.133332 C26.221,10.133332 28.3117,10.52685 29.2974,10.625011 C29.5988,10.655686 29.727,10.788027 29.727,10.788027 L29.727,8.866011 L27.0888,8.702118 Z M3.2501,10.456736 C3.0726,10.246392 2.3199,9.67934 2.3199,9.67934 C2.3199,9.67934 2.2896,9.410276 2.4672,9.559269 C2.6447,9.708263 3.4268,10.665327 3.2501,10.456736 Z M11.964,3.461929 L11.9501,4.234066 C11.9822,5.343629 12.1407,7.04829 12.1407,7.04829 L11.9051,7.137686 L11.951,4.234942 C11.9424,3.901898 11.9432,3.624945 11.964,3.461929 Z M6.867,7.691592 C6.867,7.691592 6.3863,3.230551 6.3075,2.347107 C6.3075,2.347107 6.9614,6.761697 7.0974,7.674063 C7.119,7.820427 6.867,7.691592 6.867,7.691592 Z M16.2703,5.870365 C16.2746,5.464577 16.3222,0.89048 16.2885,0.77479 C16.2538,0.65121 16.5137,0.74061 16.5137,0.74061 L16.4444,5.831802 L16.4288,5.838814 C17.2732,5.667909 18.1333,5.55485 18.9362,5.55485 C19.1423,5.55485 19.0834,5.703843 19.0834,5.703843 C19.0834,5.703843 14.5346,6.242849 11.1965998,7.528575 C11.1958,7.527699 13.633,6.4269 16.2703,5.870365 Z M21.8004,7.815169 L14.0912,8.154348 C15.5982,7.676692 21.8212,7.646017 21.8212,7.646017 L21.8004,7.815169 Z" id="path-35"></path>
        <path d="M9.9451,11.879039 C9.9451,14.587135 7.86753,16.2824482 5.22728,16.2824482 C2.54375,16.2824482 0.50946,14.587135 0.50946,11.879039 C0.50946,10.249777 1.24527,8.708584 3.32284,8.004038 C1.61317,7.387561 0.96393,5.84637 0.96393,4.56938 C0.96393,2.16952 2.86837,0.60631 5.22728,0.60631 C7.56455,0.60631 9.49063,2.16952 9.49063,4.56938 C9.49063,5.82435 8.90632,7.32151 7.08844,8.004038 C9.2093,8.708584 9.9451,10.22776 9.9451,11.879039 Z M8.53841,4.5914 C8.53841,2.71995 6.95859,1.48699 5.22728,1.48699 C3.49597,1.48699 1.89451,2.71995 1.89451,4.5914 C1.89451,6.59495 3.38776,7.651765 5.22728,7.651765 C7.0668,7.651765 8.53841,6.59495 8.53841,4.5914 Z M8.97124,11.879039 C8.97124,9.6333 7.30486,8.444379 5.22728,8.444379 C3.12807,8.444379 1.48332,9.611283 1.48332,11.879039 C1.48332,13.992675 3.21463,15.357732 5.22728,15.357732 C7.21829,15.357732 8.97124,13.992675 8.97124,11.879039 Z M20.23179,5.91242 C20.23179,9.6333 18.34899,13.640402 14.95129,16.1283288 L13.73937,16.1283288 C16.14157,14.25688 18.45719,11.746936 19.17136,7.739834 C18.13257,9.611283 16.66096,9.963555 15.49232,9.963555 C12.85207,9.963555 10.92599,7.937987 10.92599,5.31796 C10.92599,2.71995 12.917,0.60631 15.53561,0.60631 C18.54376,0.60631 20.23179,3.02819 20.23179,5.91242 Z M19.21464,5.27392 C19.21464,3.24836 17.5699,1.50901 15.51396,1.50901 C13.41475,1.50901 11.83493,3.29239 11.83493,5.29594 C11.83493,7.299493 13.43639,9.060856 15.51396,9.060856 C17.6781,9.060856 19.21464,7.365544 19.21464,5.27392 Z M19.90649,14.455033 C20.42588,14.455033 20.81542,14.85134 20.81542,15.357732 C20.81542,15.864124 20.42588,16.2604311 19.90649,16.2604311 C19.43038,16.2604311 19.01919,15.864124 19.01919,15.357732 C19.01919,14.85134 19.43038,14.455033 19.90649,14.455033 Z M31.47908,11.901056 C31.47908,14.63117 29.44479,16.2824482 26.86946,16.2824482 C24.90009,16.2824482 23.27699,15.4458 22.54118,13.5083 L23.40684,13.178044 C23.99116,14.63117 25.35456,15.357732 26.86946,15.357732 C28.86047,15.357732 30.52685,14.014692 30.52685,11.901056 C30.52685,9.545232 28.83883,8.532447 26.71797,8.466396 L26.71797,7.739834 C28.64405,7.673782 30.15895,6.77108 30.15895,4.61341 C30.15895,2.786 28.47092,1.46497 26.73961,1.46497 C25.35456,1.46497 24.07772,2.23557 23.51493,3.51256 L22.67103,3.16029 C23.42848,1.48699 24.98666,0.58429 26.78289,0.58429 C29.12016,0.58429 31.08953,2.16952 31.08953,4.61341 C31.08953,6.33074 30.22387,7.54168 28.6657,8.092106 C30.41865,8.66455 31.47908,9.985572 31.47908,11.901056 Z" id="path-37"></path>
        <path d="M0.07119,16.5082699 L0.07119,0.34633 L4.46708,0.34633 L4.46708,6.90346 L9.92794,0.34633 L15.13956,0.34633 L9.13487,7.295963 L15.34349,16.5082699 L10.0639,16.5082699 L6.07588,10.505263 L4.46708,12.329253 L4.46708,16.5082699 L0.07119,16.5082699 Z M16.15922,16.5082699 L16.15922,0.34633 L22.95698,0.34633 C26.96766,0.34633 29.55081,2.44738 29.55081,6.07227 C29.55081,9.881873 26.67309,11.890572 22.73039,11.890572 L20.55511,11.890572 L20.55511,16.5082699 L16.15922,16.5082699 Z M20.57777,8.381122 L22.75486,8.381122 C24.38768,8.381122 25.38152,7.549936 25.38152,6.28007 L25.38152,6.23389 C25.38152,4.84858 24.38768,4.10975 22.73118,4.10975 L20.57777,4.10975 L20.57777,8.381122 Z M38.59183,16.8315088 C34.05999,16.8315088 30.41186,13.29897 30.41186,8.473476 L30.41186,8.427299 C30.41186,3.71725 33.96935,0.02309 38.7731,0.02309 C42.01337,0.02309 44.09802,1.4084 45.50289,3.39401 L42.19464,6.00301 C41.28827,4.84858 40.24595,4.10975 38.72779,4.10975 C36.50718,4.10975 34.9437,6.0261 34.9437,8.381122 L34.9437,8.427299 C34.9437,10.85159 36.50718,12.744846 38.72779,12.744846 C40.38191,12.744846 41.35625,11.959838 42.30794,10.782325 L45.61618,13.183527 C44.12067,15.28458 42.10401,16.8315088 38.59183,16.8315088 Z M53.7735,16.8315088 C49.2417,16.8315088 45.59352,13.29897 45.59352,8.473476 L45.59352,8.427299 C45.59352,3.71725 49.151,0.02309 53.9548,0.02309 C57.195,0.02309 59.2797,1.4084 60.6845,3.39401 L57.3763,6.00301 C56.4699,4.84858 55.4276,4.10975 53.9094,4.10975 C51.6888,4.10975 50.1254,6.0261 50.1254,8.381122 L50.1254,8.427299 C50.1254,10.85159 51.6888,12.744846 53.9094,12.744846 C55.5636,12.744846 56.5379,11.959838 57.4896,10.782325 L60.7978,13.183527 C59.3023,15.28458 57.2857,16.8315088 53.7735,16.8315088 Z" id="path-39"></path>
        <path d="M0,8.426837 C0,3.78005 3.711504,0 8.274233,0 C12.83787,0 16.54847,3.78005 16.54847,8.426837 C16.54847,13.07455 12.83787,16.8545973 8.274233,16.8545973 C3.711504,16.8545973 0,13.07455 0,8.426837 Z M8.387125,4.50226 C6.200688,4.50226 4.420481,6.31539 4.420481,8.542279 C4.420481,10.771819 6.200688,12.583227 8.387125,12.583227 C10.57617,12.583227 12.35468,10.771819 12.35468,8.542279 C12.35468,6.31539 10.57617,4.50226 8.387125,4.50226 Z" id="path-41"></path>
        <path d="M9.73488,4.58727 C9.73488,6.02649 9.06051,7.295006 7.70475,8.005858 C9.38455,8.749099 10.18933,10.118471 10.18933,11.89658 C10.18933,14.654113 8.09881,16.5303135 5.2451,16.5303135 C2.36351,16.5303135 0.30086,14.667368 0.30086,11.89658 C0.30086,10.139565 1.10202,8.7559 2.74556,8.009431 C1.45212,7.322555 0.75532,6.01012 0.75532,4.58727 C0.75532,2.12482 2.68721,0.39386 5.2451,0.39386 C7.78894,0.39386 9.73488,2.13127 9.73488,4.58727 Z M9.73613,11.89658 C9.73613,10.13507 8.88331,8.854684 7.03582,8.240887 L6.41618,8.03502 L7.02778,7.805524 C8.54273,7.236681 9.28168,6.01646 9.28168,4.58727 C9.28168,2.40031 7.55089,0.85492 5.2451,0.85492 C2.9256,0.85492 1.20852,2.39339 1.20852,4.58727 C1.20852,6.00551 1.98384,7.287859 3.41642,7.804486 L4.03754,8.02845 L3.41234,8.240426 C1.607,8.852724 0.75407,10.154319 0.75407,11.89658 C0.75407,14.399603 2.60258,16.0692455 5.2451,16.0692455 C7.86031,16.0692455 9.73613,14.385771 9.73613,11.89658 Z M8.32949,4.60928 C8.32949,2.95682 6.95232,1.73556 5.2451,1.73556 C3.53278,1.73556 2.13906,2.96074 2.13906,4.60928 C2.13906,6.36699 3.39557,7.438975 5.2451,7.438975 C7.08896,7.438975 8.32949,6.37114 8.32949,4.60928 Z M8.7827,4.60928 C8.7827,6.64444 7.32406,7.900043 5.2451,7.900043 C3.16126,7.900043 1.68586,6.64133 1.68586,4.60928 C1.68586,2.68986 3.29609,1.2745 5.2451,1.2745 C7.1898,1.2745 8.7827,2.68709 8.7827,4.60928 Z M8.76231,11.89658 C8.76231,9.905573 7.34287,8.692618 5.2451,8.692618 C3.1241,8.692618 1.72789,9.884825 1.72789,11.89658 C1.72789,13.7918 3.257,15.144574 5.2451,15.144574 C7.21948,15.144574 8.76231,13.784999 8.76231,11.89658 Z M9.21551,11.89658 C9.21551,14.055646 7.4564,15.605642 5.2451,15.605642 C3.01975,15.605642 1.27469,14.061871 1.27469,11.89658 C1.27469,9.610605 2.88968,8.23155 5.2451,8.23155 C7.5774,8.23155 9.21551,9.631468 9.21551,11.89658 Z M13.61907,15.962624 C16.24573,13.916288 17.94083,11.715841 18.71683,8.834858 C17.85993,9.81163 16.78108,10.211722 15.50973,10.211722 C12.76659,10.211722 10.71698,8.105794 10.71698,5.33581 C10.71698,2.58404 12.83503,0.39386 15.55301,0.39386 C18.5394,0.39386 20.4756,2.73758 20.4756,5.93024 C20.4756,9.859466 18.45057,13.880095 15.10116,16.3327459 L15.04179,16.3762016 L13.08826,16.3762016 L13.61907,15.962624 Z M14.41037,15.915134 L14.89529,15.915134 C18.09129,13.545244 20.0224,9.688064 20.0224,5.93024 C20.0224,2.97618 18.26997,0.85492 15.55301,0.85492 C13.08701,0.85492 11.17018,2.83694 11.17018,5.33581 C11.17018,7.852091 13.0179,9.750654 15.50973,9.750654 C16.98559,9.750654 18.14352,9.171438 18.99136,7.644265 L19.65088,6.45586 L19.41159,7.798723 C18.81189,11.163828 17.1424,13.658206 14.41037,15.915134 Z M19.00529,5.29178 C19.00529,3.37016 17.43924,1.75758 15.53137,1.75758 C13.61137,1.75758 12.07908,3.38065 12.07908,5.3138 C12.07908,7.23403 13.62134,8.847998 15.53137,8.847998 C17.52728,8.847998 19.00529,7.300885 19.00529,5.29178 Z M19.4585,5.29178 C19.4585,7.552628 17.78051,9.309066 15.53137,9.309066 C13.36811,9.309066 11.62588,7.485773 11.62588,5.3138 C11.62588,3.13006 13.35689,1.29651 15.53137,1.29651 C17.69077,1.29651 19.4585,3.11669 19.4585,5.29178 Z M19.92371,14.241918 C20.56409,14.241918 21.05922,14.73722 21.05922,15.375108 C21.05922,16.0129952 20.56409,16.5082975 19.92371,16.5082975 C19.31585,16.5082975 18.80985,16.0021601 18.80985,15.375108 C18.80985,14.748055 19.31585,14.241918 19.92371,14.241918 Z M19.92371,14.702986 C19.56443,14.702986 19.26305,15.004409 19.26305,15.375108 C19.26305,15.745806 19.56443,16.0472295 19.92371,16.0472295 C20.31551,16.0472295 20.60601,15.756526 20.60601,15.375108 C20.60601,14.993689 20.31551,14.702986 19.92371,14.702986 Z M31.33291,4.6313 C31.33291,6.23005 30.61333,7.437591 29.29428,8.099915 C30.84447,8.799471 31.72244,10.140257 31.72244,11.918596 C31.72244,14.684197 29.68913,16.5303135 26.8864,16.5303135 C24.70649,16.5303135 23.08209,15.544781 22.34688,13.608871 L22.2644,13.391708 L23.55025,12.901132 L23.63364,13.108267 C24.15596,14.407095 25.38052,15.144574 26.8864,15.144574 C28.84617,15.144574 30.31705,13.818542 30.31705,11.918596 C30.31705,9.878831 28.96401,8.78414 26.7279,8.714519 L26.50832,8.707718 L26.50832,7.534646 L26.72722,7.527154 C28.75304,7.457648 29.94916,6.48537 29.94916,4.6313 C29.94916,3.01768 28.4588,1.71355 26.75656,1.71355 C25.43581,1.71355 24.25533,2.45264 23.7389,3.62479 L23.64905,3.82847 L22.38337,3.3002 L22.48228,3.08177 C23.261,1.36141 24.87406,0.37184 26.79984,0.37184 C29.35478,0.37184 31.33291,2.14142 31.33291,4.6313 Z M23.30348,13.48761 L22.85719,13.65786 C23.55558,15.261454 24.96754,16.0692455 26.8864,16.0692455 C29.44962,16.0692455 31.26923,14.417124 31.26923,11.918596 C31.26923,10.147403 30.31626,8.88546 28.61323,8.329297 L27.96741,8.118358 L28.60824,7.892089 C30.08603,7.370045 30.8797,6.2387 30.8797,4.6313 C30.8797,2.41022 29.11651,0.83291 26.79984,0.83291 C25.12944,0.83291 23.73459,1.64012 22.9987,3.05871 L23.42143,3.23519 C24.05388,2.01071 25.33735,1.25248 26.75656,1.25248 C28.69514,1.25248 30.40237,2.74634 30.40237,4.6313 C30.40237,6.69343 29.08229,7.83434 26.96152,7.976926 L26.96152,8.263825 C29.29405,8.407678 30.77025,9.669622 30.77025,11.918596 C30.77025,14.086423 29.08513,15.605642 26.8864,15.605642 C25.28467,15.605642 23.94216,14.842459 23.30348,13.48761 Z" id="path-43"></path>
        <polygon id="path-45" points="2.8913 2.82979 2.8913 0 4.1087 0 4.1087 2.82979 7 2.82979 7 4.170213 4.1087 4.170213 4.1087 7 2.8913 7 2.8913 4.170213 0 4.170213 0 2.82979"></polygon>
    </defs>
    <g id="Page-1" stroke="none" stroke-width="1" fill="none" fill-rule="evenodd">
        <g id="kpccLaist-(3)">
            <g id="Group-3" transform="translate(185.000000, 14.000000)">
                <mask id="mask-2" fill="white">
                    <use xlink:href="#path-1"></use>
                </mask>
                <g id="Clip-2"></g>
                <polygon id="Fill-1" fill="#FFFFFF" mask="url(#mask-2)" points="-4.7596 9.553163 7.72899 9.553163 7.72899 -4.113647 -4.7596 -4.113647"></polygon>
            </g>
            <g id="Group-6" transform="translate(188.000000, 14.000000)">
                <mask id="mask-4" fill="white">
                    <use xlink:href="#path-3"></use>
                </mask>
                <g id="Clip-5"></g>
                <polygon id="Fill-4" fill="#FFFFFF" mask="url(#mask-4)" points="-4.7669 9.553163 7.72169 9.553163 7.72169 -4.112767 -4.7669 -4.112767"></polygon>
            </g>
            <g id="Group-9" transform="translate(191.000000, 14.000000)">
                <mask id="mask-6" fill="white">
                    <use xlink:href="#path-5"></use>
                </mask>
                <g id="Clip-8"></g>
                <polygon id="Fill-7" fill="#FFFFFF" mask="url(#mask-6)" points="-4.7603 9.553163 7.19644 9.553163 7.19644 -4.113647 -4.7603 -4.113647"></polygon>
            </g>
            <g id="Group-12" transform="translate(193.000000, 14.000000)">
                <mask id="mask-8" fill="white">
                    <use xlink:href="#path-7"></use>
                </mask>
                <g id="Clip-11"></g>
                <polygon id="Fill-10" fill="#FFFFFF" mask="url(#mask-8)" points="-4.5168 9.553163 7.44168 9.553163 7.44168 -4.113647 -4.5168 -4.113647"></polygon>
            </g>
            <g id="Group-15" transform="translate(195.000000, 14.000000)">
                <mask id="mask-10" fill="white">
                    <use xlink:href="#path-9"></use>
                </mask>
                <g id="Clip-14"></g>
                <polygon id="Fill-13" fill="#FFFFFF" mask="url(#mask-10)" points="-4.8442 9.553163 7.96315 9.553163 7.96315 -4.113647 -4.8442 -4.113647"></polygon>
            </g>
            <g id="Group-18" transform="translate(197.000000, 14.000000)">
                <mask id="mask-12" fill="white">
                    <use xlink:href="#path-11"></use>
                </mask>
                <g id="Clip-17"></g>
                <polygon id="Fill-16" fill="#FFFFFF" mask="url(#mask-12)" points="-4.1581 9.553163 9.38465 9.553163 9.38465 -4.113647 -4.1581 -4.113647"></polygon>
            </g>
            <g id="Group-21" transform="translate(201.000000, 14.000000)">
                <mask id="mask-14" fill="white">
                    <use xlink:href="#path-13"></use>
                </mask>
                <g id="Clip-20"></g>
                <polygon id="Fill-19" fill="#FFFFFF" mask="url(#mask-14)" points="-4.4473 9.553163 8.04129 9.553163 8.04129 -4.112767 -4.4473 -4.112767"></polygon>
            </g>
            <g id="Group-24" transform="translate(204.000000, 14.000000)">
                <mask id="mask-16" fill="white">
                    <use xlink:href="#path-15"></use>
                </mask>
                <g id="Clip-23"></g>
                <polygon id="Fill-22" fill="#FFFFFF" mask="url(#mask-16)" points="-4.4546 9.553163 8.03399 9.553163 8.03399 -4.112767 -4.4546 -4.112767"></polygon>
            </g>
            <g id="Group-27" transform="translate(207.000000, 14.000000)">
                <mask id="mask-18" fill="white">
                    <use xlink:href="#path-17"></use>
                </mask>
                <g id="Clip-26"></g>
                <polygon id="Fill-25" fill="#FFFFFF" mask="url(#mask-18)" points="-4.4419 9.553163 8.04496 9.553163 8.04496 -4.113647 -4.4419 -4.113647"></polygon>
            </g>
            <g id="Group-30" transform="translate(223.000000, 14.000000)">
                <mask id="mask-20" fill="white">
                    <use xlink:href="#path-19"></use>
                </mask>
                <g id="Clip-29"></g>
                <polygon id="Fill-28" fill="#FFFFFF" mask="url(#mask-20)" points="-4.4586 21.72009 8.44426 21.72009 8.44426 -4.51467 -4.4586 -4.51467"></polygon>
            </g>
            <g id="Group-33" transform="translate(228.000000, 20.000000)">
                <mask id="mask-22" fill="white">
                    <use xlink:href="#path-21"></use>
                </mask>
                <g id="Clip-32"></g>
                <polygon id="Fill-31" fill="#FFFFFF" mask="url(#mask-22)" points="-4.4477 16 15.53954 16 15.53954 -4.70655 -4.4477 -4.70655"></polygon>
            </g>
            <g id="Group-36" transform="translate(240.000000, 15.000000)">
                <mask id="mask-24" fill="white">
                    <use xlink:href="#path-23"></use>
                </mask>
                <g id="Clip-35"></g>
                <polygon id="Fill-34" fill="#FFFFFF" mask="url(#mask-24)" points="-4.4561 20.72009 7.06445 20.72009 7.06445 -4.56998 -4.4561 -4.56998"></polygon>
            </g>
            <g id="Group-39" transform="translate(245.000000, 20.000000)">
                <mask id="mask-26" fill="white">
                    <use xlink:href="#path-25"></use>
                </mask>
                <g id="Clip-38"></g>
                <polygon id="Fill-37" fill="#FFFFFF" mask="url(#mask-26)" points="-4.7562 16 11.49878 16 11.49878 -4.70655 -4.7562 -4.70655"></polygon>
            </g>
            <g id="Group-42" transform="translate(253.000000, 16.000000)">
                <mask id="mask-28" fill="white">
                    <use xlink:href="#path-27"></use>
                </mask>
                <g id="Clip-41"></g>
                <polygon id="Fill-40" fill="#FFFFFF" mask="url(#mask-28)" points="-4.4623 19.965011 12.00003 19.965011 12.00003 -4.030479 -4.4623 -4.030479"></polygon>
            </g>
            <g id="Group-45" transform="translate(167.000000, 10.000000)">
                <mask id="mask-30" fill="white">
                    <use xlink:href="#path-29"></use>
                </mask>
                <g id="Clip-44"></g>
                <polygon id="Fill-43" fill="#FFFFFF" mask="url(#mask-30)" points="-4.2351 25.650113 20.86671 25.650113 20.86671 -4.678327 -4.2351 -4.678327"></polygon>
            </g>
            <g id="Group-48" transform="translate(198.000000, 0.000000)">
                <mask id="mask-32" fill="white">
                    <use xlink:href="#path-31"></use>
                </mask>
                <g id="Clip-47"></g>
                <polygon id="Fill-46" fill="#FFFFFF" mask="url(#mask-32)" points="-4.8587 35.615124 25.56502 35.615124 25.56502 -4.999996 -4.8587 -4.999996"></polygon>
            </g>
            <g id="Group-51" transform="translate(149.000000, 9.000000)">
                <mask id="mask-34" fill="white">
                    <use xlink:href="#path-33"></use>
                </mask>
                <g id="Clip-50"></g>
                <polygon id="Fill-49" fill="#FFFFFF" mask="url(#mask-34)" points="-5 26.72009 22.52086 26.72009 22.52086 -4.48307 -5 -4.48307"></polygon>
            </g>
            <g id="Group-54" transform="translate(184.000000, 19.000000)">
                <mask id="mask-36" fill="white">
                    <use xlink:href="#path-35"></use>
                </mask>
                <g id="Clip-53"></g>
                <polygon id="Fill-52" fill="#FFFFFF" mask="url(#mask-36)" points="-4.7509 16.650113 34.727 16.650113 34.727 -4.581267 -4.7509 -4.581267"></polygon>
            </g>
            <g id="Group-57" transform="translate(19.000000, 14.000000)">
                <mask id="mask-38" fill="white">
                    <use xlink:href="#path-37"></use>
                </mask>
                <g id="Clip-56"></g>
                <polygon id="Fill-55" fill="#FFFFFF" mask="url(#mask-38)" points="-4.49054 21.282448 36.47908 21.282448 36.47908 -4.415712 -4.49054 -4.415712"></polygon>
            </g>
            <g id="Group-60" transform="translate(54.000000, 14.000000)">
                <mask id="mask-40" fill="white">
                    <use xlink:href="#path-39"></use>
                </mask>
                <g id="Clip-59"></g>
                <polygon id="Fill-58" fill="#FFFFFF" mask="url(#mask-40)" points="-4.92881 21.831509 65.79784 21.831509 65.79784 -4.976911 -4.92881 -4.976911"></polygon>
            </g>
            <g id="Group-63" transform="translate(0.000000, 14.000000)">
                <mask id="mask-42" fill="white">
                    <use xlink:href="#path-41"></use>
                </mask>
                <g id="Clip-62"></g>
                <polygon id="Fill-61" fill="#F87E21" mask="url(#mask-42)" points="-5 21.854597 21.54847 21.854597 21.54847 -5.000003 -5 -5.000003"></polygon>
            </g>
            <g id="Group-66" transform="translate(19.000000, 14.000000)">
                <mask id="mask-44" fill="white">
                    <use xlink:href="#path-43"></use>
                </mask>
                <g id="Clip-65"></g>
                <polygon id="Fill-64" fill="#FFFFFF" mask="url(#mask-44)" points="-4.69914 21.530314 36.72243 21.530314 36.72243 -4.628156 -4.69914 -4.628156"></polygon>
            </g>
            <g id="Group-69" transform="translate(129.000000, 18.000000)">
                <mask id="mask-46" fill="white">
                    <use xlink:href="#path-45"></use>
                </mask>
                <g id="Clip-68"></g>
                <polygon id="Fill-67" fill="#FFFFFE" mask="url(#mask-46)" points="-5 12 12 12 12 -5 -5 -5"></polygon>
            </g>
        </g>
    </g>
</svg>