
<svg width="225px" height="15px" viewBox="0 0 225 15" version="1.1" xmlns="http://www.w3.org/2000/svg" xmlns:xlink="http://www.w3.org/1999/xlink">
    <!-- Generator: Sketch 47 (45396) - http://www.bohemiancoding.com/sketch -->
    <desc>Created with Sketch.</desc>
    <defs></defs>
    <g id="Embed" stroke="none" stroke-width="1" fill="none" fill-rule="evenodd">
        <g transform="translate(-15.000000, -472.000000)" fill="#F6F6F6">
            <path d="M21.5,483 L20.616,483 L19.758,480.283 L16.638,480.283 L15.78,483 L15.039,483 L17.821,474.329 L18.718,474.329 L21.5,483 Z M19.524,479.581 L18.185,475.369 L16.859,479.581 L19.524,479.581 Z M25.062,481.245 C25.244,481.921 25.452,482.272 25.868,482.61 C26.375,483.013 26.999,483.195 27.857,483.195 C29.521,483.195 30.535,482.441 30.535,481.193 C30.535,480.699 30.379,480.322 30.054,480.023 C29.729,479.698 29.339,479.555 28.403,479.386 L27.22,479.178 C26.505,479.048 26.141,478.71 26.141,478.19 C26.141,477.488 26.752,477.033 27.675,477.033 C28.65,477.033 29.326,477.475 29.547,478.255 L30.262,478.099 C29.963,476.968 29.105,476.396 27.714,476.396 C26.245,476.396 25.322,477.111 25.322,478.242 C25.322,479.152 25.907,479.724 27.09,479.945 L28.403,480.179 C29.326,480.361 29.716,480.686 29.716,481.31 C29.716,482.077 29.014,482.558 27.922,482.558 C26.739,482.558 26.011,482.051 25.816,481.076 L25.062,481.245 Z M32.654,485.171 L31.887,485.171 L31.887,476.591 L32.576,476.591 L32.576,477.8 C33.096,476.838 33.759,476.409 34.708,476.409 C36.255,476.409 37.269,477.735 37.269,479.75 C37.269,480.751 37.022,481.596 36.541,482.246 C36.073,482.883 35.462,483.182 34.643,483.182 C33.785,483.182 33.174,482.857 32.654,482.129 L32.654,485.171 Z M32.654,479.633 L32.654,480.101 C32.654,480.764 32.758,481.232 32.992,481.635 C33.33,482.207 33.889,482.545 34.5,482.545 C35.67,482.545 36.45,481.44 36.45,479.802 C36.45,478.125 35.722,477.059 34.578,477.059 C33.447,477.059 32.654,478.125 32.654,479.633 Z M44.003,479.815 L39.128,479.815 C39.128,481.492 39.96,482.545 41.299,482.545 C42.196,482.545 42.885,482.038 43.171,481.141 L43.886,481.323 C43.548,482.467 42.534,483.182 41.273,483.182 C39.479,483.182 38.309,481.856 38.309,479.854 C38.309,477.8 39.518,476.409 41.312,476.409 C42.326,476.409 43.145,476.903 43.613,477.8 C43.899,478.359 43.99,478.814 44.003,479.815 Z M39.154,479.204 L43.171,479.204 C43.054,477.787 42.404,477.046 41.286,477.046 C40.636,477.046 40.038,477.345 39.648,477.865 C39.375,478.229 39.258,478.541 39.154,479.204 Z M50.152,478.632 C49.879,477.176 49.073,476.409 47.799,476.409 C46.161,476.409 45.043,477.787 45.043,479.789 C45.043,480.725 45.29,481.57 45.758,482.207 C46.239,482.857 46.915,483.182 47.773,483.182 C48.514,483.182 49.086,482.922 49.541,482.402 C49.866,482.012 50.009,481.674 50.152,480.959 L49.424,480.79 C49.255,481.895 48.631,482.545 47.747,482.545 C46.59,482.545 45.862,481.453 45.862,479.724 C45.862,478.099 46.616,477.046 47.773,477.046 C48.696,477.046 49.294,477.683 49.424,478.801 L50.152,478.632 Z M52.414,476.591 L51.647,476.591 L51.647,483 L52.414,483 L52.414,476.591 Z M52.466,474.329 L51.582,474.329 L51.582,475.239 L52.466,475.239 L52.466,474.329 Z M59.421,483 L58.628,483 C58.563,482.506 58.55,482.428 58.537,481.908 C57.952,482.831 57.315,483.182 56.249,483.182 C54.871,483.182 53.987,482.415 53.987,481.219 C53.987,479.841 55.183,479.035 57.198,479.035 C57.497,479.035 57.588,479.035 58.537,479.087 L58.537,478.749 C58.537,477.501 58.069,477.046 56.782,477.046 C56.184,477.046 55.638,477.202 55.326,477.475 C55.105,477.657 54.988,477.878 54.923,478.281 L54.156,478.125 C54.286,477.488 54.507,477.15 55.001,476.838 C55.443,476.552 56.054,476.409 56.795,476.409 C57.783,476.409 58.511,476.669 58.901,477.189 C59.2,477.566 59.304,477.995 59.304,478.84 L59.304,481.778 C59.304,482.324 59.33,482.623 59.421,483 Z M58.537,479.984 L58.537,479.737 C57.666,479.685 57.484,479.672 57.12,479.672 C55.651,479.672 54.806,480.244 54.806,481.232 C54.806,482.012 55.404,482.545 56.262,482.545 C57.601,482.545 58.537,481.492 58.537,479.984 Z M62.099,483 L62.099,474.329 L61.332,474.329 L61.332,483 L62.099,483 Z M68.118,485.171 L67.351,485.171 L67.351,476.591 L68.04,476.591 L68.04,477.8 C68.56,476.838 69.223,476.409 70.172,476.409 C71.719,476.409 72.733,477.735 72.733,479.75 C72.733,480.751 72.486,481.596 72.005,482.246 C71.537,482.883 70.926,483.182 70.107,483.182 C69.249,483.182 68.638,482.857 68.118,482.129 L68.118,485.171 Z M68.118,479.633 L68.118,480.101 C68.118,480.764 68.222,481.232 68.456,481.635 C68.794,482.207 69.353,482.545 69.964,482.545 C71.134,482.545 71.914,481.44 71.914,479.802 C71.914,478.125 71.186,477.059 70.042,477.059 C68.911,477.059 68.118,478.125 68.118,479.633 Z M77.348,476.461 C77.166,476.422 77.075,476.409 76.893,476.409 C75.918,476.409 75.346,476.89 74.943,478.073 L74.943,476.591 L74.254,476.591 L74.254,483 L75.021,483 L75.021,479.503 C75.021,478.918 75.216,478.281 75.515,477.813 C75.853,477.306 76.321,477.046 76.893,477.046 C77.036,477.046 77.14,477.059 77.348,477.085 L77.348,476.461 Z M80.754,476.409 C82.405,476.409 83.523,477.761 83.523,479.789 C83.523,481.804 82.405,483.182 80.793,483.182 C79.077,483.182 77.972,481.843 77.972,479.789 C77.972,477.774 79.09,476.409 80.754,476.409 Z M80.754,477.046 C79.532,477.046 78.791,478.086 78.791,479.789 C78.791,481.492 79.532,482.545 80.715,482.545 C81.976,482.545 82.704,481.518 82.704,479.789 C82.704,478.086 81.963,477.046 80.754,477.046 Z M85.954,474.329 L84.979,474.329 L84.979,475.239 L85.954,475.239 L85.954,474.329 Z M85.109,476.591 L85.876,476.591 L85.876,483.013 C85.876,484.391 85.304,485.041 84.095,485.041 C83.887,485.041 83.666,485.028 83.198,484.963 L83.198,484.352 C83.523,484.404 83.705,484.417 83.926,484.417 C84.797,484.417 85.109,484.053 85.109,483.039 L85.109,476.591 Z M93.13,479.815 L88.255,479.815 C88.255,481.492 89.087,482.545 90.426,482.545 C91.323,482.545 92.012,482.038 92.298,481.141 L93.013,481.323 C92.675,482.467 91.661,483.182 90.4,483.182 C88.606,483.182 87.436,481.856 87.436,479.854 C87.436,477.8 88.645,476.409 90.439,476.409 C91.453,476.409 92.272,476.903 92.74,477.8 C93.026,478.359 93.117,478.814 93.13,479.815 Z M88.281,479.204 L92.298,479.204 C92.181,477.787 91.531,477.046 90.413,477.046 C89.763,477.046 89.165,477.345 88.775,477.865 C88.502,478.229 88.385,478.541 88.281,479.204 Z M99.279,478.632 C99.006,477.176 98.2,476.409 96.926,476.409 C95.288,476.409 94.17,477.787 94.17,479.789 C94.17,480.725 94.417,481.57 94.885,482.207 C95.366,482.857 96.042,483.182 96.9,483.182 C97.641,483.182 98.213,482.922 98.668,482.402 C98.993,482.012 99.136,481.674 99.279,480.959 L98.551,480.79 C98.382,481.895 97.758,482.545 96.874,482.545 C95.717,482.545 94.989,481.453 94.989,479.724 C94.989,478.099 95.743,477.046 96.9,477.046 C97.823,477.046 98.421,477.683 98.551,478.801 L99.279,478.632 Z M101.645,477.202 L103.153,477.202 L103.153,476.591 L101.645,476.591 L101.645,474.927 L100.826,475.005 L100.826,476.591 L99.578,476.591 L99.578,477.202 L100.878,477.202 L100.878,481.167 C100.878,482.545 101.45,483.195 102.659,483.195 C102.867,483.195 103.088,483.182 103.556,483.117 L103.556,482.506 C103.231,482.558 103.036,482.571 102.828,482.571 C101.957,482.571 101.645,482.207 101.645,481.193 L101.645,477.202 Z M110.342,476.591 L108.808,476.591 L108.808,476.123 C108.782,475.876 108.873,475.421 108.964,475.239 C109.133,474.914 109.458,474.771 109.991,474.771 C110.186,474.771 110.381,474.784 110.719,474.836 L110.719,474.212 C110.251,474.16 110.03,474.147 109.822,474.147 C108.613,474.147 108.041,474.81 108.041,476.188 L108.041,476.591 L106.936,476.591 L106.936,477.202 L108.041,477.202 L108.041,483 L108.808,483 L108.808,477.202 L110.342,477.202 L110.342,476.591 Z M114.671,476.461 C114.489,476.422 114.398,476.409 114.216,476.409 C113.241,476.409 112.669,476.89 112.266,478.073 L112.266,476.591 L111.577,476.591 L111.577,483 L112.344,483 L112.344,479.503 C112.344,478.918 112.539,478.281 112.838,477.813 C113.176,477.306 113.644,477.046 114.216,477.046 C114.359,477.046 114.463,477.059 114.671,477.085 L114.671,476.461 Z M118.077,476.409 C119.728,476.409 120.846,477.761 120.846,479.789 C120.846,481.804 119.728,483.182 118.116,483.182 C116.4,483.182 115.295,481.843 115.295,479.789 C115.295,477.774 116.413,476.409 118.077,476.409 Z M118.077,477.046 C116.855,477.046 116.114,478.086 116.114,479.789 C116.114,481.492 116.855,482.545 118.038,482.545 C119.299,482.545 120.027,481.518 120.027,479.789 C120.027,478.086 119.286,477.046 118.077,477.046 Z M126.813,483 L126.813,479.451 C126.813,478.06 127.554,477.046 128.568,477.046 C129.374,477.046 129.725,477.631 129.725,478.931 L129.725,483 L130.492,483 L130.492,478.944 C130.492,478.19 130.401,477.683 130.193,477.293 C129.881,476.734 129.322,476.409 128.659,476.409 C127.775,476.409 127.177,476.864 126.722,477.891 C126.501,476.942 125.877,476.409 124.98,476.409 C124.109,476.409 123.459,476.877 123.056,477.8 L123.056,476.591 L122.367,476.591 L122.367,483 L123.134,483 L123.134,479.477 C123.134,478.06 123.862,477.046 124.889,477.046 C125.695,477.046 126.046,477.631 126.046,478.931 L126.046,483 L126.813,483 Z" id="Tagline"></path>
            <g id="Group-10" transform="translate(137.000000, 472.000000)">
                <path d="M0,7.49958834 C0,3.36407048 3.36425513,0 7.5,0 C11.6365682,0 15,3.36407048 15,7.49958834 C15,11.6359295 11.6365682,15 7.5,15 C3.36425513,15 0,11.6359295 0,7.49958834 Z M7.60235295,4.00684932 C5.62049402,4.00684932 4.00684932,5.62049402 4.00684932,7.60235295 C4.00684932,9.58653255 5.62049402,11.1986301 7.60235295,11.1986301 C9.58653255,11.1986301 11.1986301,9.58653255 11.1986301,7.60235295 C11.1986301,5.62049402 9.58653255,4.00684932 7.60235295,4.00684932 L7.60235295,4.00684932 Z" id="Donut"></path>
                <path d="M48,14.7115385 L51.9813433,14.7115385 L51.9813433,10.9821429 L53.4384328,9.3543956 L57.0503731,14.7115385 L61.8320896,14.7115385 L56.2089552,6.49038462 L61.6473881,0.288461538 L56.9272388,0.288461538 L51.9813433,6.14010989 L51.9813433,0.288461538 L48,0.288461538 L48,14.7115385 Z M62.5708955,14.7115385 L66.5522388,14.7115385 L66.5522388,10.5906593 L68.5223881,10.5906593 C72.0932836,10.5906593 74.6996269,8.79807692 74.6996269,5.39835165 C74.6996269,2.16346154 72.3600746,0.288461538 68.7276119,0.288461538 L62.5708955,0.288461538 L62.5708955,14.7115385 Z M66.5727612,7.45879121 L66.5727612,3.64697802 L68.5230957,3.64697802 C70.0233531,3.64697802 70.9235075,4.30631868 70.9235075,5.54258242 L70.9235075,5.58379121 C70.9235075,6.71703297 70.0233531,7.45879121 68.544528,7.45879121 L66.5727612,7.45879121 Z M82.8880597,15 C86.0690299,15 87.8955224,13.6195055 89.25,11.7445055 L86.2537313,9.60164835 C85.391791,10.6524725 84.5093284,11.353022 83.011194,11.353022 C81,11.353022 79.5839552,9.66346154 79.5839552,7.5 L79.5839552,7.45879121 C79.5839552,5.35714286 81,3.64697802 83.011194,3.64697802 C84.386194,3.64697802 85.3302239,4.30631868 86.1511194,5.33653846 L89.1473881,3.00824176 C87.875,1.23626374 85.9869403,0 83.0522388,0 C78.7014925,0 75.4794776,3.2967033 75.4794776,7.5 L75.4794776,7.54120879 C75.4794776,11.8475275 78.7835821,15 82.8880597,15 L82.8880597,15 Z M96.6380597,15 C99.8190299,15 101.645522,13.6195055 103,11.7445055 L100.003731,9.60164835 C99.141791,10.6524725 98.2593284,11.353022 96.761194,11.353022 C94.75,11.353022 93.3339552,9.66346154 93.3339552,7.5 L93.3339552,7.45879121 C93.3339552,5.35714286 94.75,3.64697802 96.761194,3.64697802 C98.136194,3.64697802 99.0802239,4.30631868 99.9011194,5.33653846 L102.897388,3.00824176 C101.625,1.23626374 99.7369403,0 96.8022388,0 C92.4514925,0 89.2294776,3.2967033 89.2294776,7.5 L89.2294776,7.54120879 C89.2294776,11.8475275 92.5335821,15 96.6380597,15 L96.6380597,15 Z" id="KPCC"></path>
                <path d="M25.530893,10.0729313 C25.530893,8.6002805 24.8656399,7.2454418 22.9481456,6.6171108 C24.5917121,6.00841515 25.1200013,4.67321178 25.1200013,3.55399719 C25.1200013,1.41374474 23.3786035,0.0196353436 21.2654465,0.0196353436 C19.1327232,0.0196353436 17.4108916,1.41374474 17.4108916,3.55399719 C17.4108916,4.69284712 17.9978797,6.06732118 19.5436149,6.6171108 C17.6652531,7.2454418 17,8.61991585 17,10.0729313 C17,12.4880785 18.8392292,14 21.2654465,14 C23.6525312,14 25.530893,12.4880785 25.530893,10.0729313 L25.530893,10.0729313 Z M24.2590855,3.57363254 C24.2590855,5.36044881 22.9285793,6.3029453 21.2654465,6.3029453 C19.6023137,6.3029453 18.2522412,5.36044881 18.2522412,3.57363254 C18.2522412,1.90462833 19.700145,0.805049088 21.2654465,0.805049088 C22.830748,0.805049088 24.2590855,1.90462833 24.2590855,3.57363254 L24.2590855,3.57363254 Z M24.6504109,10.0729313 C24.6504109,11.9579243 23.0655432,13.1753156 21.2654465,13.1753156 C19.4457835,13.1753156 17.8804821,11.9579243 17.8804821,10.0729313 C17.8804821,8.05049088 19.3675185,7.00981767 21.2654465,7.00981767 C23.1438082,7.00981767 24.6504109,8.07012623 24.6504109,10.0729313 L24.6504109,10.0729313 Z M34.8312402,4.75175316 C34.8312402,2.17952314 33.3050713,0.0196353436 30.58536,0.0196353436 C28.2178416,0.0196353436 26.4177449,1.90462833 26.4177449,4.22159888 C26.4177449,6.55820477 28.1591428,8.36465638 30.5462275,8.36465638 C31.602806,8.36465638 32.9333122,8.05049088 33.8724931,6.38148668 C33.2268062,9.95511921 31.1332155,12.1935484 28.9613598,13.8625526 L30.0570708,13.8625526 C33.1289749,11.6437588 34.8312402,8.07012623 34.8312402,4.75175316 L34.8312402,4.75175316 Z M33.9116256,4.18232819 C33.9116256,6.04768583 32.5224206,7.55960729 30.5657938,7.55960729 C28.687432,7.55960729 27.2395281,5.9887798 27.2395281,4.20196353 C27.2395281,2.41514727 28.6678657,0.824684432 30.5657938,0.824684432 C32.4245892,0.824684432 33.9116256,2.37587658 33.9116256,4.18232819 L33.9116256,4.18232819 Z M34.53715,12.3702665 C34.1066921,12.3702665 33.734933,12.7237027 33.734933,13.1753156 C33.734933,13.6269285 34.1066921,13.9803647 34.53715,13.9803647 C35.0067405,13.9803647 35.3589333,13.6269285 35.3589333,13.1753156 C35.3589333,12.7237027 35.0067405,12.3702665 34.53715,12.3702665 Z M45,10.0925666 C45,8.38429173 44.0412529,7.20617111 42.4563851,6.69565217 C43.8651564,6.20476858 44.6478072,5.12482468 44.6478072,3.59326788 C44.6478072,1.41374474 42.8672768,0 40.7541198,0 C39.1301195,0 37.7213482,0.805049088 37.0365288,2.2973352 L37.7996133,2.6115007 C38.3083362,1.47265077 39.4627461,0.785413745 40.7149872,0.785413745 C42.2802887,0.785413745 43.8064576,1.96353436 43.8064576,3.59326788 C43.8064576,5.51753156 42.4368189,6.32258065 40.695421,6.38148668 L40.695421,7.02945302 C42.6129153,7.08835905 44.1390842,7.99158485 44.1390842,10.0925666 C44.1390842,11.9775596 42.6324815,13.1753156 40.8323849,13.1753156 C39.4627461,13.1753156 38.2300712,12.5273492 37.7017819,11.2314165 L36.9191312,11.5259467 C37.5843843,13.2538569 39.0518544,14 40.8323849,14 C43.1607708,14 45,12.5273492 45,10.0925666 L45,10.0925666 Z" id="89.3"></path>
                <path d="M25.8117033,9.98524785 C25.8117033,8.29116627 24.9445751,7.02523846 23.1269591,6.43816331 L23.1341924,6.81542173 C24.6521353,6.26129957 25.4067381,5.04971152 25.4067381,3.65232589 C25.4067381,1.52440534 23.6727087,0.0190750662 21.4058516,0.0190750662 C19.1264921,0.0190750662 17.4049652,1.51879561 17.4049652,3.65232589 C17.4049652,5.04110575 18.1930176,6.30851359 19.6413972,6.81629992 L19.6449996,6.43854724 C17.8653414,7.02533765 17,8.30928258 17,9.98524785 C17,12.3858707 18.8379999,14 21.4058516,14 C23.9488136,14 25.8117033,12.3744328 25.8117033,9.98524785 L25.8117033,9.98524785 Z M25.4078487,9.98524785 C25.4078487,12.141882 23.7362562,13.6005222 21.4058516,13.6005222 C19.0510476,13.6005222 17.4038546,12.1539592 17.4038546,9.98524785 C17.4038546,8.47567708 18.1638837,7.34798864 19.7727097,6.81752518 L20.3298316,6.63383048 L19.7763121,6.4397725 C18.4996951,5.99220432 17.8088198,4.88108424 17.8088198,3.65232589 C17.8088198,1.75151314 19.3389228,0.418552892 21.4058516,0.418552892 C23.460544,0.418552892 25.0028835,1.75747506 25.0028835,3.65232589 C25.0028835,4.89061679 24.3444416,5.94780915 22.9943687,6.44065069 L22.4494553,6.63957026 L23.0016019,6.81790911 C24.6479132,7.34965423 25.4078487,8.45909056 25.4078487,9.98524785 L25.4078487,9.98524785 Z M24.154385,3.67140095 C24.154385,5.19786183 23.048946,6.12309624 21.4058516,6.12309624 C19.7577479,6.12309624 18.6380342,5.19431938 18.6380342,3.67140095 C18.6380342,2.24305969 19.8800373,1.18155554 21.4058516,1.18155554 C22.9271784,1.18155554 24.154385,2.23969551 24.154385,3.67140095 L24.154385,3.67140095 Z M24.5582396,3.67140095 C24.5582396,2.00594024 23.1388318,0.782077713 21.4058516,0.782077713 C19.6690386,0.782077713 18.2341796,2.00841023 18.2341796,3.67140095 C18.2341796,5.4320456 19.5488976,6.52257406 21.4058516,6.52257406 C23.2584308,6.52257406 24.5582396,5.43465534 24.5582396,3.67140095 L24.5582396,3.67140095 Z M24.5400661,9.98524785 C24.5400661,11.6214511 23.1652059,12.7993694 21.4058516,12.7993694 C19.6342846,12.7993694 18.2716371,11.6273 18.2716371,9.98524785 C18.2716371,8.24225123 19.515794,7.20927645 21.4058516,7.20927645 C23.2752276,7.20927645 24.5400661,8.26022636 24.5400661,9.98524785 L24.5400661,9.98524785 Z M24.9439207,9.98524785 C24.9439207,8.02267756 23.4841975,6.80979862 21.4058516,6.80979862 C19.3068776,6.80979862 17.8677825,8.00462303 17.8677825,9.98524785 C17.8677825,11.8613014 19.4228128,13.1988472 21.4058516,13.1988472 C23.3763845,13.1988472 24.9439207,11.8558528 24.9439207,9.98524785 L24.9439207,9.98524785 Z M34.9779081,4.81590492 C34.9779081,2.04971895 33.252543,0.0190750662 30.5913405,0.0190750662 C28.1693453,0.0190750662 26.2819092,1.91666237 26.2819092,4.30087814 C26.2819092,6.70080552 28.1082872,8.52545601 30.5527724,8.52545601 C32.0040423,8.52545601 33.1737912,7.95664341 34.006891,6.49735097 L33.6323744,6.36350006 C33.08534,9.34778153 31.5025385,11.5125741 28.8679959,13.5081526 L28.3949429,13.8664745 L28.9907638,13.8664745 L30.070671,13.8664745 L30.1357833,13.8664745 L30.1886306,13.8288502 C33.1734154,11.7038476 34.9779081,8.22025528 34.9779081,4.81590492 L34.9779081,4.81590492 Z M34.5740535,4.81590492 C34.5740535,8.09174647 32.8320601,11.4546832 29.9527114,13.5046211 L30.070671,13.4669967 L28.9907638,13.4669967 L29.1135318,13.8253187 C31.8211905,11.7743571 33.4624488,9.52961337 34.0297497,6.43477077 L34.2430125,5.27134089 L33.6552331,6.30091987 C32.8997932,7.62418018 31.8678581,8.12597819 30.5527724,8.12597819 C28.3322344,8.12597819 26.6857638,6.4810649 26.6857638,4.30087814 C26.6857638,2.13584698 28.3938711,0.418552892 30.5913405,0.418552892 C33.0124484,0.418552892 34.5740535,2.25646175 34.5740535,4.81590492 L34.5740535,4.81590492 Z M33.6677029,4.26272801 C33.6677029,6.00343885 32.3506514,7.34390047 30.5720565,7.34390047 C28.8699467,7.34390047 27.4956941,5.94554338 27.4956941,4.28180307 C27.4956941,2.60687446 28.8611534,1.2006306 30.5720565,1.2006306 C32.2721857,1.2006306 33.6677029,2.59778978 33.6677029,4.26272801 L33.6677029,4.26272801 Z M34.0715575,4.26272801 C34.0715575,2.37823661 32.4963271,0.801152779 30.5720565,0.801152779 C28.6343856,0.801152779 27.0918396,2.38977281 27.0918396,4.28180307 C27.0918396,6.16367978 28.6443076,7.7433783 30.5720565,7.7433783 C32.576312,7.7433783 34.0715575,6.22155531 34.0715575,4.26272801 L34.0715575,4.26272801 Z M34.4861324,12.0172917 C33.944414,12.0172917 33.4935588,12.4558279 33.4935588,12.9991083 C33.4935588,13.5423887 33.944414,13.9809249 34.4861324,13.9809249 C35.0567769,13.9809249 35.4979901,13.5517673 35.4979901,12.9991083 C35.4979901,12.4464494 35.0567769,12.0172917 34.4861324,12.0172917 L34.4861324,12.0172917 Z M34.4861324,12.4167695 C34.8352393,12.4167695 35.0941355,12.6685917 35.0941355,12.9991083 C35.0941355,13.3296249 34.8352393,13.5814471 34.4861324,13.5814471 C34.1659515,13.5814471 33.8974134,13.3202464 33.8974134,12.9991083 C33.8974134,12.6779703 34.1659515,12.4167695 34.4861324,12.4167695 L34.4861324,12.4167695 Z M45,10.0043229 C45,8.29198402 44.0337316,7.04784666 42.3528601,6.51415491 L42.3573799,6.89302457 C43.8365794,6.38497987 44.652887,5.25347217 44.652887,3.69047602 C44.652887,1.53317018 42.8901784,0 40.6134324,0 C38.8973722,0 37.4600122,0.857410883 36.7660493,2.34797084 L36.6779363,2.53722847 L36.8728189,2.61631383 L37.6248971,2.92151489 L37.8058108,2.99493155 L37.8858004,2.81842709 C38.3460623,1.80281632 39.3980085,1.16248047 40.5748643,1.16248047 C42.0917653,1.16248047 43.419818,2.29245068 43.419818,3.69047602 C43.419818,5.29683029 42.3540055,6.13931897 40.5487776,6.19950988 L40.353653,6.20601583 L40.353653,6.39913542 L40.353653,7.0286126 L40.353653,7.22233062 L40.5494017,7.22825799 C42.5419606,7.28859364 43.7476469,8.23705499 43.7476469,10.0043229 C43.7476469,11.6504697 42.4369777,12.7993694 40.6905686,12.7993694 C39.348671,12.7993694 38.257445,12.1604421 37.7920128,11.035049 L37.7177829,10.8555646 L37.5342182,10.9236554 L36.7628559,11.2097814 L36.5718996,11.280614 L36.6453999,11.4687885 C37.3005581,13.1461149 38.7480649,14 40.6905686,14 C43.1882028,14 45,12.4004809 45,10.0043229 L45,10.0043229 Z M44.5961454,10.0043229 C44.5961454,12.169094 42.9747471,13.6005222 40.6905686,13.6005222 C38.9058405,13.6005222 37.6131431,12.8379593 37.0221147,11.324817 L36.9046587,11.5838241 L37.676021,11.2976981 L37.4182264,11.1863045 C37.9494604,12.4708033 39.192889,13.1988472 40.6905686,13.1988472 C42.6498829,13.1988472 44.1515015,11.882566 44.1515015,10.0043229 C44.1515015,7.99532854 42.7531735,6.89532431 40.5617588,6.82896721 L40.7575075,7.0286126 L40.7575075,6.39913542 L40.5623829,6.59876095 C42.5660888,6.53195228 43.8236725,5.53787489 43.8236725,3.69047602 C43.8236725,2.05734403 42.3024346,0.763002647 40.5748643,0.763002647 C39.2423823,0.763002647 38.0441775,1.49236835 37.5172793,2.65501833 L37.7781827,2.55193054 L37.0261045,2.24672948 L37.132874,2.51507247 C37.7590417,1.17012954 39.050959,0.399477825 40.6134324,0.399477825 C42.6778679,0.399477825 44.2490324,1.76604658 44.2490324,3.69047602 C44.2490324,5.08311117 43.5418728,6.06332567 42.2249108,6.51564838 L41.6538779,6.71177491 L42.2294306,6.89451804 C43.7469472,7.37634316 44.5961454,8.46974455 44.5961454,10.0043229 L44.5961454,10.0043229 Z" id="89.3" fill-rule="nonzero"></path>
            </g>
        </g>
    </g>
</svg>