<?xml version="1.0" encoding="UTF-8"?>
<svg width="194px" height="23px" viewBox="0 0 194 23" version="1.1" xmlns="http://www.w3.org/2000/svg" xmlns:xlink="http://www.w3.org/1999/xlink">
    <!-- Generator: Sketch 51.3 (57544) - http://www.bohemiancoding.com/sketch -->
    <title>kpccLaist</title>
    <desc>Created with Sketch.</desc>
    <defs>
        <polygon id="path-1" points="2.8532 2.76525 2.0837 2.76525 2.0837 1.66203 1.7618 1.66203 1.7618 2.76525 0.9923 2.76525 0.9923 0.04471 1.7618 0.04471 1.7618 1.14989 2.083 1.14989 2.083 0.04471 2.8525 0.04471 2.8525 2.76525"></polygon>
        <path d="M2.091,2.370543 L1.5968,2.76525 L0.7386,2.76525 L0.2301,2.370543 L0.2301,0.44007 L0.7386,0.04536 L1.5644,0.04536 L2.0903,0.44007 L2.0903,2.370543 L2.091,2.370543 Z M1.0002,0.5575 L1.0002,2.25311 L1.3215,2.25311 L1.3215,0.5575 L1.0002,0.5575 Z" id="path-3"></path>
        <polygon id="path-5" points="1.2471 2.25311 1.9414 2.25311 1.9414 2.76525 0.4783 2.76525 0.4783 0.04471 1.2471 0.04471"></polygon>
        <polygon id="path-7" points="0.9253 2.25311 1.6203 2.25311 1.6203 2.76525 0.1558 2.76525 0.1558 0.04471 0.9253 0.04471"></polygon>
        <polygon id="path-9" points="1.8379 1.62745 1.8379 2.76525 1.0685 2.76525 1.0685 1.62745 0.4065 0.04471 1.176 0.04471 1.4513 1.02789 1.461 1.02789 1.7362 0.04471 2.5057 0.04471"></polygon>
        <polygon id="path-11" points="2.4954 2.76525 1.941 2.76525 1.7778 1.6007 1.7033 1.6007 1.5394 2.76525 0.985 2.76525 0.415 0.04471 1.143 0.04471 1.3808 1.41477 1.3905 1.41477 1.5815 0.04471 1.8983 0.04471 2.0893 1.41477 2.0984 1.41477 2.3374 0.04471 3.0641 0.04471"></polygon>
        <path d="M2.0506,2.370543 L1.5551,2.76525 L0.6982,2.76525 L0.1898,2.370543 L0.1898,0.44007 L0.6982,0.04536 L1.5227,0.04536 L2.05,0.44007 L2.05,2.370543 L2.0506,2.370543 Z M0.9586,0.5575 L0.9586,2.25311 L1.2805,2.25311 L1.2805,0.5575 L0.9586,0.5575 Z" id="path-13"></path>
        <path d="M2.2884,2.370543 L1.7936,2.76525 L0.936,2.76525 L0.4276,2.370543 L0.4276,0.44007 L0.936,0.04536 L1.7612,0.04536 L2.2878,0.44007 L2.2878,2.370543 L2.2884,2.370543 Z M1.1977,0.5575 L1.1977,2.25311 L1.5189,2.25311 L1.5189,0.5575 L1.1977,0.5575 Z" id="path-15"></path>
        <path d="M2.5398,2.370543 L2.0417,2.76525 L0.6803,2.76525 L0.6803,0.04471 L2.0132,0.04471 L2.5392,0.43942 L2.5392,2.370543 L2.5398,2.370543 Z M1.4497,0.5575 L1.4497,2.25311 L1.7703,2.25311 L1.7703,0.5575 L1.4497,0.5575 Z" id="path-17"></path>
        <polygon id="path-19" points="0.6318 12.7923251 0.6318 1.65315 2.8024 0.74718 2.8024 12.7923251"></polygon>
        <path d="M6.9275,0.057085 L6.9275,5.749692 C6.9275,6.468278 7.097,6.619559 7.4527,6.619559 C7.584,6.619559 7.7153,6.582391 7.8466,6.506098 L7.8466,7.5846288 C7.377,7.8493709 6.89,8 6.3829,8 C5.8202,8 5.37,7.7730782 5.088,7.3948752 C4.6191,7.7730782 4.0376,8 3.3805,8 C1.3922,8 0.3787,6.582391 0.3787,4.028869 C0.3787,1.475347 1.3916,0.056433 3.3805,0.056433 C4.0939,0.056433 4.7129,0.321175 5.2006,0.775019 L6.9275,0.057085 Z M4.7517,2.685596 C4.5078,2.326303 4.1139,2.118944 3.6825,2.118944 C2.8378,2.118944 2.5564,2.799057 2.5564,4.029521 C2.5564,5.258681 2.8384,5.940098 3.6825,5.940098 C4.1139,5.940098 4.5078,5.731434 4.7517,5.372141 L4.7517,2.685596 Z" id="path-21"></path>
        <path d="M0.3454,1.88526 L0.3454,0.44808 L1.4823,0.44808 L1.4823,1.88526 L0.3454,1.88526 Z M1.4823,3.851029 L1.4823,11.7923251 L0.3454,11.7923251 L0.3454,4.380926 L1.4823,3.851029 Z" id="path-23"></path>
        <path d="M0.8785,5.806895 C1.4231,6.33577 2.1562,6.978768 3.1885,6.978768 C3.8834,6.978768 4.4851,6.714004 4.4851,5.844066 C4.4851,5.050427 3.7526,4.747187 3.1141,4.520899 C2.0999,4.142665 0.8597,3.632049 0.8597,2.099549 C0.8597,0.812901 1.8739,0.056433 3.208,0.056433 C3.978,0.056433 4.5978,0.244898 5.0679,0.509662 L5.0679,1.701751 C4.5609,1.323517 3.9411,1.077665 3.208,1.077665 C2.5506,1.077665 1.9121,1.360689 1.9121,2.098897 C1.9121,2.761459 2.4936,3.04383 3.1141,3.272075 C4.1282,3.650309 5.5368,4.236571 5.5368,5.843414 C5.5368,7.1678852 4.6729,8 3.1885,8 C2.0241,8 1.291,7.4711245 0.8785,7.1300617 L0.8785,5.806895 Z" id="path-25"></path>
        <path d="M2.3929,4.23336 L2.3929,7.821099 C2.3929,9.482837 2.6749,9.860357 3.7091,9.860357 C4.0099,9.860357 4.48,9.709349 4.8936,9.52124 L4.8936,10.5965208 C4.386,10.8048076 3.8219,10.9740406 3.4458,10.9740406 C1.5844,10.9740406 1.2648,9.747101 1.2648,7.821099 L1.2648,4.23336 L0.0614,4.23336 L0.0614,3.232932 L1.2648,3.232932 L1.2648,1.118821 L2.3929,0.59029 L2.3929,3.233583 L4.8936,3.233583 L4.8936,4.23401 L2.3929,4.23401 L2.3929,4.23336 Z" id="path-27"></path>
        <polygon id="path-29" points="12.2174 5.62972 12.2174 4.36889 10.9599 4.36889 10.9599 4.3064 10.1751 3.58063 5.3412 3.58063 5.3412 0.65801 4.9721 0.65801 4.9721 3.58063 2.9771 3.58063 2.2026 4.32658 2.2026 4.36889 0.9251 4.36889 0.9251 5.62972 2.2026 5.62972 2.2026 6.775329 0.9251 6.775329 0.9251 8.177404 2.2026 8.177404 2.2026 9.32432 0.9251 9.32432 0.9251 10.68083 2.2026 10.68083 2.2026 11.829698 0.9251 11.829698 0.9251 13.190114 2.2026 13.190114 2.2026 14.33703 0.9251 14.33703 0.9251 15.7404063 12.2174 15.7404063 12.2174 14.33703 10.9599 14.33703 10.9599 13.190114 12.2174 13.190114 12.2174 11.829698 10.9599 11.829698 10.9599 10.68083 12.2174 10.68083 12.2174 9.32432 10.9599 9.32432 10.9599 8.177404 12.2174 8.177404 12.2174 6.775329 10.9599 6.775329 10.9599 5.62972"></polygon>
        <path d="M9.6543,8.85286 C9.7094,8.98313 17.2773,18.820151 15.6926,22.714447 L13.3933,22.714447 C14.1604,18.971911 11.872,12.95493 8.03,9.02937 C8.03,9.02937 5.5972,8.75386 4.7595,10.53134 C4.5749,10.92604 4.9532,8.92712 5.8318,8.00418 L0.6389,9.42603 C2.1498,6.98811 3.984,5.68089 5.4521,5.97855 L2.1641,2.91926 C4.0728,2.60857 6.1233,2.8196 7.2416,4.45639 C7.6601,2.93619 7.7553,0.53474 9.9439,0 L9.3265,4.3854 C11.0447,3.59403 12.7149,3.01109 14.0036,4.3841 L10.0962,6.42797 C12.3301,6.61685 15.6842,8.89259 14.7201,8.66723 C12.8698,8.2328 9.5999,8.72195 9.6543,8.85286 Z" id="path-31"></path>
        <polygon id="path-33" points="13.5726 12.263451 13.5726 11.725258 10.1818 11.725258 10.1818 4.98938 9.3724 4.98938 9.3724 3.50577 9.1102 3.50577 9.1102 2.41505 8.7191 2.41505 8.7191 1.54195 8.6026 1.54195 7.4921 0.06095 6.3733 1.54195 6.2146 1.54195 6.2146 2.41505 5.8754 2.41505 5.8754 3.50577 5.5626 3.50577 5.5626 4.98938 4.7015 4.98938 4.7015 11.725258 1.4025 11.725258 1.4025 12.263451 0.8936 12.263451 0.8936 15.7923251 13.9948 15.7923251 13.9948 12.263451"></polygon>
        <path d="M20.3204,6.553184 L18.8185,3.672549 C18.8185,3.672549 16.8536,3.987273 16.1652,4.522434 C15.1031,5.346959 16.1367,4.248026 16.1367,4.248026 L16.0175,4.218764 L16.3414,1.520201 C16.3414,1.520201 15.0157,0.973986 14.8978,1.064371 C14.7786,1.157358 14.6912,1.429815 14.6912,1.429815 C14.6912,1.429815 12.5106,0.641054 12.3047,0.42777 C12.0981,0.215787 8.7084,1.732184 8.7084,1.732184 L8.7084,2.551507 L4.877,1.610587 L4.3479,2.429909 C4.3479,2.429909 2.8448,2.158102 2.8726,2.247187 C2.9044,2.338874 3.8745,5.644776 3.8745,5.644776 C3.8745,5.644776 2.2256,6.00957 2.0191,5.796936 C1.8125,5.584303 1.7529,7.131913 1.7529,7.131913 L0.8695,7.161174 L0.251,8.0422714 L0.5075,8.708784 C0.5075,8.708784 16.8452,8.7991697 17.3089,8.6743205 C17.897,8.5182589 19.5827,8.2542549 19.7595,8.2828662 C19.937,8.3121277 19.6715,7.615053 19.6715,7.615053 C19.6715,7.615053 21.2348,7.907018 21.9718,7.979847 C22.1972,8.0026057 22.2931,8.1007944 22.2931,8.1007944 L22.2931,6.674782 L20.3204,6.553184 Z M2.4951,7.854998 C2.3623,7.698936 1.7995,7.27822 1.7995,7.27822 C1.7995,7.27822 1.7768,7.078592 1.9096,7.189135 C2.0424,7.299679 2.6272,8.0097585 2.4951,7.854998 Z M9.0108,2.665302 L9.0005,3.238178 C9.0244,4.061402 9.143,5.326151 9.143,5.326151 L8.9668,5.392477 L9.0011,3.238828 C8.9947,2.991731 8.9953,2.78625 9.0108,2.665302 Z M5.1996,5.803439 C5.1996,5.803439 4.8401,2.493635 4.7812,1.838176 C4.7812,1.838176 5.2701,5.113517 5.3718,5.790434 C5.388,5.899027 5.1996,5.803439 5.1996,5.803439 Z M12.2309,4.452206 C12.2341,4.151138 12.2697,0.75745 12.2445,0.671616 C12.2186,0.57993 12.4128,0.646256 12.4128,0.646256 L12.361,4.423595 L12.3494,4.428797 C12.9808,4.301997 13.6239,4.218114 14.2243,4.218114 C14.3784,4.218114 14.3344,4.328658 14.3344,4.328658 C14.3344,4.328658 10.933,4.728565 8.43699985,5.682491 C8.4364,5.681841 10.2588,4.865119 12.2309,4.452206 Z M16.366,5.895125 L10.6014,6.146774 C11.7283,5.792385 16.3815,5.769626 16.3815,5.769626 L16.366,5.895125 Z" id="path-35"></path>
        <path d="M7.67775,9.162337 C7.67775,11.2511 6.1218,12.5586997 4.14445,12.5586997 C2.13468,12.5586997 0.61115,11.2511 0.61115,9.162337 C0.61115,7.905683 1.16221,6.716956 2.71816,6.173538 C1.43775,5.698047 0.95151,4.50932 0.95151,3.524375 C0.95151,1.67336 2.3778,0.46765 4.14445,0.46765 C5.89489,0.46765 7.33739,1.67336 7.33739,3.524375 C7.33739,4.492338 6.89978,5.647102 5.53832,6.173538 C7.12668,6.716956 7.67775,7.888701 7.67775,9.162337 Z M6.62424,3.541357 C6.62424,2.0979 5.44107,1.14692 4.14445,1.14692 C2.84782,1.14692 1.64845,2.0979 1.64845,3.541357 C1.64845,5.086702 2.76679,5.901829 4.14445,5.901829 C5.52211,5.901829 6.62424,5.086702 6.62424,3.541357 Z M6.9484,9.162337 C6.9484,7.430192 5.7004,6.513174 4.14445,6.513174 C2.57229,6.513174 1.3405,7.41321 1.3405,9.162337 C1.3405,10.792591 2.63712,11.845464 4.14445,11.845464 C5.63557,11.845464 6.9484,10.792591 6.9484,9.162337 Z M15.38172,4.560266 C15.38172,7.430192 13.97164,10.520882 11.42701,12.439827 L10.51938,12.439827 C12.31844,10.996373 14.05268,9.060446 14.58754,5.969756 C13.80956,7.41321 12.70743,7.684919 11.83221,7.684919 C9.85486,7.684919 8.41236,6.122593 8.41236,4.101757 C8.41236,2.0979 9.90348,0.46765 11.86462,0.46765 C14.11751,0.46765 15.38172,2.33565 15.38172,4.560266 Z M14.61995,4.067793 C14.61995,2.50547 13.38816,1.1639 11.84842,1.1639 C10.27626,1.1639 9.09309,2.53943 9.09309,4.084775 C9.09309,5.63012 10.29247,6.988665 11.84842,6.988665 C13.4692,6.988665 14.61995,5.681065 14.61995,4.067793 Z M15.13809,11.149209 C15.52708,11.149209 15.81882,11.454882 15.81882,11.845464 C15.81882,12.2360453 15.52708,12.5417179 15.13809,12.5417179 C14.78152,12.5417179 14.47357,12.2360453 14.47357,11.845464 C14.47357,11.454882 14.78152,11.149209 15.13809,11.149209 Z M23.80511,9.179319 C23.80511,11.285064 22.28157,12.5586997 20.35285,12.5586997 C18.87794,12.5586997 17.66235,11.913391 17.11129,10.418991 L17.7596,10.164264 C18.19721,11.285064 19.2183,11.845464 20.35285,11.845464 C21.84396,11.845464 23.09196,10.809573 23.09196,9.179319 C23.09196,7.362265 21.82776,6.581101 20.23939,6.530156 L20.23939,5.969756 C21.68189,5.918811 22.81643,5.222556 22.81643,3.558339 C22.81643,2.14885 21.55222,1.12994 20.2556,1.12994 C19.2183,1.12994 18.26204,1.7243 17.84055,2.70925 L17.20853,2.43754 C17.77581,1.14692 18.94277,0.45067 20.28801,0.45067 C22.03846,0.45067 23.51337,1.67336 23.51337,3.558339 C23.51337,4.88292 22.86506,5.81692 21.69809,6.241465 C23.01093,6.682992 23.80511,7.701901 23.80511,9.179319 Z" id="path-37"></path>
        <path d="M0.49534,12.7328767 L0.49534,0.26712 L3.78753,0.26712 L3.78753,5.324658 L7.87732,0.26712 L11.78044,0.26712 L7.28337,5.627397 L11.93317,12.7328767 L7.97914,12.7328767 L4.99241,8.10274 L3.78753,9.509589 L3.78753,12.7328767 L0.49534,12.7328767 Z M12.54409,12.7328767 L12.54409,0.26712 L17.63511,0.26712 C20.63881,0.26712 22.5734,1.88767 22.5734,4.683562 C22.5734,7.621918 20.4182,9.171233 17.46541,9.171233 L15.83628,9.171233 L15.83628,12.7328767 L12.54409,12.7328767 Z M15.85325,6.464384 L17.48374,6.464384 C18.7066,6.464384 19.45091,5.823288 19.45091,4.843836 L19.45091,4.808219 C19.45091,3.739726 18.7066,3.169863 17.466,3.169863 L15.85325,3.169863 L15.85325,6.464384 Z M29.34446,12.9821918 C25.95044,12.9821918 23.21826,10.257534 23.21826,6.535616 L23.21826,6.5 C23.21826,2.86712 25.88256,0.01781 29.48022,0.01781 C31.90694,0.01781 33.46819,1.0863 34.52033,2.61781 L32.0427,4.630137 C31.3639,3.739726 30.58327,3.169863 29.44628,3.169863 C27.78321,3.169863 26.61228,4.647945 26.61228,6.464384 L26.61228,6.5 C26.61228,8.369863 27.78321,9.830137 29.44628,9.830137 C30.68509,9.830137 31.41481,9.224658 32.12755,8.316438 L34.60518,10.168493 C33.48516,11.789041 31.97482,12.9821918 29.34446,12.9821918 Z M40.7144,12.9821918 C37.32039,12.9821918 34.58821,10.257534 34.58821,6.535616 L34.58821,6.5 C34.58821,2.86712 37.25251,0.01781 40.85017,0.01781 C43.27689,0.01781 44.83813,1.0863 45.89028,2.61781 L43.41265,4.630137 C42.73384,3.739726 41.95322,3.169863 40.81623,3.169863 C39.15316,3.169863 37.98222,4.647945 37.98222,6.464384 L37.98222,6.5 C37.98222,8.369863 39.15316,9.830137 40.81623,9.830137 C42.05504,9.830137 42.78475,9.224658 43.4975,8.316438 L45.97513,10.168493 C44.8551,11.789041 43.34477,12.9821918 40.7144,12.9821918 Z" id="path-39"></path>
        <path d="M0,6.499644 C0,2.91556 2.779643,0 6.196791,0 C9.614618,0 12.39358,2.91556 12.39358,6.499644 C12.39358,10.084438 9.614618,13 6.196791,13 C2.779643,13 0,10.084438 0,6.499644 Z M6.281339,3.472603 C4.643858,3.472603 3.310614,4.871082 3.310614,6.588685 C3.310614,8.308336 4.643858,9.705479 6.281339,9.705479 C7.920772,9.705479 9.252742,8.308336 9.252742,6.588685 C9.252742,4.871082 7.920772,3.472603 6.281339,3.472603 Z" id="path-41"></path>
        <path d="M7.52031,3.538174 C7.52031,4.648251 7.01526,5.626659 5.99989,6.174941 C7.25794,6.748206 7.86066,7.804406 7.86066,9.175867 C7.86066,11.30276 6.29501,12.749879 4.15779,12.749879 C1.9997,12.749879 0.45493,11.312984 0.45493,9.175867 C0.45493,7.820676 1.05493,6.753451 2.28582,6.177697 C1.31713,5.647908 0.79528,4.635627 0.79528,3.538174 C0.79528,1.63888 2.24212,0.30378 4.15779,0.30378 C6.06294,0.30378 7.52031,1.64386 7.52031,3.538174 Z M7.52124,9.175867 C7.52124,7.817209 6.88255,6.829643 5.49891,6.35622 L5.03485,6.197434 L5.49289,6.020423 C6.62747,5.581673 7.18089,4.640517 7.18089,3.538174 C7.18089,1.85136 5.88466,0.6594 4.15779,0.6594 C2.42066,0.6594 1.13469,1.84603 1.13469,3.538174 C1.13469,4.63207 1.71535,5.621147 2.78825,6.019623 L3.25342,6.192367 L2.78519,6.355865 C1.43312,6.828132 0.79434,7.832056 0.79434,9.175867 C0.79434,11.106456 2.17874,12.3942559 4.15779,12.3942559 C6.1164,12.3942559 7.52124,11.095787 7.52124,9.175867 Z M6.46778,3.555155 C6.46778,2.2806 5.43638,1.33864 4.15779,1.33864 C2.87539,1.33864 1.8316,2.28362 1.8316,3.555155 C1.8316,4.910879 2.77263,5.737703 4.15779,5.737703 C5.53871,5.737703 6.46778,4.91408 6.46778,3.555155 Z M6.80719,3.555155 C6.80719,5.124875 5.71478,6.093326 4.15779,6.093326 C2.59715,6.093326 1.49218,5.122475 1.49218,3.555155 C1.49218,2.0747 2.69813,0.98302 4.15779,0.98302 C5.61423,0.98302 6.80719,2.07256 6.80719,3.555155 Z M6.79192,9.175867 C6.79192,7.640197 5.72887,6.704642 4.15779,6.704642 C2.56932,6.704642 1.52366,7.624194 1.52366,9.175867 C1.52366,10.637656 2.66886,11.681054 4.15779,11.681054 C5.63646,11.681054 6.79192,10.63241 6.79192,9.175867 Z M7.13134,9.175867 C7.13134,10.841161 5.81389,12.0366769 4.15779,12.0366769 C2.49117,12.0366769 1.18425,10.845962 1.18425,9.175867 C1.18425,7.412688 2.39376,6.349019 4.15779,6.349019 C5.90452,6.349019 7.13134,7.428779 7.13134,9.175867 Z M10.42928,12.3120181 C12.39646,10.733674 13.66596,9.036463 14.24712,6.814352 C13.60537,7.567739 12.79739,7.876331 11.84524,7.876331 C9.79084,7.876331 8.25583,6.252023 8.25583,4.115528 C8.25583,1.99308 9.84209,0.30378 11.87766,0.30378 C14.11424,0.30378 15.56432,2.1115 15.56432,4.574015 C15.56432,7.604635 14.04772,10.705757 11.53926,12.5974945 L11.49479,12.631012 L10.03174,12.631012 L10.42928,12.3120181 Z M11.0219,12.2753889 L11.38508,12.2753889 C13.77864,10.447486 15.2249,7.472432 15.2249,4.574015 C15.2249,2.29554 13.91246,0.6594 11.87766,0.6594 C10.03081,0.6594 8.59524,2.18814 8.59524,4.115528 C8.59524,6.056341 9.97904,7.520708 11.84524,7.520708 C12.95055,7.520708 13.81776,7.073957 14.45273,5.896044 L14.94666,4.979425 L14.76745,6.015178 C14.31832,8.610693 13.06799,10.534614 11.0219,12.2753889 Z M14.46316,4.081566 C14.46316,2.59942 13.29031,1.35563 11.86145,1.35563 C10.42351,1.35563 9.27594,2.60751 9.27594,4.098547 C9.27594,5.579628 10.43098,6.824487 11.86145,6.824487 C13.35624,6.824487 14.46316,5.631194 14.46316,4.081566 Z M14.80258,4.081566 C14.80258,5.825364 13.54589,7.18011 11.86145,7.18011 C10.24133,7.18011 8.93653,5.773798 8.93653,4.098547 C8.93653,2.41423 10.23293,1 11.86145,1 C13.47869,1 14.80258,2.40391 14.80258,4.081566 Z M15.15099,10.984833 C15.63059,10.984833 16.0014,11.366861 16.0014,11.858865 C16.0014,12.3508699 15.63059,12.732898 15.15099,12.732898 C14.69575,12.732898 14.31679,12.3425127 14.31679,11.858865 C14.31679,11.375218 14.69575,10.984833 15.15099,10.984833 Z M15.15099,11.340456 C14.88192,11.340456 14.65621,11.572944 14.65621,11.858865 C14.65621,12.1447863 14.88192,12.3772749 15.15099,12.3772749 C15.44442,12.3772749 15.66198,12.1530545 15.66198,11.858865 C15.66198,11.564676 15.44442,11.340456 15.15099,11.340456 Z M23.69564,3.572136 C23.69564,4.805259 23.15673,5.736636 22.16886,6.247488 C23.32983,6.787058 23.98737,7.82121 23.98737,9.192848 C23.98737,11.325964 22.46457,12.749879 20.36554,12.749879 C18.73294,12.749879 17.51639,11.989735 16.96577,10.496562 L16.90399,10.329064 L17.867,9.950681 L17.92946,10.110444 C18.32064,11.112235 19.23774,11.681054 20.36554,11.681054 C21.83326,11.681054 22.93484,10.658282 22.93484,9.192848 C22.93484,7.619571 21.92151,6.775233 20.24683,6.721534 L20.08238,6.716289 L20.08238,5.811495 L20.24632,5.805716 C21.76351,5.752105 22.65931,5.002185 22.65931,3.572136 C22.65931,2.32754 21.54314,1.32166 20.26829,1.32166 C19.27915,1.32166 18.39505,1.89173 18.00829,2.79581 L17.941,2.95291 L16.99309,2.54545 L17.06717,2.37698 C17.65037,1.05006 18.85844,0.2868 20.30071,0.2868 C22.21417,0.2868 23.69564,1.65168 23.69564,3.572136 Z M17.68219,10.403033 L17.34795,10.534347 C17.87099,11.771204 18.92845,12.3942559 20.36554,12.3942559 C22.28519,12.3942559 23.64795,11.119969 23.64795,9.192848 C23.64795,7.826722 22.93424,6.853381 21.6588,6.424411 L21.17513,6.261713 L21.65507,6.087191 C22.76182,5.684537 23.35622,4.811927 23.35622,3.572136 C23.35622,1.85901 22.03572,0.64242 20.30071,0.64242 C19.0497,0.64242 18.00506,1.26503 17.45393,2.35919 L17.77053,2.49531 C18.24418,1.55086 19.20541,0.96604 20.26829,0.96604 C21.72015,0.96604 22.99873,2.11826 22.99873,3.572136 C22.99873,5.16266 22.0101,6.04265 20.42179,6.152626 L20.42179,6.373912 C22.16869,6.484867 23.27425,7.458207 23.27425,9.192848 C23.27425,10.864899 22.01222,12.0366769 20.36554,12.0366769 C19.16595,12.0366769 18.16052,11.448032 17.68219,10.403033 Z" id="path-43"></path>
        <polygon id="path-45" points="2.02128 2.021277 2.02128 0 2.87234 0 2.87234 2.021277 4.8936 2.021277 4.8936 2.978723 2.87234 2.978723 2.87234 5 2.02128 5 2.02128 2.978723 0 2.978723 0 2.021277"></polygon>
    </defs>
    <g id="Page-1" stroke="none" stroke-width="1" fill="none" fill-rule="evenodd">
        <g id="kpccLaist">
            <g id="Group-3" transform="translate(137.000000, 11.000000)">
                <mask id="mask-2" fill="white">
                    <use xlink:href="#path-1"></use>
                </mask>
                <g id="Clip-2"></g>
                <polygon id="Fill-1" fill="black" mask="url(#mask-2)" points="-4.0077 7.76525 7.85314 7.76525 7.85314 -4.95529 -4.0077 -4.95529"></polygon>
            </g>
            <g id="Group-6" transform="translate(140.000000, 11.000000)">
                <mask id="mask-4" fill="white">
                    <use xlink:href="#path-3"></use>
                </mask>
                <g id="Clip-5"></g>
                <polygon id="Fill-4" fill="black" mask="url(#mask-4)" points="-4.7699 7.76525 7.09094 7.76525 7.09094 -4.95464 -4.7699 -4.95464"></polygon>
            </g>
            <g id="Group-9" transform="translate(142.000000, 11.000000)">
                <mask id="mask-6" fill="white">
                    <use xlink:href="#path-5"></use>
                </mask>
                <g id="Clip-8"></g>
                <polygon id="Fill-7" fill="black" mask="url(#mask-6)" points="-4.5217 7.76525 6.94145 7.76525 6.94145 -4.95529 -4.5217 -4.95529"></polygon>
            </g>
            <g id="Group-12" transform="translate(144.000000, 11.000000)">
                <mask id="mask-8" fill="white">
                    <use xlink:href="#path-7"></use>
                </mask>
                <g id="Clip-11"></g>
                <polygon id="Fill-10" fill="black" mask="url(#mask-8)" points="-4.8442 7.76525 6.62025 7.76525 6.62025 -4.95529 -4.8442 -4.95529"></polygon>
            </g>
            <g id="Group-15" transform="translate(145.000000, 11.000000)">
                <mask id="mask-10" fill="white">
                    <use xlink:href="#path-9"></use>
                </mask>
                <g id="Clip-14"></g>
                <polygon id="Fill-13" fill="black" mask="url(#mask-10)" points="-4.5935 7.76525 7.50569 7.76525 7.50569 -4.95529 -4.5935 -4.95529"></polygon>
            </g>
            <g id="Group-18" transform="translate(147.000000, 11.000000)">
                <mask id="mask-12" fill="white">
                    <use xlink:href="#path-11"></use>
                </mask>
                <g id="Clip-17"></g>
                <polygon id="Fill-16" fill="black" mask="url(#mask-12)" points="-4.585 7.76525 8.06409 7.76525 8.06409 -4.95529 -4.585 -4.95529"></polygon>
            </g>
            <g id="Group-21" transform="translate(150.000000, 11.000000)">
                <mask id="mask-14" fill="white">
                    <use xlink:href="#path-13"></use>
                </mask>
                <g id="Clip-20"></g>
                <polygon id="Fill-19" fill="black" mask="url(#mask-14)" points="-4.8102 7.76525 7.05064 7.76525 7.05064 -4.95464 -4.8102 -4.95464"></polygon>
            </g>
            <g id="Group-24" transform="translate(152.000000, 11.000000)">
                <mask id="mask-16" fill="white">
                    <use xlink:href="#path-15"></use>
                </mask>
                <g id="Clip-23"></g>
                <polygon id="Fill-22" fill="black" mask="url(#mask-16)" points="-4.5724 7.76525 7.28844 7.76525 7.28844 -4.95464 -4.5724 -4.95464"></polygon>
            </g>
            <g id="Group-27" transform="translate(154.000000, 11.000000)">
                <mask id="mask-18" fill="white">
                    <use xlink:href="#path-17"></use>
                </mask>
                <g id="Clip-26"></g>
                <polygon id="Fill-25" fill="black" mask="url(#mask-18)" points="-4.3197 7.76525 7.53984 7.76525 7.53984 -4.95529 -4.3197 -4.95529"></polygon>
            </g>
            <g id="Group-30" transform="translate(166.000000, 10.000000)">
                <mask id="mask-20" fill="white">
                    <use xlink:href="#path-19"></use>
                </mask>
                <g id="Clip-29"></g>
                <polygon id="Fill-28" fill="black" mask="url(#mask-20)" points="-4.3682 17.792325 7.80241 17.792325 7.80241 -4.252825 -4.3682 -4.252825"></polygon>
            </g>
            <g id="Group-33" transform="translate(170.000000, 15.000000)">
                <mask id="mask-22" fill="white">
                    <use xlink:href="#path-21"></use>
                </mask>
                <g id="Clip-32"></g>
                <polygon id="Fill-31" fill="black" mask="url(#mask-22)" points="-4.6213 13 12.84663 13 12.84663 -4.94357 -4.6213 -4.94357"></polygon>
            </g>
            <g id="Group-36" transform="translate(179.000000, 11.000000)">
                <mask id="mask-24" fill="white">
                    <use xlink:href="#path-23"></use>
                </mask>
                <g id="Clip-35"></g>
                <polygon id="Fill-34" fill="black" mask="url(#mask-24)" points="-4.6546 16.792325 6.48239 16.792325 6.48239 -4.551915 -4.6546 -4.551915"></polygon>
            </g>
            <g id="Group-39" transform="translate(182.000000, 15.000000)">
                <mask id="mask-26" fill="white">
                    <use xlink:href="#path-25"></use>
                </mask>
                <g id="Clip-38"></g>
                <polygon id="Fill-37" fill="black" mask="url(#mask-26)" points="-4.1403 13 10.53685 13 10.53685 -4.94357 -4.1403 -4.94357"></polygon>
            </g>
            <g id="Group-42" transform="translate(189.000000, 12.000000)">
                <mask id="mask-28" fill="white">
                    <use xlink:href="#path-27"></use>
                </mask>
                <g id="Clip-41"></g>
                <polygon id="Fill-40" fill="black" mask="url(#mask-28)" points="-4.9386 15.974041 9.89359 15.974041 9.89359 -4.409709 -4.9386 -4.409709"></polygon>
            </g>
            <g id="Group-45" transform="translate(124.000000, 7.000000)">
                <mask id="mask-30" fill="white">
                    <use xlink:href="#path-29"></use>
                </mask>
                <g id="Clip-44"></g>
                <polygon id="Fill-43" fill="black" mask="url(#mask-30)" points="-4.0749 20.740406 17.21744 20.740406 17.21744 -4.341984 -4.0749 -4.341984"></polygon>
            </g>
            <g id="Group-48" transform="translate(147.000000, 0.000000)">
                <mask id="mask-32" fill="white">
                    <use xlink:href="#path-31"></use>
                </mask>
                <g id="Clip-47"></g>
                <polygon id="Fill-46" fill="black" mask="url(#mask-32)" points="-4.3611 27.714447 20.91069 27.714447 20.91069 -5.000003 -4.3611 -5.000003"></polygon>
            </g>
            <g id="Group-51" transform="translate(110.000000, 7.000000)">
                <mask id="mask-34" fill="white">
                    <use xlink:href="#path-33"></use>
                </mask>
                <g id="Clip-50"></g>
                <polygon id="Fill-49" fill="black" mask="url(#mask-34)" points="-4.1064 20.792325 18.99478 20.792325 18.99478 -4.939055 -4.1064 -4.939055"></polygon>
            </g>
            <g id="Group-54" transform="translate(137.000000, 14.000000)">
                <mask id="mask-36" fill="white">
                    <use xlink:href="#path-35"></use>
                </mask>
                <g id="Clip-53"></g>
                <polygon id="Fill-52" fill="black" mask="url(#mask-36)" points="-4.749 13.740406 27.29303 13.740406 27.29303 -4.592554 -4.749 -4.592554"></polygon>
            </g>
            <g id="Group-57" transform="translate(14.000000, 10.000000)">
                <mask id="mask-38" fill="white">
                    <use xlink:href="#path-37"></use>
                </mask>
                <g id="Clip-56"></g>
                <polygon id="Fill-55" fill="black" mask="url(#mask-38)" points="-4.388852 17.5587 28.805108 17.5587 28.805108 -4.54933 -4.388852 -4.54933"></polygon>
            </g>
            <g id="Group-60" transform="translate(40.000000, 10.000000)">
                <mask id="mask-40" fill="white">
                    <use xlink:href="#path-39"></use>
                </mask>
                <g id="Clip-59"></g>
                <polygon id="Fill-58" fill="black" mask="url(#mask-40)" points="-4.50466 17.982192 50.97513 17.982192 50.97513 -4.982188 -4.50466 -4.982188"></polygon>
            </g>
            <g id="Group-63" transform="translate(0.000000, 10.000000)">
                <mask id="mask-42" fill="white">
                    <use xlink:href="#path-41"></use>
                </mask>
                <g id="Clip-62"></g>
                <polygon fill="#F87E21" mask="url(#mask-42)" points="-5 18 17.39358 18 17.39358 -5 -5 -5"></polygon>
            </g>
            <g id="Group-66" transform="translate(14.000000, 10.000000)">
                <mask id="mask-44" fill="white">
                    <use xlink:href="#path-43"></use>
                </mask>
                <g id="Clip-65"></g>
                <polygon id="Fill-64" fill="black" mask="url(#mask-44)" points="-4.545075 17.749879 28.987365 17.749879 28.987365 -4.713201 -4.545075 -4.713201"></polygon>
            </g>
            <g id="Group-69" transform="translate(96.000000, 14.000000)">
                <mask id="mask-46" fill="white">
                    <use xlink:href="#path-45"></use>
                </mask>
                <g id="Clip-68"></g>
                <polygon id="Fill-67" fill="black" mask="url(#mask-46)" points="-5 10 9.89362 10 9.89362 -5 -5 -5"></polygon>
            </g>
        </g>
    </g>
</svg>