<svg width="247px" height="36px" viewBox="0 0 247 36" version="1.1" xmlns="http://www.w3.org/2000/svg" xmlns:xlink="http://www.w3.org/1999/xlink">
    <!-- Generator: Sketch 46.2 (44496) - http://www.bohemiancoding.com/sketch -->
    <desc>Created with Sketch.</desc>
    <defs></defs>
    <g id="Fire" stroke="none" stroke-width="1" fill="none" fill-rule="evenodd">
        <g transform="translate(-25.000000, -12.000000)" id="Group-7">
            <g transform="translate(25.000000, 12.000000)">
                <path d="M28.38955,16.581548 C28.23585,16.051748 27.6196,15.8811856 27.2281,16.2238198 C26.2218,17.1098385 25.10965,17.8162385 23.9134,18.3309445 C23.61035,9.11453809 17.0636,1.46036241 8.35055,0.00982743457 C7.74735,-0.0897930733 7.29785,0.58792826 7.61105,1.13885986 C9.81505,5.03613488 9.9963,9.75150558 8.24905,13.7317977 C7.39935,12.5091824 6.76135,11.1582679 6.34955,9.70471413 C6.20455,9.19453638 5.5941,8.98472955 5.1881,9.33943894 C1.89225,12.2118302 0,16.427589 0,20.9059837 C0,29.3344824 6.56125,36 14.5,36 C22.4953,36 29,29.2303337 29,20.9059837 C29,19.4328077 28.7941,17.9777445 28.38955,16.581548 Z M14.5,35.5813953 C11.2786359,35.5813953 8.82608696,32.7881936 8.82608696,29.3410702 C8.82608696,24.3039004 12.21625,19.5580367 16.849,18.4186047 C14.2049565,20.5002303 14.3496413,24.5390694 15.3922228,26.220149 C16.1057174,25.5935372 16.7397772,24.9107883 16.849,23.8836305 C19.2845272,24.9092711 20.173913,27.1213776 20.173913,29.512516 C20.173913,32.9596395 17.7242011,35.5813953 14.5,35.5813953 Z" id="Shape-Copy-6" fill="#F87E21" fill-rule="nonzero"></path>
                <path d="M53.2920383,14.607978 L53.8626561,10.5845942 L40,10.5845942 L40,34.4154058 L45.5047835,34.4154058 L45.5047835,24.9587345 L52.2850657,24.9587345 L52.2850657,20.9353508 L45.5047835,20.9353508 L45.5047835,14.607978 L53.2920383,14.607978 Z M61.8513053,34.4154058 L61.8513053,10.5845942 L56.3465218,10.5845942 L56.3465218,34.4154058 L61.8513053,34.4154058 Z M73.867845,25.3026135 L71.7196368,25.3026135 L71.7196368,34.4154058 L66.2148533,34.4154058 L66.2148533,10.5845942 L73.8342792,10.5845942 C80.1446408,10.5845942 83.4005189,12.8885832 83.4005189,17.8404402 C83.4005189,20.9697387 81.9571915,22.8610729 78.9362737,24.2709766 L84.8438463,34.4154058 L78.6341819,34.4154058 L73.867845,25.3026135 Z M71.7196368,21.4167813 L74.0356737,21.4167813 C76.452408,21.4167813 77.7279066,20.3507565 77.7279066,17.8404402 C77.7279066,15.5364512 76.4188422,14.5392022 73.7000162,14.5392022 L71.7196368,14.5392022 L71.7196368,21.4167813 Z M100.61975,14.607978 L101.190368,10.5845942 L86.924923,10.5845942 L86.924923,34.4154058 L101.190368,34.4154058 L101.190368,30.3576341 L92.4297065,30.3576341 L92.4297065,24.2709766 L99.5792119,24.2709766 L99.5792119,20.3163686 L92.4297065,20.3163686 L92.4297065,14.607978 L100.61975,14.607978 Z M127.908708,14.9174691 L128.44576,10.5845942 L110.65591,10.5845942 L110.65591,14.9174691 L116.66418,14.9174691 L116.66418,34.4154058 L122.168964,34.4154058 L122.168964,14.9174691 L127.908708,14.9174691 Z M138.314091,25.3026135 L136.165883,25.3026135 L136.165883,34.4154058 L130.661099,34.4154058 L130.661099,10.5845942 L138.280525,10.5845942 C144.590887,10.5845942 147.846765,12.8885832 147.846765,17.8404402 C147.846765,20.9697387 146.403438,22.8610729 143.38252,24.2709766 L149.290092,34.4154058 L143.080428,34.4154058 L138.314091,25.3026135 Z M136.165883,21.4167813 L138.48192,21.4167813 C140.898654,21.4167813 142.174153,20.3507565 142.174153,17.8404402 C142.174153,15.5364512 140.865088,14.5392022 138.146262,14.5392022 L136.165883,14.5392022 L136.165883,21.4167813 Z M162.414302,29.2916094 L155.63402,29.2916094 L154.459218,34.4154058 L148.75304,34.4154058 L155.768283,10.5845942 L162.447868,10.5845942 L169.46311,34.4154058 L163.622669,34.4154058 L162.414302,29.2916094 Z M161.474461,25.1994498 L159.024161,14.6767538 L156.573861,25.1994498 L161.474461,25.1994498 Z M179.566402,10 C182.721583,10 184.836225,10.9628611 186.749473,12.6134801 L184.064213,15.8803301 C182.82228,14.7799175 181.513216,14.1609354 179.902059,14.1609354 C176.948273,14.1609354 174.867196,16.6024759 174.867196,22.4484182 C174.867196,28.1911967 176.914707,30.6327373 180.002757,30.6327373 C181.848873,30.6327373 183.191503,29.7042641 184.534133,28.6382393 L187.017999,31.9394773 C185.50754,33.5213205 182.956543,35 179.734231,35 C173.356737,35 169.093887,30.5983494 169.093887,22.4484182 C169.093887,14.4704264 173.591698,10 179.566402,10 Z M194.973083,34.4154058 L194.973083,10.5845942 L189.468299,10.5845942 L189.468299,34.4154058 L194.973083,34.4154058 Z M200.914221,21.2792297 L208.332252,10.5845942 L202.525377,10.5845942 L195.140911,21.6918845 L202.558943,34.4154058 L208.936436,34.4154058 L200.914221,21.2792297 Z M224.410248,14.607978 L224.980866,10.5845942 L210.715421,10.5845942 L210.715421,34.4154058 L224.980866,34.4154058 L224.980866,30.3576341 L216.220204,30.3576341 L216.220204,24.2709766 L223.36971,24.2709766 L223.36971,20.3163686 L216.220204,20.3163686 L216.220204,14.607978 L224.410248,14.607978 Z M236.023999,25.3026135 L233.87579,25.3026135 L233.87579,34.4154058 L228.371007,34.4154058 L228.371007,10.5845942 L235.990433,10.5845942 C242.300795,10.5845942 245.556673,12.8885832 245.556673,17.8404402 C245.556673,20.9697387 244.113345,22.8610729 241.092427,24.2709766 L247,34.4154058 L240.790336,34.4154058 L236.023999,25.3026135 Z M233.87579,21.4167813 L236.191827,21.4167813 C238.608562,21.4167813 239.88406,20.3507565 239.88406,17.8404402 C239.88406,15.5364512 238.574996,14.5392022 235.85617,14.5392022 L233.87579,14.5392022 L233.87579,21.4167813 Z" id="FIRE-TRACKER-Copy" fill="#F3AA27"></path>
            </g>
        </g>
    </g>
</svg>

