<svg width="24px" height="30px" viewBox="0 0 24 30" version="1.1" xmlns="http://www.w3.org/2000/svg" xmlns:xlink="http://www.w3.org/1999/xlink">
    <!-- Generator: Sketch 47.1 (45422) - http://www.bohemiancoding.com/sketch -->
    <desc>Created with Sketch.</desc>
    <defs></defs>
    <g id="Archive" stroke="none" stroke-width="1" fill="none" fill-rule="evenodd">
        <g id="Archive---Mobile" transform="translate(-15.000000, -15.000000)" fill-rule="nonzero" fill="#F87E21">
            <g id="Group-7-Copy" transform="translate(15.000000, 15.000000)">
                <path d="M22.9874899,13.4263546 C22.8630364,12.9973668 22.3640486,12.8592596 22.0470445,13.1366962 C21.2322267,13.8541203 20.3317004,14.4261041 19.3630769,14.84287 C19.1176923,7.38019279 13.8166802,1.18247968 6.76157895,0.0079574369 C6.27315789,-0.0727069419 5.90919028,0.476055272 6.16279352,0.92215373 C7.94740891,4.07784201 8.09417004,7.89595594 6.67939271,11.1188645 C5.99137652,10.1288926 5.47477733,9.03503474 5.14133603,7.85806812 C5.02392713,7.44496873 4.52963563,7.27508466 4.20089069,7.56229873 C1.53218623,9.88812166 0,13.3016915 0,16.927922 C0,23.7526173 5.31275304,29.1497976 11.7408907,29.1497976 C18.2148178,29.1497976 23.4817814,23.6682864 23.4817814,16.927922 C23.4817814,15.7350669 23.3150607,14.5568781 22.9874899,13.4263546 Z M11.7408907,28.8108464 C9.13249868,28.8108464 7.14662911,26.5491447 7.14662911,23.7579516 C7.14662911,19.6792716 9.8917004,15.836467 13.642915,14.9138499 C11.5019891,16.5993767 11.6191428,19.8696919 12.4633383,21.2308899 C13.0410667,20.7235119 13.5544754,20.1706788 13.642915,19.338972 C15.6150018,20.1694503 16.3351523,21.9606296 16.3351523,23.8967741 C16.3351523,26.6879672 14.3515798,28.8108464 11.7408907,28.8108464 Z" id="Shape-Copy-6"></path>
            </g>
        </g>
    </g>
</svg>
