<svg width="60px" height="60px" viewBox="0 0 60 59" version="1.1" xmlns="http://www.w3.org/2000/svg" xmlns:xlink="http://www.w3.org/1999/xlink">
    <!-- Generator: Sketch 46.2 (44496) - http://www.bohemiancoding.com/sketch -->
    <desc>Created with Sketch.</desc>
    <defs></defs>
    <g id="-" stroke="none" stroke-width="1" fill="none" fill-rule="evenodd">
        <g id="Homepage-Dark-with-Sponsor" transform="translate(-971.000000, -663.000000)">
            <g id="graph-bar-increase.2.3.1" transform="translate(971.000000, 662.000000)">
                <g id="Filled_Icon" transform="translate(0.000000, 1.000000)" fill-rule="nonzero" fill="#F74623">
                    <g id="Group">
                        <path d="M58.75,56.5 L57.5,56.5 L57.5,20.25 C57.5,19.56 56.9375,19 56.25,19 L48.75,19 C48.06,19 47.5,19.56 47.5,20.25 L47.5,56.5 L42.5,56.5 L42.5,30.25 C42.5,29.56 41.9375,29 41.25,29 L33.75,29 C33.06,29 32.5,29.56 32.5,30.25 L32.5,56.5 L27.5,56.5 L27.5,40.25 C27.5,39.56 26.9375,39 26.25,39 L18.75,39 C18.06,39 17.5,39.56 17.5,40.25 L17.5,56.5 L12.5,56.5 L12.5,50.25 C12.5,49.56 11.9375,49 11.25,49 L3.75,49 C3.06,49 2.5,49.56 2.5,50.25 L2.5,56.5 L1.25,56.5 C0.56,56.5 0,57.06 0,57.75 C0,58.4375 0.56,59 1.25,59 L58.75,59 C59.4375,59 60,58.4375 60,57.75 C60,57.06 59.4375,56.5 58.75,56.5 Z" id="Shape"></path>
                        <path d="M8.1925,33.7175 L50.9225,5.23 L50.01,12.595 C49.925,13.28 50.41,13.905 51.0975,13.99 C51.7525,14.085 52.4025,13.6075 52.4925,12.905 L53.7425,2.835 C53.8175,2.22 53.3625,1.5375 52.6925,1.4575 C52.6225,1.43 42.725,0.2675 42.6475,0.26 C41.95,0.18 41.34,0.67 41.2575,1.3575 C41.1775,2.0425 41.6675,2.665 42.355,2.7425 L48.98,3.525 L6.8075,31.6375 C6.23,32.0225 6.0775,32.7975 6.46,33.3725 C6.84,33.9475 7.6225,34.1 8.1925,33.7175 Z" id="Shape"></path>
                    </g>
                </g>
                <g id="Invisibla_Shape">
                    <rect id="Rectangle-path" x="0" y="0" width="60" height="60"></rect>
                </g>
            </g>
        </g>
    </g>
</svg>

