<svg width="60px" height="60px" viewBox="0 0 59 50" version="1.1" xmlns="http://www.w3.org/2000/svg" xmlns:xlink="http://www.w3.org/1999/xlink">
    <!-- Generator: Sketch 46.2 (44496) - http://www.bohemiancoding.com/sketch -->
    <desc>Created with Sketch.</desc>
    <defs></defs>
    <g id="-" stroke="none" stroke-width="1" fill="none" fill-rule="evenodd">
        <g id="Homepage-Dark-with-Sponsor" transform="translate(-970.000000, -580.000000)">
            <g id="Group-9" transform="translate(970.000000, 562.000000)">
                <path d="M57.7708333,65.5 L56.5416667,65.5 L56.5416667,39.25 C56.5416667,38.56 55.9885417,38 55.3125,38 L47.9375,38 C47.259,38 46.7083333,38.56 46.7083333,39.25 L46.7083333,65.5 L41.7916667,65.5 L41.7916667,39.25 C41.7916667,38.56 41.2385417,38 40.5625,38 L33.1875,38 C32.509,38 31.9583333,38.56 31.9583333,39.25 L31.9583333,65.5 L27.0416667,65.5 L27.0416667,39.25 C27.0416667,38.56 26.4885417,38 25.8125,38 L18.4375,38 C17.759,38 17.2083333,38.56 17.2083333,39.25 L17.2083333,65.5 L12.2916667,65.5 L12.2916667,39.25 C12.2916667,38.56 11.7385417,38 11.0625,38 L3.6875,38 C3.009,38 2.45833333,38.56 2.45833333,39.25 L2.45833333,65.5 L1.22916667,65.5 C0.550666667,65.5 0,66.06 0,66.75 C0,67.4375 0.550666667,68 1.22916667,68 L57.7708333,68 C58.446875,68 59,67.4375 59,66.75 C59,66.06 58.446875,65.5 57.7708333,65.5 Z" id="Shape" fill="#F3AA27" fill-rule="nonzero"></path>
                <path d="M48.3432209,40.7124887 L41.7082953,41.5737271 C41.0304543,41.6615588 40.5529969,42.2739409 40.6420563,42.9448774 C40.726168,43.5670185 41.2852631,44.0720507 42.0298987,43.9915383 L51.925388,42.7082198 C51.9402313,42.7033402 51.9526006,42.6935811 51.9674439,42.6911414 C52.6403371,42.5764722 53.0658432,41.9640902 52.991627,41.3419491 L51.7546908,31.6511863 C51.6705792,30.9826896 51.0719021,30.5069346 50.3717962,30.5923265 C49.6939552,30.6752787 49.2115501,31.2852209 49.2981356,31.9537177 L50.1961513,38.997331 L7.92262085,11.2059214 C7.35115634,10.830197 6.58425592,10.9839024 6.20822733,11.5426096 C5.82972486,12.1037564 5.98063107,12.8600849 6.55209558,13.2333695 L48.3432209,40.7124887 Z" id="Shape" fill="#F3AA27" fill-rule="nonzero" transform="translate(29.500000, 27.500000) rotate(-33.000000) translate(-29.500000, -27.500000) "></path>
                <polygon id="Rectangle-path" points="0 9 59 9 59 68 9.83333333 68 0 68"></polygon>
            </g>
        </g>
    </g>
</svg>

