<?xml version="1.0" encoding="UTF-8" standalone="no"?>
<svg
   xmlns:dc="http://purl.org/dc/elements/1.1/"
   xmlns:cc="http://creativecommons.org/ns#"
   xmlns:rdf="http://www.w3.org/1999/02/22-rdf-syntax-ns#"
   xmlns:svg="http://www.w3.org/2000/svg"
   xmlns="http://www.w3.org/2000/svg"
   xmlns:sodipodi="http://sodipodi.sourceforge.net/DTD/sodipodi-0.dtd"
   xmlns:inkscape="http://www.inkscape.org/namespaces/inkscape"
   width="60px"
   height="60px"
   viewBox="0 0 60 59"
   version="1.1"
   id="svg3414"
   inkscape:version="0.91 r13725"
   sodipodi:docname="below-average.svg">
  <metadata
     id="metadata3432">
    <rdf:RDF>
      <cc:Work
         rdf:about="">
        <dc:format>image/svg+xml</dc:format>
        <dc:type
           rdf:resource="http://purl.org/dc/dcmitype/StillImage" />
      </cc:Work>
    </rdf:RDF>
  </metadata>
  <sodipodi:namedview
     pagecolor="#ffffff"
     bordercolor="#666666"
     borderopacity="1"
     objecttolerance="10"
     gridtolerance="10"
     guidetolerance="10"
     inkscape:pageopacity="0"
     inkscape:pageshadow="2"
     inkscape:window-width="1442"
     inkscape:window-height="840"
     id="namedview3430"
     showgrid="false"
     inkscape:zoom="5.3833333"
     inkscape:cx="30"
     inkscape:cy="30"
     inkscape:window-x="0"
     inkscape:window-y="0"
     inkscape:window-maximized="0"
     inkscape:current-layer="Group" />
  <!-- Generator: Sketch 46.2 (44496) - http://www.bohemiancoding.com/sketch -->
  <desc
     id="desc3416">Created with Sketch.</desc>
  <defs
     id="defs3418" />
  <g
     id="-"
     transform="matrix(-1,0,0,1,60,0)"
     style="fill:none;fill-rule:evenodd;stroke:none;stroke-width:1">
    <g
       id="Homepage-Dark-with-Sponsor"
       transform="translate(-971,-663)">
      <g
         id="graph-bar-increase.2.3.1"
         transform="translate(971,662)">
        <g
           id="Filled_Icon"
           transform="translate(0,1)"
           style="fill:#51a53f;fill-rule:nonzero">
          <g
             id="Group">
            <path
               d="M 58.75,56.5 57.5,56.5 57.5,20.25 C 57.5,19.56 56.9375,19 56.25,19 L 48.75,19 C 48.06,19 47.5,19.56 47.5,20.25 L 47.5,56.5 42.5,56.5 42.5,30.25 C 42.5,29.56 41.9375,29 41.25,29 L 33.75,29 C 33.06,29 32.5,29.56 32.5,30.25 L 32.5,56.5 27.5,56.5 27.5,40.25 C 27.5,39.56 26.9375,39 26.25,39 L 18.75,39 C 18.06,39 17.5,39.56 17.5,40.25 L 17.5,56.5 12.5,56.5 12.5,50.25 C 12.5,49.56 11.9375,49 11.25,49 L 3.75,49 C 3.06,49 2.5,49.56 2.5,50.25 L 2.5,56.5 1.25,56.5 C 0.56,56.5 0,57.06 0,57.75 0,58.4375 0.56,59 1.25,59 L 58.75,59 C 59.4375,59 60,58.4375 60,57.75 60,57.06 59.4375,56.5 58.75,56.5 Z"
               id="Shape"
               inkscape:connector-curvature="0" />
            <path
               d="M 47.535204,2.691103 4.8052026,31.178603 5.7177026,23.813603 C 5.8027012,23.128603 5.3177026,22.503603 4.6302026,22.418603 3.9752026,22.323603 3.3252026,22.801103 3.2352026,23.503603 L 1.9852026,33.573603 C 1.9102026,34.188603 2.3652026,34.871103 3.0352026,34.951103 3.1052026,34.978603 13.002702,36.141103 13.080202,36.148603 13.777702,36.228603 14.387702,35.738603 14.470202,35.051103 14.550202,34.366103 14.060202,33.743603 13.372702,33.666103 L 6.7477012,32.883603 48.920204,4.771103 C 49.497704,4.386103 49.650204,3.611103 49.267704,3.036103 48.887704,2.461103 48.105204,2.308603 47.535204,2.691103 Z"
               id="path3426"
               inkscape:connector-curvature="0" />
          </g>
        </g>
        <g
           id="Invisibla_Shape">
          <rect
             id="Rectangle-path"
             x="0"
             y="0"
             width="60"
             height="60" />
        </g>
      </g>
    </g>
  </g>
</svg>
