<svg width="15px" height="15px" viewBox="0 0 15 15" version="1.1" xmlns="http://www.w3.org/2000/svg" xmlns:xlink="http://www.w3.org/1999/xlink">
    <!-- Generator: Sketch 46.2 (44496) - http://www.bohemiancoding.com/sketch -->
    <desc>Created with Sketch.</desc>
    <defs></defs>
    <g id="Archive" stroke="none" stroke-width="1" fill="none" fill-rule="evenodd">
        <g transform="translate(-741.000000, -857.000000)" id="Group-8-Copy-2">
            <g transform="translate(170.000000, 811.000000)">
                <g id="Group-6" transform="translate(0.000000, 46.000000)">
                    <g id="Group-5-Copy-2" transform="translate(571.000000, 0.000000)">
                        <g id="calendar-2.3.3.1">
                            <g id="Filled_Icons_1_" fill-rule="nonzero" fill="#F3AA27">
                                <g id="Filled_Icons">
                                    <g id="Group">
                                        <rect id="Rectangle-path" x="7.5" y="10" width="2.5" height="1.875"></rect>
                                        <rect id="Rectangle-path" x="4.375" y="10" width="2.5" height="1.875"></rect>
                                        <rect id="Rectangle-path" x="7.5" y="7.5" width="2.5" height="1.875"></rect>
                                        <rect id="Rectangle-path" x="4.375" y="7.5" width="2.5" height="1.875"></rect>
                                        <path d="M0,14.6875 C0,14.86 0.14,15 0.3125,15 L14.6875,15 C14.86,15 15,14.86 15,14.6875 L15,5 L0,5 L0,14.6875 Z M1.5625,10 C1.39,10 1.25,9.86 1.25,9.6875 C1.25,9.515 1.39,9.375 1.5625,9.375 L3.75,9.375 L3.75,7.5 L1.5625,7.5 C1.39,7.5 1.25,7.36 1.25,7.1875 C1.25,7.015 1.39,6.875 1.5625,6.875 L3.75,6.875 L3.75,5.9375 C3.75,5.765 3.89,5.625 4.0625,5.625 C4.235,5.625 4.375,5.765 4.375,5.9375 L4.375,6.875 L6.875,6.875 L6.875,5.9375 C6.875,5.765 7.015,5.625 7.1875,5.625 C7.36,5.625 7.5,5.765 7.5,5.9375 L7.5,6.875 L10,6.875 L10,5.9375 C10,5.765 10.14,5.625 10.3125,5.625 C10.485,5.625 10.625,5.765 10.625,5.9375 L10.625,6.875 L13.4375,6.875 C13.61,6.875 13.75,7.015 13.75,7.1875 C13.75,7.36 13.61,7.5 13.4375,7.5 L10.625,7.5 L10.625,9.375 L13.4375,9.375 C13.61,9.375 13.75,9.515 13.75,9.6875 C13.75,9.86 13.61,10 13.4375,10 L10.625,10 L10.625,11.875 L13.4375,11.875 C13.61,11.875 13.75,12.015 13.75,12.1875 C13.75,12.36 13.61,12.5 13.4375,12.5 L10.625,12.5 L10.625,13.4375 C10.625,13.61 10.485,13.75 10.3125,13.75 C10.14,13.75 10,13.61 10,13.4375 L10,12.5 L7.5,12.5 L7.5,13.4375 C7.5,13.61 7.36,13.75 7.1875,13.75 C7.015,13.75 6.875,13.61 6.875,13.4375 L6.875,12.5 L4.375,12.5 L4.375,13.4375 C4.375,13.61 4.235,13.75 4.0625,13.75 C3.89,13.75 3.75,13.61 3.75,13.4375 L3.75,12.5 L1.5625,12.5 C1.39,12.5 1.25,12.36 1.25,12.1875 C1.25,12.015 1.39,11.875 1.5625,11.875 L3.75,11.875 L3.75,10 L1.5625,10 Z" id="Shape"></path>
                                        <path d="M14.6875,1.25 L12.5,1.25 L12.5,0.3125 C12.5,0.14 12.36,0 12.1875,0 L10.3125,0 C10.14,0 10,0.14 10,0.3125 L10,1.25 L5,1.25 L5,0.3125 C5,0.14 4.86,0 4.6875,0 L2.8125,0 C2.64,0 2.5,0.14 2.5,0.3125 L2.5,1.25 L0.3125,1.25 C0.14,1.25 0,1.39 0,1.5625 L0,4.375 L15,4.375 L15,1.5625 C15,1.39 14.86,1.25 14.6875,1.25 Z M4.375,2.5 L3.125,2.5 L3.125,0.625 L4.375,0.625 L4.375,2.5 Z M11.875,2.5 L10.625,2.5 L10.625,0.625 L11.875,0.625 L11.875,2.5 Z" id="Shape"></path>
                                    </g>
                                </g>
                            </g>
                            <g id="Invisible_Shape">
                                <rect id="Rectangle-path" x="0" y="0" width="15" height="15"></rect>
                            </g>
                        </g>
                    </g>
                </g>
            </g>
        </g>
    </g>
</svg>