<svg width="30px" height="30px" viewBox="0 0 30 30" version="1.1" xmlns="http://www.w3.org/2000/svg" xmlns:xlink="http://www.w3.org/1999/xlink">
    <!-- Generator: Sketch 47 (45396) - http://www.bohemiancoding.com/sketch -->
    <desc>Created with Sketch.</desc>
    <defs></defs>
    <g id="Embed" stroke="none" stroke-width="1" fill="none" fill-rule="evenodd">
        <g transform="translate(-15.000000, -181.000000)" id="calendar">
            <g transform="translate(15.000000, 181.000000)">
                <g id="Outline_Icons_1_" fill-rule="nonzero" fill="#F3AA27">
                    <g id="Outline_Icons">
                        <g id="Group">
                            <path d="M28.75,3.75 L28.75,28.75 L1.25,28.75 L1.25,3.75 L5.625,3.75 C5.97017797,3.75 6.25,3.47017797 6.25,3.125 C6.25,2.77982203 5.97017797,2.5 5.625,2.5 L0.625,2.5 C0.279822031,2.5 0,2.77982203 0,3.125 L0,29.375 C0,29.720178 0.279822031,30 0.625,30 L29.375,30 C29.720178,30 30,29.720178 30,29.375 L30,3.125 C30,2.77982203 29.720178,2.5 29.375,2.5 L24.375,2.5 C24.029822,2.5 23.75,2.77982203 23.75,3.125 C23.75,3.47017797 24.029822,3.75 24.375,3.75 L28.75,3.75 Z" id="Shape"></path>
                            <path d="M6.25,5 L8.75,5 L8.75,1.25 L6.25,1.25 L6.25,5 Z M5.625,0 L9.375,0 C9.72017797,0 10,0.279822031 10,0.625 L10,5.625 C10,5.97017797 9.72017797,6.25 9.375,6.25 L5.625,6.25 C5.27982203,6.25 5,5.97017797 5,5.625 L5,0.625 C5,0.279822031 5.27982203,0 5.625,0 Z" id="Rectangle-path"></path>
                            <path d="M21.25,5 L23.75,5 L23.75,1.25 L21.25,1.25 L21.25,5 Z M20.625,0 L24.375,0 C24.720178,0 25,0.279822031 25,0.625 L25,5.625 C25,5.97017797 24.720178,6.25 24.375,6.25 L20.625,6.25 C20.279822,6.25 20,5.97017797 20,5.625 L20,0.625 C20,0.279822031 20.279822,0 20.625,0 Z" id="Rectangle-path"></path>
                            <path d="M9.375,3.75 L20.625,3.75 C20.970178,3.75 21.25,3.47017797 21.25,3.125 C21.25,2.77982203 20.970178,2.5 20.625,2.5 L9.375,2.5 C9.02982203,2.5 8.75,2.77982203 8.75,3.125 C8.75,3.47017797 9.02982203,3.75 9.375,3.75 Z" id="Shape"></path>
                            <path d="M0.625,10 L29.375,10 C29.720178,10 30,9.72017797 30,9.375 C30,9.02982203 29.720178,8.75 29.375,8.75 L0.625,8.75 C0.279822031,8.75 0,9.02982203 0,9.375 C0,9.72017797 0.279822031,10 0.625,10 Z" id="Shape"></path>
                            <path d="M7.5,11.875 L7.5,26.875 C7.5,27.220178 7.77982203,27.5 8.125,27.5 C8.47017797,27.5 8.75,27.220178 8.75,26.875 L8.75,11.875 C8.75,11.529822 8.47017797,11.25 8.125,11.25 C7.77982203,11.25 7.5,11.529822 7.5,11.875 Z" id="Shape"></path>
                            <path d="M13.75,11.875 L13.75,26.875 C13.75,27.220178 14.029822,27.5 14.375,27.5 C14.720178,27.5 15,27.220178 15,26.875 L15,11.875 C15,11.529822 14.720178,11.25 14.375,11.25 C14.029822,11.25 13.75,11.529822 13.75,11.875 Z" id="Shape"></path>
                            <path d="M20,11.875 L20,26.875 C20,27.220178 20.279822,27.5 20.625,27.5 C20.970178,27.5 21.25,27.220178 21.25,26.875 L21.25,11.875 C21.25,11.529822 20.970178,11.25 20.625,11.25 C20.279822,11.25 20,11.529822 20,11.875 Z" id="Shape"></path>
                            <path d="M3.125,15 L26.875,15 C27.220178,15 27.5,14.720178 27.5,14.375 C27.5,14.029822 27.220178,13.75 26.875,13.75 L3.125,13.75 C2.77982203,13.75 2.5,14.029822 2.5,14.375 C2.5,14.720178 2.77982203,15 3.125,15 Z" id="Shape"></path>
                            <path d="M3.125,20 L26.875,20 C27.220178,20 27.5,19.720178 27.5,19.375 C27.5,19.029822 27.220178,18.75 26.875,18.75 L3.125,18.75 C2.77982203,18.75 2.5,19.029822 2.5,19.375 C2.5,19.720178 2.77982203,20 3.125,20 Z" id="Shape"></path>
                            <path d="M3.125,25 L26.875,25 C27.220178,25 27.5,24.720178 27.5,24.375 C27.5,24.029822 27.220178,23.75 26.875,23.75 L3.125,23.75 C2.77982203,23.75 2.5,24.029822 2.5,24.375 C2.5,24.720178 2.77982203,25 3.125,25 Z" id="Shape"></path>
                        </g>
                    </g>
                </g>
                <g id="Invisible_Shape">
                    <rect id="Rectangle-path" x="0" y="0" width="30" height="30"></rect>
                </g>
            </g>
        </g>
    </g>
</svg>

