<svg width="73px" height="32px" viewBox="0 0 73 32" version="1.1" xmlns="http://www.w3.org/2000/svg" xmlns:xlink="http://www.w3.org/1999/xlink">
    <!-- Generator: Sketch 47 (45396) - http://www.bohemiancoding.com/sketch -->
    <desc>Created with Sketch.</desc>
    <defs>
        <linearGradient x1="0%" y1="50%" x2="100%" y2="50%" id="linearGradient-1">
            <stop stop-color="#F74623" offset="0%"></stop>
            <stop stop-color="#51A53F" offset="100%"></stop>
        </linearGradient>
    </defs>
    <g id="Embed" stroke="none" stroke-width="1" fill="none" fill-rule="evenodd">
        <g transform="translate(-15.000000, -280.000000)" id="Group-2">
            <g transform="translate(15.000000, 280.000000)">
                <g id="Group-8">
                    <path d="M0,1 L2.5999999,1 L2.5999999,6 L0,6 L0,1 Z M3.63157895,1 L6.23157885,1 L6.23157885,6 L3.63157895,6 L3.63157895,1 Z M7.26315789,1 L9.8631578,1 L9.8631578,6 L7.26315789,6 L7.26315789,1 Z M10.8947368,1 L13.4947367,1 L13.4947367,6 L10.8947368,6 L10.8947368,1 Z M14.5263158,1 L17.1263157,1 L17.1263157,6 L14.5263158,6 L14.5263158,1 Z M18.1578947,1 L20.7578946,1 L20.7578946,6 L18.1578947,6 L18.1578947,1 Z M21.7894737,1 L24.3894736,1 L24.3894736,6 L21.7894737,6 L21.7894737,1 Z M25.4210526,1 L28.0210525,1 L28.0210525,6 L25.4210526,6 L25.4210526,1 Z M29.0526316,1 L31.6526315,1 L31.6526315,6 L29.0526316,6 L29.0526316,1 Z M32.6842105,1 L35.2842104,1 L35.2842104,6 L32.6842105,6 L32.6842105,1 Z M36.3157895,1 L38.9157894,1 L38.9157894,6 L36.3157895,6 L36.3157895,1 Z M39.9473684,1 L42.5473683,1 L42.5473683,6 L39.9473684,6 L39.9473684,1 Z M43.5789474,1 L46.1789473,1 L46.1789473,6 L43.5789474,6 L43.5789474,1 Z M47.2105263,1 L49.8105262,1 L49.8105262,6 L47.2105263,6 L47.2105263,1 Z M50.8421053,1 L53.4421052,1 L53.4421052,6 L50.8421053,6 L50.8421053,1 Z M54.4736842,1 L57.0736841,1 L57.0736841,6 L54.4736842,6 L54.4736842,1 Z M58.1052632,1 L60.7052631,1 L60.7052631,6 L58.1052632,6 L58.1052632,1 Z M61.7368421,1 L64.336842,1 L64.336842,6 L61.7368421,6 L61.7368421,1 Z M65.3684211,1 L67.968421,1 L67.968421,6 L65.3684211,6 L65.3684211,1 Z M69,1 L71.5999999,1 L71.5999999,6 L69,6 L69,1 Z M0,7.25 L2.5999999,7.25 L2.5999999,12.25 L0,12.25 L0,7.25 Z M3.63157895,7.25 L6.23157885,7.25 L6.23157885,12.25 L3.63157895,12.25 L3.63157895,7.25 Z M7.26315789,7.25 L9.8631578,7.25 L9.8631578,12.25 L7.26315789,12.25 L7.26315789,7.25 Z M10.8947368,7.25 L13.4947367,7.25 L13.4947367,12.25 L10.8947368,12.25 L10.8947368,7.25 Z M14.5263158,7.25 L17.1263157,7.25 L17.1263157,12.25 L14.5263158,12.25 L14.5263158,7.25 Z M18.1578947,7.25 L20.7578946,7.25 L20.7578946,12.25 L18.1578947,12.25 L18.1578947,7.25 Z M21.7894737,7.25 L24.3894736,7.25 L24.3894736,12.25 L21.7894737,12.25 L21.7894737,7.25 Z M25.4210526,7.25 L28.0210525,7.25 L28.0210525,12.25 L25.4210526,12.25 L25.4210526,7.25 Z M29.0526316,7.25 L31.6526315,7.25 L31.6526315,12.25 L29.0526316,12.25 L29.0526316,7.25 Z M32.6842105,7.25 L35.2842104,7.25 L35.2842104,12.25 L32.6842105,12.25 L32.6842105,7.25 Z M36.3157895,7.25 L38.9157894,7.25 L38.9157894,12.25 L36.3157895,12.25 L36.3157895,7.25 Z M39.9473684,7.25 L42.5473683,7.25 L42.5473683,12.25 L39.9473684,12.25 L39.9473684,7.25 Z M43.5789474,7.25 L46.1789473,7.25 L46.1789473,12.25 L43.5789474,12.25 L43.5789474,7.25 Z M47.2105263,7.25 L49.8105262,7.25 L49.8105262,12.25 L47.2105263,12.25 L47.2105263,7.25 Z M50.8421053,7.25 L53.4421052,7.25 L53.4421052,12.25 L50.8421053,12.25 L50.8421053,7.25 Z M54.4736842,7.25 L57.0736841,7.25 L57.0736841,12.25 L54.4736842,12.25 L54.4736842,7.25 Z M58.1052632,7.25 L60.7052631,7.25 L60.7052631,12.25 L58.1052632,12.25 L58.1052632,7.25 Z M61.7368421,7.25 L64.336842,7.25 L64.336842,12.25 L61.7368421,12.25 L61.7368421,7.25 Z M65.3684211,7.25 L67.968421,7.25 L67.968421,12.25 L65.3684211,12.25 L65.3684211,7.25 Z M69,7.25 L71.5999999,7.25 L71.5999999,12.25 L69,12.25 L69,7.25 Z M0,13.5 L2.5999999,13.5 L2.5999999,18.5 L0,18.5 L0,13.5 Z M3.63157895,13.5 L6.23157885,13.5 L6.23157885,18.5 L3.63157895,18.5 L3.63157895,13.5 Z M7.26315789,13.5 L9.8631578,13.5 L9.8631578,18.5 L7.26315789,18.5 L7.26315789,13.5 Z M10.8947368,13.5 L13.4947367,13.5 L13.4947367,18.5 L10.8947368,18.5 L10.8947368,13.5 Z M14.5263158,13.5 L17.1263157,13.5 L17.1263157,18.5 L14.5263158,18.5 L14.5263158,13.5 Z M18.1578947,13.5 L20.7578946,13.5 L20.7578946,18.5 L18.1578947,18.5 L18.1578947,13.5 Z M21.7894737,13.5 L24.3894736,13.5 L24.3894736,18.5 L21.7894737,18.5 L21.7894737,13.5 Z M25.4210526,13.5 L28.0210525,13.5 L28.0210525,18.5 L25.4210526,18.5 L25.4210526,13.5 Z M29.0526316,13.5 L31.6526315,13.5 L31.6526315,18.5 L29.0526316,18.5 L29.0526316,13.5 Z M32.6842105,13.5 L35.2842104,13.5 L35.2842104,18.5 L32.6842105,18.5 L32.6842105,13.5 Z M36.3157895,13.5 L38.9157894,13.5 L38.9157894,18.5 L36.3157895,18.5 L36.3157895,13.5 Z M39.9473684,13.5 L42.5473683,13.5 L42.5473683,18.5 L39.9473684,18.5 L39.9473684,13.5 Z M43.5789474,13.5 L46.1789473,13.5 L46.1789473,18.5 L43.5789474,18.5 L43.5789474,13.5 Z M47.2105263,13.5 L49.8105262,13.5 L49.8105262,18.5 L47.2105263,18.5 L47.2105263,13.5 Z M50.8421053,13.5 L53.4421052,13.5 L53.4421052,18.5 L50.8421053,18.5 L50.8421053,13.5 Z M54.4736842,13.5 L57.0736841,13.5 L57.0736841,18.5 L54.4736842,18.5 L54.4736842,13.5 Z M58.1052632,13.5 L60.7052631,13.5 L60.7052631,18.5 L58.1052632,18.5 L58.1052632,13.5 Z M61.7368421,13.5 L64.336842,13.5 L64.336842,18.5 L61.7368421,18.5 L61.7368421,13.5 Z M65.3684211,13.5 L67.968421,13.5 L67.968421,18.5 L65.3684211,18.5 L65.3684211,13.5 Z M69,13.5 L71.5999999,13.5 L71.5999999,18.5 L69,18.5 L69,13.5 Z M0,19.75 L2.5999999,19.75 L2.5999999,24.75 L0,24.75 L0,19.75 Z M3.63157895,19.75 L6.23157885,19.75 L6.23157885,24.75 L3.63157895,24.75 L3.63157895,19.75 Z M7.26315789,19.75 L9.8631578,19.75 L9.8631578,24.75 L7.26315789,24.75 L7.26315789,19.75 Z M10.8947368,19.75 L13.4947367,19.75 L13.4947367,24.75 L10.8947368,24.75 L10.8947368,19.75 Z M14.5263158,19.75 L17.1263157,19.75 L17.1263157,24.75 L14.5263158,24.75 L14.5263158,19.75 Z M18.1578947,19.75 L20.7578946,19.75 L20.7578946,24.75 L18.1578947,24.75 L18.1578947,19.75 Z M21.7894737,19.75 L24.3894736,19.75 L24.3894736,24.75 L21.7894737,24.75 L21.7894737,19.75 Z M25.4210526,19.75 L28.0210525,19.75 L28.0210525,24.75 L25.4210526,24.75 L25.4210526,19.75 Z M29.0526316,19.75 L31.6526315,19.75 L31.6526315,24.75 L29.0526316,24.75 L29.0526316,19.75 Z M32.6842105,19.75 L35.2842104,19.75 L35.2842104,24.75 L32.6842105,24.75 L32.6842105,19.75 Z M36.3157895,19.75 L38.9157894,19.75 L38.9157894,24.75 L36.3157895,24.75 L36.3157895,19.75 Z M39.9473684,19.75 L42.5473683,19.75 L42.5473683,24.75 L39.9473684,24.75 L39.9473684,19.75 Z M43.5789474,19.75 L46.1789473,19.75 L46.1789473,24.75 L43.5789474,24.75 L43.5789474,19.75 Z M47.2105263,19.75 L49.8105262,19.75 L49.8105262,24.75 L47.2105263,24.75 L47.2105263,19.75 Z M50.8421053,19.75 L53.4421052,19.75 L53.4421052,24.75 L50.8421053,24.75 L50.8421053,19.75 Z M54.4736842,19.75 L57.0736841,19.75 L57.0736841,24.75 L54.4736842,24.75 L54.4736842,19.75 Z M58.1052632,19.75 L60.7052631,19.75 L60.7052631,24.75 L58.1052632,24.75 L58.1052632,19.75 Z M61.7368421,19.75 L64.336842,19.75 L64.336842,24.75 L61.7368421,24.75 L61.7368421,19.75 Z M65.3684211,19.75 L67.968421,19.75 L67.968421,24.75 L65.3684211,24.75 L65.3684211,19.75 Z M69,19.75 L71.5999999,19.75 L71.5999999,24.75 L69,24.75 L69,19.75 Z M0,26 L2.5999999,26 L2.5999999,31 L0,31 L0,26 Z M3.63157895,26 L6.23157885,26 L6.23157885,31 L3.63157895,31 L3.63157895,26 Z M7.26315789,26 L9.8631578,26 L9.8631578,31 L7.26315789,31 L7.26315789,26 Z M10.8947368,26 L13.4947367,26 L13.4947367,31 L10.8947368,31 L10.8947368,26 Z M14.5263158,26 L17.1263157,26 L17.1263157,31 L14.5263158,31 L14.5263158,26 Z M18.1578947,26 L20.7578946,26 L20.7578946,31 L18.1578947,31 L18.1578947,26 Z M21.7894737,26 L24.3894736,26 L24.3894736,31 L21.7894737,31 L21.7894737,26 Z M25.4210526,26 L28.0210525,26 L28.0210525,31 L25.4210526,31 L25.4210526,26 Z M29.0526316,26 L31.6526315,26 L31.6526315,31 L29.0526316,31 L29.0526316,26 Z M32.6842105,26 L35.2842104,26 L35.2842104,31 L32.6842105,31 L32.6842105,26 Z M36.3157895,26 L38.9157894,26 L38.9157894,31 L36.3157895,31 L36.3157895,26 Z M39.9473684,26 L42.5473683,26 L42.5473683,31 L39.9473684,31 L39.9473684,26 Z M43.5789474,26 L46.1789473,26 L46.1789473,31 L43.5789474,31 L43.5789474,26 Z M47.2105263,26 L49.8105262,26 L49.8105262,31 L47.2105263,31 L47.2105263,26 Z M50.8421053,26 L53.4421052,26 L53.4421052,31 L50.8421053,31 L50.8421053,26 Z M54.4736842,26 L57.0736841,26 L57.0736841,31 L54.4736842,31 L54.4736842,26 Z M58.1052632,26 L60.7052631,26 L60.7052631,31 L58.1052632,31 L58.1052632,26 Z M61.7368421,26 L64.336842,26 L64.336842,31 L61.7368421,31 L61.7368421,26 Z M65.3684211,26 L67.968421,26 L67.968421,31 L65.3684211,31 L65.3684211,26 Z M69,26 L71.5999999,26 L71.5999999,31 L69,31 L69,26 Z" id="Combined-Shape-Copy" fill="url(#linearGradient-1)"></path>
                    <rect id="Rectangle-7-Copy" fill="#222628" x="65" y="0" width="8" height="32"></rect>
                    <rect id="Rectangle-7-Copy-2" fill="#222628" x="61" y="19" width="8" height="13"></rect>
                    <rect id="Rectangle-2-Copy-6" fill="#363636" x="62" y="26" width="2.5999999" height="5"></rect>
                    <rect id="Rectangle-2-Copy-7" fill="#363636" x="66" y="26" width="2.5999999" height="5"></rect>
                    <rect id="Rectangle-2-Copy-8" fill="#363636" x="69" y="26" width="2.5999999" height="5"></rect>
                    <rect id="Rectangle-2-Copy-9" fill="#363636" x="62" y="20" width="2.5999999" height="5"></rect>
                    <rect id="Rectangle-2-Copy-10" fill="#363636" x="66" y="20" width="2.5999999" height="5"></rect>
                    <rect id="Rectangle-2-Copy-11" fill="#363636" x="69" y="20" width="2.5999999" height="5"></rect>
                    <rect id="Rectangle-2-Copy-12" fill="#363636" x="66" y="14" width="2.5999999" height="5"></rect>
                    <rect id="Rectangle-2-Copy-13" fill="#363636" x="69" y="14" width="2.5999999" height="5"></rect>
                    <rect id="Rectangle-2-Copy-14" fill="#363636" x="66" y="7" width="2.5999999" height="5"></rect>
                    <rect id="Rectangle-2-Copy-15" fill="#363636" x="69" y="7" width="2.5999999" height="5"></rect>
                    <rect id="Rectangle-2-Copy-16" fill="#363636" x="66" y="1" width="2.5999999" height="5"></rect>
                    <rect id="Rectangle-2-Copy-17" fill="#363636" x="69" y="1" width="2.5999999" height="5"></rect>
                </g>
            </g>
        </g>
    </g>
</svg>

