<svg width="15px" height="15px" viewBox="0 0 15 15" version="1.1" xmlns="http://www.w3.org/2000/svg" xmlns:xlink="http://www.w3.org/1999/xlink">
    <!-- Generator: Sketch 46.2 (44496) - http://www.bohemiancoding.com/sketch -->
    <desc>Created with Sketch.</desc>
    <defs></defs>
    <g id="-" stroke="none" stroke-width="1" fill="none" fill-rule="evenodd">
        <g id="Homepage-Dark-with-Sponsor" transform="translate(-742.000000, -2931.000000)">
            <g id="Group-5-Copy-11" transform="translate(741.000000, 2862.000000)">
                <g id="truck-fire-1.2.3.1" transform="translate(1.000000, 69.000000)">
                    <g id="Filled_Icons" fill-rule="nonzero" fill="#F3AA27">
                        <path d="M10,13.75 L10,14.6875 C10,14.86 10.14,15 10.3125,15 L12.1875,15 C12.36,15 12.5,14.86 12.5,14.6875 L12.5,13.75 L10,13.75 Z" id="Shape"></path>
                        <path d="M1.875,13.75 L1.875,14.6875 C1.875,14.86 2.015,15 2.1875,15 L4.0625,15 C4.235,15 4.375,14.86 4.375,14.6875 L4.375,13.75 L1.875,13.75 Z" id="Shape"></path>
                        <g id="Group" transform="translate(0.625000, 10.625000)">
                            <polygon id="Shape" points="1.330625 2.5 2.42 2.5 4.324375 0 3.235 0"></polygon>
                            <polygon id="Shape" points="6.14 0 5.11 0 3.205625 2.5 4.295 2.5"></polygon>
                            <polygon id="Shape" points="6.5625 0.555 5.080625 2.5 8.044375 2.5"></polygon>
                            <path d="M2.449375,0 L0.3125,0 C0.14,0 0,0.14 0,0.3125 L0,2.1875 C0,2.36 0.14,2.5 0.3125,2.5 L0.545,2.5 L2.449375,0 Z" id="Shape"></path>
                            <polygon id="Shape" points="8.015 0 6.985 0 8.83 2.5 9.919375 2.5"></polygon>
                            <path d="M12.8125,0 L10.675625,0 L12.58,2.5 L12.8125,2.5 C12.985,2.5 13.125,2.36 13.125,2.1875 L13.125,0.3125 C13.125,0.14 12.985,0 12.8125,0 Z" id="Shape"></path>
                            <polygon id="Shape" points="9.89 0 8.800625 0 10.705 2.5 11.794375 2.5"></polygon>
                        </g>
                        <path d="M14.0625,3.125 L13.75,3.125 L13.75,6.25 L14.0625,6.25 C14.235,6.25 14.375,6.11 14.375,5.9375 L14.375,3.4375 C14.375,3.265 14.235,3.125 14.0625,3.125 Z" id="Shape"></path>
                        <path d="M0.625,3.125 L0.3125,3.125 C0.14,3.125 0,3.265 0,3.4375 L0,5.9375 C0,6.11 0.14,6.25 0.3125,6.25 L0.625,6.25 L0.625,3.125 Z" id="Shape"></path>
                        <g id="Group" transform="translate(1.875000, 0.000000)">
                            <path d="M10.625,1.25 L10.625,0.9375 C10.625,0.765 10.485,0.625 10.3125,0.625 L8.4375,0.625 C8.265,0.625 8.125,0.765 8.125,0.9375 L8.125,1.25 L10.625,1.25 Z" id="Shape"></path>
                            <path d="M7.5,1.25 L7.5,0.3125 C7.5,0.14 7.36,0 7.1875,0 L3.4375,0 C3.265,0 3.125,0.14 3.125,0.3125 L3.125,1.25 L7.5,1.25 Z" id="Shape"></path>
                            <path d="M2.5,1.25 L2.5,0.9375 C2.5,0.765 2.36,0.625 2.1875,0.625 L0.3125,0.625 C0.14,0.625 0,0.765 0,0.9375 L0,1.25 L2.5,1.25 Z" id="Shape"></path>
                        </g>
                        <path d="M12.8125,1.875 L1.5625,1.875 C1.39,1.875 1.25,2.015 1.25,2.1875 L1.25,10 L13.125,10 L13.125,2.1875 C13.125,2.015 12.985,1.875 12.8125,1.875 Z M1.875,5.9375 L1.875,2.8125 C1.875,2.64 2.015,2.5 2.1875,2.5 L6.5625,2.5 C6.735,2.5 6.875,2.64 6.875,2.8125 L6.875,5.9375 C6.875,6.11 6.735,6.25 6.5625,6.25 L2.1875,6.25 C2.015,6.25 1.875,6.11 1.875,5.9375 Z M3.75,9.375 C3.233125,9.375 2.8125,8.954375 2.8125,8.4375 C2.8125,7.920625 3.233125,7.5 3.75,7.5 C4.266875,7.5 4.6875,7.920625 4.6875,8.4375 C4.6875,8.954375 4.266875,9.375 3.75,9.375 Z M8.75,9.375 L5.625,9.375 C5.4525,9.375 5.3125,9.235 5.3125,9.0625 C5.3125,8.89 5.4525,8.75 5.625,8.75 L8.75,8.75 C8.9225,8.75 9.0625,8.89 9.0625,9.0625 C9.0625,9.235 8.9225,9.375 8.75,9.375 Z M8.75,8.125 L5.625,8.125 C5.4525,8.125 5.3125,7.985 5.3125,7.8125 C5.3125,7.64 5.4525,7.5 5.625,7.5 L8.75,7.5 C8.9225,7.5 9.0625,7.64 9.0625,7.8125 C9.0625,7.985 8.9225,8.125 8.75,8.125 Z M10.625,9.375 C10.108125,9.375 9.6875,8.954375 9.6875,8.4375 C9.6875,7.920625 10.108125,7.5 10.625,7.5 C11.141875,7.5 11.5625,7.920625 11.5625,8.4375 C11.5625,8.954375 11.141875,9.375 10.625,9.375 Z M12.5,5.9375 C12.5,6.11 12.36,6.25 12.1875,6.25 L7.8125,6.25 C7.64,6.25 7.5,6.11 7.5,5.9375 L7.5,2.8125 C7.5,2.64 7.64,2.5 7.8125,2.5 L12.1875,2.5 C12.36,2.5 12.5,2.64 12.5,2.8125 L12.5,5.9375 Z" id="Shape"></path>
                    </g>
                    <g id="invisible_shape">
                        <rect id="Rectangle-path" x="0" y="0" width="15" height="15"></rect>
                    </g>
                </g>
            </g>
        </g>
    </g>
</svg>

