<svg width="14px" height="15px" viewBox="0 0 14 15" version="1.1" xmlns="http://www.w3.org/2000/svg" xmlns:xlink="http://www.w3.org/1999/xlink">
    <!-- Generator: Sketch 46.2 (44496) - http://www.bohemiancoding.com/sketch -->
    <desc>Created with Sketch.</desc>
    <defs></defs>
    <g id="Archive" stroke="none" stroke-width="1" fill="none" fill-rule="evenodd">
        <g transform="translate(-456.000000, -903.000000)" id="Group-8-Copy-2">
            <g transform="translate(170.000000, 811.000000)">
                <g id="Group-6" transform="translate(0.000000, 46.000000)">
                    <g id="Group-5-Copy" transform="translate(286.000000, 0.000000)">
                        <g id="location-map.2.3.1" transform="translate(0.000000, 46.000000)">
                            <g id="Filled_Icons_1_" transform="translate(0.625000, 0.000000)" fill-rule="nonzero" fill="#F3AA27">
                                <g id="Group">
                                    <g transform="translate(0.000000, 2.500000)" id="Shape">
                                        <polygon points="3.630625 4.375 0.820625 4.375 0.42625 8.125 3.388125 8.125"></polygon>
                                        <polygon points="12.304375 4.375 9.60375 4.375 9.840625 8.125 12.69875 8.125"></polygon>
                                        <polygon points="9.490625 12.5 9.25375 8.75 3.97375 8.75 3.731875 12.5"></polygon>
                                        <path d="M7.338125,7.16 C7.16,7.373125 6.89625,7.49625 6.61875,7.49625 C6.340625,7.49625 6.0775,7.373125 5.899375,7.16 C5.64375,6.85375 4.93,5.976875 4.22125,4.924375 L4.015,8.125 L9.214375,8.125 L9.0125,4.928125 C8.305625,5.97875 7.593125,6.854375 7.338125,7.16 Z"></path>
                                        <path d="M3.3475,8.75 L0.36,8.75 L0.001875,12.155 C-0.008125,12.2425 0.020625,12.329375 0.08,12.39625 C0.139375,12.4625 0.22375,12.5 0.3125,12.5 L3.105625,12.5 L3.3475,8.75 Z"></path>
                                        <path d="M10.73625,0.9925 C10.73625,1.769375 10.305625,2.77375 9.7475,3.75 L12.238125,3.75 L11.873125,0.28 C11.856875,0.12125 11.7225,0 11.5625,0 L10.61,0 C10.689375,0.31875 10.73625,0.65 10.73625,0.9925 Z"></path>
                                        <path d="M9.88,8.75 L10.116875,12.5 L12.8125,12.5 C12.90125,12.5 12.985625,12.4625 13.045,12.39625 C13.10375,12.329375 13.1325,12.2425 13.12375,12.155 L12.765,8.75 L9.88,8.75 Z"></path>
                                        <path d="M3.489375,3.75 C2.930625,2.77375 2.5,1.77 2.5,0.9925 C2.5,0.65 2.54625,0.31875 2.62625,0 L1.5625,0 C1.4025,0 1.268125,0.12125 1.251875,0.28 L0.88625,3.75 L3.489375,3.75 Z"></path>
                                    </g>
                                    <path d="M6.61875,0 C4.6925,0 3.125,1.56625 3.125,3.4925 C3.125,5.34125 6.24625,9.1 6.37875,9.25875 C6.438125,9.33 6.525625,9.370625 6.61875,9.370625 C6.711875,9.370625 6.799375,9.329375 6.85875,9.25875 C6.99125,9.1 10.11125,5.340625 10.11125,3.4925 C10.11125,1.56625 8.544375,0 6.61875,0 Z M6.61875,4.99875 C5.78875,4.99875 5.11375,4.3225 5.11375,3.493125 C5.11375,2.66375 5.78875,1.9875 6.61875,1.9875 C7.44875,1.9875 8.12375,2.66375 8.12375,3.493125 C8.12375,4.3225 7.44875,4.99875 6.61875,4.99875 Z" id="Shape"></path>
                                </g>
                            </g>
                            <g id="invisible_shape">
                                <rect id="Rectangle-path" x="0" y="0" width="15" height="15"></rect>
                            </g>
                        </g>
                    </g>
                </g>
            </g>
        </g>
    </g>
</svg>