<svg width="27px" height="30px" viewBox="0 0 27 30" version="1.1" xmlns="http://www.w3.org/2000/svg" xmlns:xlink="http://www.w3.org/1999/xlink">
    <!-- Generator: Sketch 47 (45396) - http://www.bohemiancoding.com/sketch -->
    <desc>Created with Sketch.</desc>
    <defs></defs>
    <g id="Embed" stroke="none" stroke-width="1" fill="none" fill-rule="evenodd">
        <g transform="translate(-16.000000, -391.000000)" id="Group-8">
            <g transform="translate(15.000000, 391.000000)">
                <g id="Group-5" transform="translate(1.250000, 0.000000)" fill-rule="nonzero" fill="#F3AA27">
                    <path d="M13.737264,16.4891047 C14.475009,15.5372958 15.2127135,14.5312164 15.9002647,13.5175919 C16.4047299,12.7738825 16.8628963,12.0538617 17.2638917,11.3680022 C18.3615753,9.49053256 18.9725,7.9639471 18.9725,6.985 C18.9725,3.81687868 16.4052728,1.25 13.2375,1.25 C10.0667764,1.25 7.5,3.81607961 7.5,6.985 C7.5,7.9638954 8.11115752,9.49046266 9.2092595,11.3679098 C9.61041198,12.0537683 10.0687581,12.7737885 10.5734212,13.5174974 C11.2612426,14.5311219 11.9992373,15.5372015 12.7372725,16.4890107 C12.913266,16.7159812 13.0806344,16.9286775 13.237404,17.1252737 C13.3940903,16.9287038 13.5613677,16.7160391 13.737264,16.4891047 Z M20.2225,6.985 C20.2225,8.25108297 19.5462995,9.94078048 18.3429911,11.9989098 C17.9269418,12.7105173 17.4540273,13.4537153 16.9347353,14.2192831 C16.2310365,15.2567133 15.478116,16.2835441 14.725236,17.2548796 C14.4617037,17.5948784 14.2168672,17.9038224 13.9969117,18.1760309 C13.8643392,18.3400976 13.7690801,18.4559824 13.7173285,18.5179868 C13.4675079,18.8173001 13.0076274,18.8173445 12.757749,18.5180795 C12.7059772,18.4560754 12.6106808,18.3401908 12.4780563,18.1761243 C12.2580145,17.903916 12.013082,17.5949722 11.7494462,17.2549736 C10.9962705,16.2836384 10.2430543,15.2568078 9.53907879,14.2193776 C9.01958236,13.4538093 8.54648154,12.7106107 8.13026811,11.9990022 C6.92647361,9.94085039 6.25,8.25113467 6.25,6.985 C6.25,3.12564769 9.37649647,0 13.2375,0 C17.0955907,0 20.2225,3.12648475 20.2225,6.985 Z" id="Shape"></path>
                    <path d="M13.2375,9.995 C11.5751229,9.995 10.2275,8.6473771 10.2275,6.985 C10.2275,5.3226229 11.5751229,3.975 13.2375,3.975 C14.8998771,3.975 16.2475,5.3226229 16.2475,6.985 C16.2475,8.6473771 14.8998771,9.995 13.2375,9.995 Z M13.2375,8.745 C14.2095212,8.745 14.9975,7.95702116 14.9975,6.985 C14.9975,6.01297884 14.2095212,5.225 13.2375,5.225 C12.2654788,5.225 11.4775,6.01297884 11.4775,6.985 C11.4775,7.95702116 12.2654788,8.745 13.2375,8.745 Z" id="Oval"></path>
                    <path d="M24.9307575,28.75 L1.31924254,28.75 L3.68766359,6.25 L7.02125,6.25 C7.36642797,6.25 7.64625,5.97017797 7.64625,5.625 C7.64625,5.27982203 7.36642797,5 7.02125,5 L3.125,5 C2.80515088,5 2.53691743,5.24148031 2.50343409,5.55957201 L0.00343409192,29.309572 C-0.0354105732,29.6785963 0.253936857,30 0.625,30 L25.625,30 C25.9960631,30 26.2854106,29.6785963 26.2465659,29.309572 L23.7465659,5.55957201 C23.7130826,5.24148031 23.4448491,5 23.125,5 L19.45125,5 C19.106072,5 18.82625,5.27982203 18.82625,5.625 C18.82625,5.97017797 19.106072,6.25 19.45125,6.25 L22.5623364,6.25 L24.9307575,28.75 Z" id="Shape"></path>
                    <path d="M1.415,22.5 L24.835,22.5 C25.180178,22.5 25.46,22.220178 25.46,21.875 C25.46,21.529822 25.180178,21.25 24.835,21.25 L1.415,21.25 C1.06982203,21.25 0.79,21.529822 0.79,21.875 C0.79,22.220178 1.06982203,22.5 1.415,22.5 Z" id="Shape"></path>
                    <path d="M16.91125,13.75 L23.915,13.75 C24.260178,13.75 24.54,13.470178 24.54,13.125 C24.54,12.779822 24.260178,12.5 23.915,12.5 L16.91125,12.5 C16.566072,12.5 16.28625,12.779822 16.28625,13.125 C16.28625,13.470178 16.566072,13.75 16.91125,13.75 Z" id="Shape"></path>
                    <path d="M2.335,13.75 L9.56125,13.75 C9.90642797,13.75 10.18625,13.470178 10.18625,13.125 C10.18625,12.779822 9.90642797,12.5 9.56125,12.5 L2.335,12.5 C1.98982203,12.5 1.71,12.779822 1.71,13.125 C1.71,13.470178 1.98982203,13.75 2.335,13.75 Z" id="Shape"></path>
                    <path d="M7.49869192,29.4154152 L8.71369192,10.6654152 C8.73601264,10.3209597 8.47487077,10.0236288 8.13041524,10.0013081 C7.7859597,9.97898736 7.4886288,10.2401292 7.46630808,10.5845848 L6.25130808,29.3345848 C6.22898736,29.6790403 6.49012923,29.9763712 6.83458476,29.9986919 C7.1790403,30.0210126 7.4763712,29.7598708 7.49869192,29.4154152 Z" id="Shape"></path>
                    <path d="M20.2211946,29.3346262 L19.0074446,10.5846262 C18.9851467,10.2401692 18.6878332,9.97900755 18.3433762,10.0013054 C17.9989192,10.0236033 17.7377575,10.3209168 17.7600554,10.6653738 L18.9738054,29.4153738 C18.9961033,29.7598308 19.2934168,30.0209925 19.6378738,29.9986946 C19.9823308,29.9763967 20.2434925,29.6790832 20.2211946,29.3346262 Z" id="Shape"></path>
                </g>
                <rect id="Rectangle-path" x="0" y="0" width="30" height="30"></rect>
            </g>
        </g>
    </g>
</svg>

