<svg width="19px" height="21px" viewBox="0 0 19 21" version="1.1" xmlns="http://www.w3.org/2000/svg" xmlns:xlink="http://www.w3.org/1999/xlink">
    <!-- Generator: Sketch 46.2 (44496) - http://www.bohemiancoding.com/sketch -->
    <desc>Created with Sketch.</desc>
    <defs></defs>
    <g id="Fire" stroke="none" stroke-width="1" fill="none" fill-rule="evenodd">
        <g id="Active-fire---Fire-progress" transform="translate(-461.000000, -372.000000)" fill-rule="nonzero" fill="#FFFFFF">
            <g id="Group-4" transform="translate(461.000000, 372.000000)">
                <path d="M6.41666667,0 L0.583333333,0 C0.261333333,0 0,0.196 0,0.4375 L0,20.5625 C0,20.804 0.261333333,21 0.583333333,21 L6.41666667,21 C6.73866667,21 7,20.804 7,20.5625 L7,0.4375 C7,0.196 6.73866667,0 6.41666667,0 Z" id="Shape"></path>
                <path d="M18.4166667,0 L12.5833333,0 C12.2613333,0 12,0.196 12,0.4375 L12,20.5625 C12,20.804 12.2613333,21 12.5833333,21 L18.4166667,21 C18.7386667,21 19,20.804 19,20.5625 L19,0.4375 C19,0.196 18.7386667,0 18.4166667,0 Z" id="Shape"></path>
            </g>
        </g>
    </g>
</svg>

