<?xml version="1.0" encoding="UTF-8" standalone="no"?>
<svg
   xmlns:dc="http://purl.org/dc/elements/1.1/"
   xmlns:cc="http://creativecommons.org/ns#"
   xmlns:rdf="http://www.w3.org/1999/02/22-rdf-syntax-ns#"
   xmlns:svg="http://www.w3.org/2000/svg"
   xmlns="http://www.w3.org/2000/svg"
   xmlns:sodipodi="http://sodipodi.sourceforge.net/DTD/sodipodi-0.dtd"
   xmlns:inkscape="http://www.inkscape.org/namespaces/inkscape"
   version="1.1"
   viewBox="0 0 24 24"
   id="svg2"
   inkscape:version="0.91 r13725"
   sodipodi:docname="pause.svg">
  <sodipodi:namedview
     pagecolor="#ffffff"
     bordercolor="#666666"
     borderopacity="1"
     objecttolerance="10"
     gridtolerance="10"
     guidetolerance="10"
     inkscape:pageopacity="0"
     inkscape:pageshadow="2"
     inkscape:window-width="1421"
     inkscape:window-height="734"
     id="namedview9"
     showgrid="false"
     inkscape:zoom="9.8333333"
     inkscape:cx="0.20338983"
     inkscape:cy="12"
     inkscape:window-x="20"
     inkscape:window-y="43"
     inkscape:window-maximized="0"
     inkscape:current-layer="Group-4" />
  <metadata
     id="metadata14">
    <rdf:RDF>
      <cc:Work
         rdf:about="">
        <dc:format>image/svg+xml</dc:format>
        <dc:type
           rdf:resource="http://purl.org/dc/dcmitype/StillImage" />
        <dc:title></dc:title>
      </cc:Work>
    </rdf:RDF>
  </metadata>
  <defs
     id="defs12" />
  <!--Generated by IJSVG (https://github.com/curthard89/IJSVG)-->
  <g
     id="Group-4"
     transform="matrix(1.1404358,0,0,1.1404358,1.1658599,0)">
    <path
       d="M 6.4166667,0 0.58333333,0 C 0.26133333,0 0,0.196 0,0.4375 L 0,20.5625 C 0,20.804 0.26133333,21 0.58333333,21 L 6.4166667,21 C 6.7386667,21 7,20.804 7,20.5625 L 7,0.4375 C 7,0.196 6.7386667,0 6.4166667,0 Z"
       id="Shape"
       inkscape:connector-curvature="0"
       style="fill:#ffffff" />
    <path
       d="M 18.416667,0 12.583333,0 C 12.261333,0 12,0.196 12,0.4375 L 12,20.5625 C 12,20.804 12.261333,21 12.583333,21 L 18.416667,21 C 18.738667,21 19,20.804 19,20.5625 L 19,0.4375 C 19,0.196 18.738667,0 18.416667,0 Z"
       id="path7"
       inkscape:connector-curvature="0"
       style="fill:#ffffff" />
  </g>
</svg>
