<?xml version="1.0" encoding="UTF-8" standalone="no"?>
<svg width="15px" height="15px" viewBox="0 0 6 12" version="1.1" xmlns="http://www.w3.org/2000/svg" xmlns:xlink="http://www.w3.org/1999/xlink">
    <!-- Generator: Sketch 46.2 (44496) - http://www.bohemiancoding.com/sketch -->
    <title>location pin medium.2.3.1</title>
    <desc>Created with Sketch.</desc>
    <defs></defs>
    <g id="Archive" stroke="none" stroke-width="1" fill="none" fill-rule="evenodd">
        <g transform="translate(-745.000000, -882.000000)" id="Group-8-Copy-2">
            <g transform="translate(170.000000, 811.000000)">
                <g id="Group-6" transform="translate(0.000000, 46.000000)">
                    <g id="Group-5-Copy-2" transform="translate(571.000000, 0.000000)">
                        <g id="location-pin-medium.2.3.1" transform="translate(0.000000, 23.000000)">
                            <g id="Filled_Icons" transform="translate(4.000000, 2.000000)" fill-rule="nonzero" fill="#F3AA27">
                                <path d="M3,0.00378947368 C1.346,0.00378947368 0,1.27831579 0,2.84589474 C0,4.30610526 1.16866667,5.51178947 2.66666667,5.66905263 L2.66666667,11.0564211 C2.66666667,11.2301053 2.816,11.3722105 3,11.3722105 C3.18333333,11.3722105 3.33333333,11.2301053 3.33333333,11.0564211 L3.33333333,5.66905263 C4.83066667,5.51178947 6,4.30610526 6,2.84589474 C6,1.27831579 4.654,0.00378947368 3,0.00378947368 Z M4.33333333,3.16168421 C4.14933333,3.16168421 4,3.01957895 4,2.84589474 C4,2.32294737 3.55066667,1.89852632 3,1.89852632 C2.816,1.89852632 2.66666667,1.75642105 2.66666667,1.58273684 C2.66666667,1.40778947 2.816,1.26694737 3,1.26694737 C3.91866667,1.26694737 4.66666667,1.97494737 4.66666667,2.84589474 C4.66666667,3.02021053 4.51666667,3.16168421 4.33333333,3.16168421 Z" id="Shape"></path>
                            </g>
                            <g id="invisible_shape">
                                <rect id="Rectangle-path" x="0" y="0" width="15" height="15"></rect>
                            </g>
                        </g>
                    </g>
                </g>
            </g>
        </g>
    </g>
</svg>