<?xml version="1.0" encoding="UTF-8" standalone="no"?>
<svg
   xmlns:dc="http://purl.org/dc/elements/1.1/"
   xmlns:cc="http://creativecommons.org/ns#"
   xmlns:rdf="http://www.w3.org/1999/02/22-rdf-syntax-ns#"
   xmlns:svg="http://www.w3.org/2000/svg"
   xmlns="http://www.w3.org/2000/svg"
   xmlns:sodipodi="http://sodipodi.sourceforge.net/DTD/sodipodi-0.dtd"
   xmlns:inkscape="http://www.inkscape.org/namespaces/inkscape"
   version="1.1"
   viewBox="0 0 24 24"
   id="svg2"
   inkscape:version="0.91 r13725"
   sodipodi:docname="replay.svg">
  <metadata
     id="metadata14">
    <rdf:RDF>
      <cc:Work
         rdf:about="">
        <dc:format>image/svg+xml</dc:format>
        <dc:type
           rdf:resource="http://purl.org/dc/dcmitype/StillImage" />
        <dc:title></dc:title>
      </cc:Work>
    </rdf:RDF>
  </metadata>
  <defs
     id="defs12" />
  <sodipodi:namedview
     pagecolor="#ffffff"
     bordercolor="#666666"
     borderopacity="1"
     objecttolerance="10"
     gridtolerance="10"
     guidetolerance="10"
     inkscape:pageopacity="0"
     inkscape:pageshadow="2"
     inkscape:window-width="782"
     inkscape:window-height="480"
     id="namedview10"
     showgrid="false"
     inkscape:zoom="9.8333333"
     inkscape:cx="12.508475"
     inkscape:cy="24.20339"
     inkscape:window-x="20"
     inkscape:window-y="43"
     inkscape:window-maximized="0"
     inkscape:current-layer="svg2" />
  <!--Generated by IJSVG (https://github.com/curthard89/IJSVG)-->
  <g
     fill="#000000"
     id="g4"
     style="fill:#ffffff">
    <path
       d="M22.572,0c-0.553,0 -1,0.448 -1,1v4.378c-1.772,-1.628 -3.982,-2.779 -6.343,-3.261c-7.209,-1.469 -13.387,3.461 -14.485,10.038c-0.744,4.452 0.955,8.766 4.175,11.537c0.422,0.363 1.052,0.312 1.41,-0.104c0.361,-0.418 0.314,-1.05 -0.105,-1.41c-2.655,-2.288 -4.144,-5.887 -3.508,-9.693c0.913,-5.465 6.024,-9.646 12.113,-8.407c2.08,0.423 4.022,1.458 5.553,2.922h-4.81c-0.553,0 -1,0.448 -1,1c0,0.553 0.447,1 1,1h7c0.552,0 1,-0.447 1,-1v-7c0,-0.552 -0.448,-1 -1,-1Z"
       transform="translate(0.428, 0)"
       id="path6"
       style="fill:#ffffff" />
  </g>
  <path
     fill="none"
     d="M0,0h24v24h-24Z"
     id="path8" />
</svg>
